<svg id="Capa_1" enable-background="new 0 0 512 512" height="512" viewBox="0 0 512 512" width="512" xmlns="http://www.w3.org/2000/svg"><g><g><path d="m502 329.774v39.67l-160.417 10-331.583-10v-39.67c0-28.32 11.74-53.91 30.62-72.15 11.52-11.14 25.71-19.55 41.52-24.16 8.94-2.62 18.4-4.02 28.19-4.02h291.34c9.79 0 19.25 1.4 28.19 4.02 14.89 4.34 28.34 12.05 39.48 22.24 20.07 18.34 32.66 44.74 32.66 74.07z" fill="#00d0b0"/><path d="m10 369.444h492v59.76h-492z" fill="#66e3d0"/><path d="m469.34 90.564v165.14c-11.14-10.19-24.59-17.9-39.48-22.24v-40.46c0-12-4.86-22.86-12.73-30.73s-18.73-12.73-30.74-12.73h-86.93c-24 0-43.46 19.46-43.46 43.46 0-12-4.86-22.86-12.73-30.73s-18.73-12.73-30.73-12.73h-86.93c-24.01 0-43.47 19.46-43.47 43.46v40.46c-15.81 4.61-30 13.02-41.52 24.16v-167.06c0-33.68 27.31-60.99 60.99-60.99h306.74c33.68 0 60.99 27.31 60.99 60.99z" fill="#ffb954"/><path d="m71.24 429.204v22.6c0 16.91-13.71 30.62-30.62 30.62-8.46 0-16.11-3.43-21.65-8.97s-8.97-13.19-8.97-21.65v-22.6z" fill="#ffc66c"/><path d="m502 429.204v22.6c0 16.91-13.71 30.62-30.62 30.62-8.46 0-16.11-3.43-21.65-8.97s-8.97-13.19-8.97-21.65v-22.6z" fill="#ffc66c"/><g fill="#eaf0f0"><path d="m256 193.004v36.44h-145.67c-9.79 0-19.25 1.4-28.19 4.02v-40.46c0-24 19.46-43.46 43.47-43.46h86.93c12 0 22.86 4.86 30.73 12.73s12.73 18.73 12.73 30.73z"/><path d="m429.86 193.004v40.46c-8.94-2.62-18.4-4.02-28.19-4.02h-145.67v-36.44c0-24 19.46-43.46 43.46-43.46h86.93c12.01 0 22.87 4.86 30.74 12.73s12.73 18.73 12.73 30.73z"/></g></g><g><path d="m479.336 251.492v-160.926c0-39.144-31.846-70.989-70.989-70.989h-306.735c-39.144 0-70.989 31.846-70.989 70.989v163.002c-18.96 19.822-30.623 46.679-30.623 76.209v122.023c0 22.399 18.223 40.623 40.623 40.623 22.399 0 40.622-18.224 40.622-40.623v-12.602h349.511v12.602c0 22.399 18.223 40.623 40.622 40.623s40.622-18.223 40.622-40.623v-122.023c0-30.575-12.504-58.283-32.664-78.285zm-377.724-211.915h306.735c28.116 0 50.989 22.874 50.989 50.989v145.187c-6.125-3.771-12.643-6.961-19.479-9.491v-33.254c0-29.48-23.984-53.464-53.464-53.464h-86.928c-17.896 0-33.755 8.847-43.464 22.388-9.709-13.541-25.568-22.388-43.464-22.388h-86.928c-29.48 0-53.464 23.983-53.464 53.464v33.254c-7.601 2.813-14.81 6.441-21.521 10.777v-146.473c-.001-28.115 22.872-50.989 50.988-50.989zm8.721 179.867c-6.195 0-12.271.522-18.19 1.508v-27.944c0-18.452 15.012-33.464 33.464-33.464h86.928c18.452 0 33.464 15.012 33.464 33.464v26.437h-135.666zm155.667-26.437c0-18.452 15.012-33.464 33.464-33.464h86.928c18.452 0 33.464 15.012 33.464 33.464v27.944c-5.92-.986-11.995-1.508-18.19-1.508h-135.666zm-155.667 46.437h291.333c49.81 0 90.333 40.523 90.333 90.333v29.667h-100.296c-5.523 0-10 4.478-10 10s4.477 10 10 10h100.297v39.755h-472v-39.755h271.703c5.523 0 10-4.478 10-10s-4.477-10-10-10h-271.703v-29.667c0-49.81 40.523-90.333 90.333-90.333zm-49.088 212.356c0 11.371-9.251 20.623-20.622 20.623s-20.623-9.252-20.623-20.623v-12.602h41.245zm410.132 20.623c-11.371 0-20.622-9.252-20.622-20.623v-12.602h41.245v12.602c0 11.371-9.251 20.623-20.623 20.623z"/><circle cx="341.698" cy="369.444" r="10.005"/></g></g></svg>