<?xml version="1.0" encoding="UTF-8"?>
<svg xmlns="http://www.w3.org/2000/svg" xmlns:xlink="http://www.w3.org/1999/xlink" version="1.1" id="Capa_1" x="0px" y="0px" viewBox="0 0 512 512" style="enable-background:new 0 0 512 512;" xml:space="preserve" width="512" height="512">
<g>
	<path style="fill:#FEA95C;" d="M424.794,504.5H87.198c-5.896,0-10.676-4.78-10.676-10.676V45.783&#10;&#9;&#9;c0-5.896,4.78-10.676,10.676-10.676h337.596c5.896,0,10.676,4.78,10.676,10.676v448.041C435.47,499.72,430.69,504.5,424.794,504.5z&#10;&#9;&#9;"/>
	<path style="fill:#FFF9DF;" d="M407.858,62.719H104.134v414.17h138.751c82.14,0,78.813-24.284,109.751-55.223l0,0&#10;&#9;&#9;c30.939-30.939,55.222-41.417,55.222-109.751V62.719z"/>
	<path style="fill:#FFF6CE;" d="M367.849,62.719c-0.079,238.138,0.263,230.926-0.305,241.999&#10;&#9;&#9;c-3.135,31.185-29.461,55.53-61.473,55.53h-16.808c-9.967,0-18.046,8.079-18.046,18.046v16.808&#10;&#9;&#9;c0,32.625-25.286,59.343-57.329,61.627c-8.553,0.257-8.066,0.139-109.754,0.149v20.01h138.751&#10;&#9;&#9;c82.14,0,78.813-24.284,109.751-55.223l0,0c30.938-30.939,55.222-41.417,55.222-109.751V62.719H367.849z"/>
	<path style="fill:#E2E2E2;" d="M351.061,21.302l-74.471,0c-0.641,0-1.199-0.401-1.444-0.993&#10;&#9;&#9;c-3.104-7.52-10.509-12.812-19.15-12.812c-8.641,0-16.046,5.292-19.15,12.812c-0.244,0.592-0.803,0.993-1.444,0.993l-74.472,0&#10;&#9;&#9;c-0.87,0-1.574,0.705-1.574,1.574v70.431c0,5.981,4.848,10.829,10.829,10.829h171.621c5.981,0,10.829-4.848,10.829-10.829v-70.43&#10;&#9;&#9;C352.635,22.007,351.931,21.302,351.061,21.302z"/>
	<path style="fill:#CECECE;" d="M351.061,21.302h-38.427v36.961c0,14.289-11.583,25.873-25.872,25.873H159.356v9.172&#10;&#9;&#9;c0,5.981,4.848,10.829,10.829,10.829h171.621c5.981,0,10.829-4.848,10.829-10.829v-70.43&#10;&#9;&#9;C352.635,22.007,351.931,21.302,351.061,21.302z"/>
	<path style="fill:#FFFFFF;" d="M242.885,476.888l6.548,0c34.123,0,61.786-27.662,61.786-61.785v-34.854h34.854&#10;&#9;&#9;c34.123,0,61.786-27.662,61.786-61.786v-6.549v14.967c0,82.847-67.16,150.007-150.007,150.007H242.885z"/>
	<rect x="145.551" y="131.747" style="fill:#FFF3BE;" width="55.223" height="55.223"/>
	<rect x="145.551" y="214.581" style="fill:#FFF3BE;" width="55.223" height="55.223"/>
	<rect x="145.551" y="297.415" style="fill:#FFF3BE;" width="55.223" height="55.223"/>
	<rect x="145.551" y="380.249" style="fill:#FFF3BE;" width="55.223" height="55.223"/>
	<path style="fill:none;stroke:#000000;stroke-width:15;stroke-linecap:round;stroke-linejoin:round;stroke-miterlimit:10;" d="&#10;&#9;&#9;M179.482,21.306l-18.547,0c-0.87,0-1.574,0.705-1.574,1.574v70.43c0,5.981,4.848,10.829,10.829,10.829h171.62&#10;&#9;&#9;c5.981,0,10.829-4.848,10.829-10.829V22.88c0-0.87-0.705-1.575-1.575-1.575l-74.471,0c-0.641,0-1.199-0.401-1.444-0.993&#10;&#9;&#9;C272.046,12.792,264.641,7.5,256,7.5c-8.641,0-16.045,5.292-19.15,12.812c-0.244,0.592-0.803,0.993-1.444,0.993l-20.923,0"/>
	
		<line style="fill:none;stroke:#000000;stroke-width:15;stroke-linecap:round;stroke-linejoin:round;stroke-miterlimit:10;" x1="256" y1="35.294" x2="256" y2="35.294"/>
	
		<line style="fill:none;stroke:#000000;stroke-width:15;stroke-linecap:round;stroke-linejoin:round;stroke-miterlimit:10;" x1="186.972" y1="76.528" x2="325.028" y2="76.528"/>
	
		<rect x="145.556" y="131.75" style="fill:none;stroke:#000000;stroke-width:15;stroke-linecap:round;stroke-linejoin:round;stroke-miterlimit:10;" width="55.222" height="55.222"/>
	
		<rect x="145.556" y="214.583" style="fill:none;stroke:#000000;stroke-width:15;stroke-linecap:round;stroke-linejoin:round;stroke-miterlimit:10;" width="55.222" height="55.222"/>
	
		<rect x="145.556" y="297.417" style="fill:none;stroke:#000000;stroke-width:15;stroke-linecap:round;stroke-linejoin:round;stroke-miterlimit:10;" width="55.222" height="55.222"/>
	
		<polyline style="fill:none;stroke:#000000;stroke-width:15;stroke-linecap:round;stroke-linejoin:round;stroke-miterlimit:10;" points="&#10;&#9;&#9;154.917,435.472 145.556,435.472 145.556,380.25 200.778,380.25 200.778,435.472 189.918,435.472 &#9;"/>
	
		<line style="fill:none;stroke:#000000;stroke-width:15;stroke-linecap:round;stroke-linejoin:round;stroke-miterlimit:10;" x1="242.194" y1="145.556" x2="366.444" y2="145.556"/>
	
		<line style="fill:none;stroke:#000000;stroke-width:15;stroke-linecap:round;stroke-linejoin:round;stroke-miterlimit:10;" x1="242.194" y1="173.167" x2="311.222" y2="173.167"/>
	
		<line style="fill:none;stroke:#000000;stroke-width:15;stroke-linecap:round;stroke-linejoin:round;stroke-miterlimit:10;" x1="242.194" y1="228.384" x2="366.444" y2="228.384"/>
	
		<line style="fill:none;stroke:#000000;stroke-width:15;stroke-linecap:round;stroke-linejoin:round;stroke-miterlimit:10;" x1="242.194" y1="255.995" x2="269.804" y2="255.995"/>
	
		<line style="fill:none;stroke:#000000;stroke-width:15;stroke-linecap:round;stroke-linejoin:round;stroke-miterlimit:10;" x1="242.194" y1="311.212" x2="366.444" y2="311.212"/>
	
		<line style="fill:none;stroke:#000000;stroke-width:15;stroke-linecap:round;stroke-linejoin:round;stroke-miterlimit:10;" x1="242.194" y1="338.823" x2="352.639" y2="338.823"/>
	
		<line style="fill:none;stroke:#000000;stroke-width:15;stroke-linecap:round;stroke-linejoin:round;stroke-miterlimit:10;" x1="242.194" y1="394.04" x2="311.222" y2="394.04"/>
	
		<line style="fill:none;stroke:#000000;stroke-width:15;stroke-linecap:round;stroke-linejoin:round;stroke-miterlimit:10;" x1="242.194" y1="421.651" x2="283.611" y2="421.651"/>
	
		<polyline style="fill:none;stroke:#000000;stroke-width:15;stroke-linecap:round;stroke-linejoin:round;stroke-miterlimit:10;" points="&#10;&#9;&#9;145.556,228.389 173.166,256 214.582,214.582 &#9;"/>
	
		<polyline style="fill:none;stroke:#000000;stroke-width:15;stroke-linecap:round;stroke-linejoin:round;stroke-miterlimit:10;" points="&#10;&#9;&#9;145.556,145.557 173.166,173.168 214.582,131.75 &#9;"/>
	<path style="fill:none;stroke:#000000;stroke-width:15;stroke-linecap:round;stroke-linejoin:round;stroke-miterlimit:10;" d="&#10;&#9;&#9;M159.361,35.111H87.203c-5.896,0-10.676,4.78-10.676,10.676v448.037c0,5.896,4.78,10.676,10.676,10.676h337.593&#10;&#9;&#9;c5.896,0,10.676-4.78,10.676-10.676V45.787c0-5.896-4.78-10.676-10.676-10.676h-72.158"/>
	
		<polyline style="fill:none;stroke:#000000;stroke-width:15;stroke-linecap:round;stroke-linejoin:round;stroke-miterlimit:10;" points="&#10;&#9;&#9;159.361,62.722 104.139,62.722 104.139,476.889 242.888,476.889 &#9;"/>
	
		<polyline style="fill:none;stroke:#000000;stroke-width:15;stroke-linecap:round;stroke-linejoin:round;stroke-miterlimit:10;" points="&#10;&#9;&#9;407.861,166.713 407.861,62.722 352.639,62.722 &#9;"/>
	
		<line style="fill:none;stroke:#000000;stroke-width:15;stroke-linecap:round;stroke-linejoin:round;stroke-miterlimit:10;" x1="407.861" y1="311.916" x2="407.861" y2="201.715"/>
	<path style="fill:none;stroke:#000000;stroke-width:15;stroke-linecap:round;stroke-linejoin:round;stroke-miterlimit:10;" d="&#10;&#9;&#9;M242.889,476.889l6.548,0c34.123,0,61.785-27.662,61.785-61.785V380.25h34.854c34.123,0,61.785-27.662,61.785-61.785v-6.549v14.967&#10;&#9;&#9;c0,82.846-67.16,150.006-150.006,150.006H242.889z"/>
</g>















</svg>
