<svg id="Capa_1" enable-background="new 0 0 512 512" height="512" viewBox="0 0 512 512" width="512" xmlns="http://www.w3.org/2000/svg"><g><g><path clip-rule="evenodd" d="m438.826 249.211-179.506-179.511c-1.842-1.813-4.824-1.813-6.636 0l-179.506 179.511v186.937l189.388 27.891 176.261-27.891v-186.937z" fill="#faf5dc" fill-rule="evenodd"/></g><g><path clip-rule="evenodd" d="m438.826 436.148v-138.405-38.212l-179.506-179.511c-1.842-1.813-4.824-1.813-6.636 0l-179.506 179.511v38.212l179.506-179.482c1.813-1.842 4.795-1.842 6.636 0l150.417 150.392v167.495z" fill="#f5ebcd" fill-rule="evenodd"/></g><g><path clip-rule="evenodd" d="m438.826 436.148h-72.884c-3.157 6.403-6.9 12.572-11.197 18.39-6.607 9.005-14.53 17.22-23.681 24.266h126.531c11.723 0 21.342-9.59 21.342-21.342 0-11.724-9.618-21.313-21.342-21.313h-18.769z" fill="#7e707d" fill-rule="evenodd"/></g><g><path clip-rule="evenodd" d="m146.062 436.148h-72.884-18.799c-11.723 0-21.313 9.59-21.313 21.313 0 11.753 9.589 21.342 21.313 21.342h126.531c-8.829-6.841-16.84-14.94-23.652-24.266-3.508-4.766-6.724-9.823-9.56-15.203-.555-1.052-1.11-2.134-1.636-3.186z" fill="#7e707d" fill-rule="evenodd"/></g><g><path clip-rule="evenodd" d="m445.141 202.813v-146.006h-68.762v77.213z" fill="#faf5dc" fill-rule="evenodd"/></g><g><path clip-rule="evenodd" d="m458.969 61.514v-36.37c0-3.07-2.514-5.613-5.613-5.613h-85.192c-3.099 0-5.613 2.544-5.613 5.613v36.37c0 3.07 2.514 5.613 5.613 5.613h8.215 68.762 8.215c3.099 0 5.613-2.544 5.613-5.613z" fill="#f37c7c" fill-rule="evenodd"/></g><g><path clip-rule="evenodd" d="m376.379 123.728-113.288-113.29c-3.888-3.918-10.291-3.918-14.208 0l-216.752 216.787c-10.115 10.087-10.115 26.605 0 36.692 10.086 10.087 26.575 10.087 36.691 0l4.356-4.385 179.506-179.512c1.813-1.813 4.795-1.813 6.636 0l179.506 179.511 4.356 4.385c10.086 10.087 26.604 10.087 36.691 0s10.086-26.605 0-36.692l-34.732-34.733z" fill="#f37c7c" fill-rule="evenodd"/></g><g><path clip-rule="evenodd" d="m445.141 192.492v-125.365h-68.762v20.816h48.034v83.821z" fill="#f5ebcd" fill-rule="evenodd"/></g><g><path clip-rule="evenodd" d="m478.937 457.461c0-11.724-9.618-21.313-21.342-21.313h-18.769-17.658c7.309 0 13.799 3.742 17.658 9.385 2.31 3.421 3.654 7.543 3.654 11.928 0 11.753-9.589 21.342-21.313 21.342h36.427c11.725 0 21.343-9.589 21.343-21.342z" fill="#6a5d6a" fill-rule="evenodd"/></g><g><path clip-rule="evenodd" d="m365.942 436.148c16.84-34.148 17.571-75.634-1.637-111.829-31.779-59.817-106.008-82.563-165.824-50.813-58.763 31.195-81.742 103.409-52.419 162.642.526 1.053 1.082 2.134 1.637 3.187 2.836 5.38 6.052 10.437 9.56 15.203 6.812 9.326 14.822 17.425 23.652 24.266 36.954 28.564 88.671 34.645 132.583 11.314 6.286-3.333 12.133-7.134 17.571-11.314 9.151-7.046 17.074-15.261 23.681-24.266 4.296-5.819 8.039-11.988 11.196-18.39z" fill="#f9f7f8" fill-rule="evenodd"/></g><g><path clip-rule="evenodd" d="m323.287 372.149c0-7.309-5.964-13.303-13.273-13.303h-31.048v-31.049c0-7.309-5.993-13.273-13.302-13.273h-19.354c-7.309 0-13.273 5.964-13.273 13.273v31.049h-31.048c-7.309 0-13.273 5.993-13.273 13.303v19.354c0 7.28 5.964 13.273 13.273 13.273h31.048v31.049.322c.175 7.163 6.081 12.952 13.273 12.952h19.354c7.192 0 13.127-5.789 13.273-12.952l.029-.322v-31.049h31.048c7.309 0 13.273-5.993 13.273-13.273z" fill="#f37c7c" fill-rule="evenodd"/></g><g><path clip-rule="evenodd" d="m364.305 324.319c-26.721-50.316-83.438-74.377-136.384-61.893 41.748 2.017 81.392 25.377 102.441 64.992 31.984 60.227 8.069 134.545-50.811 165.799-9.531 5.058-19.412 8.742-29.44 11.11 21.313 1.023 43.181-3.479 63.383-14.209 6.286-3.333 12.133-7.134 17.571-11.314 9.151-7.046 17.074-15.261 23.681-24.266 27.889-37.92 31.719-88.47 9.559-130.219z" fill="#f0f0f0" fill-rule="evenodd"/></g><g><path clip-rule="evenodd" d="m458.969 61.514v-36.37c0-3.07-2.514-5.613-5.613-5.613h-26.897c3.099 0 5.613 2.544 5.613 5.613v31.663 4.707c0 3.07-2.514 5.613-5.613 5.613h18.681 8.215c3.1 0 5.614-2.544 5.614-5.613z" fill="#ee6161" fill-rule="evenodd"/></g><g><path d="m272.944 181.018c4.142 0 7.5-3.357 7.5-7.5s-3.357-7.5-7.5-7.5h-33.884c-4.142 0-7.5 3.357-7.5 7.5s3.357 7.5 7.5 7.5z"/><path d="m207.148 203.777c0 4.142 3.357 7.5 7.5 7.5h82.678c4.142 0 7.5-3.357 7.5-7.5 0-4.142-3.357-7.5-7.5-7.5h-82.678c-4.143.001-7.5 3.358-7.5 7.5z"/><path d="m310.015 351.347h-23.549v-23.549c0-11.454-9.331-20.773-20.801-20.773h-19.355c-11.453 0-20.772 9.319-20.772 20.773v23.549h-23.548c-11.454 0-20.773 9.331-20.773 20.802v19.354c0 11.454 9.319 20.773 20.773 20.773h23.548v23.549c0 11.454 9.319 20.773 20.772 20.773h19.354c11.47 0 20.801-9.319 20.801-20.773v-23.549h23.549c11.453 0 20.772-9.319 20.772-20.773v-19.354c.001-11.471-9.318-20.802-20.771-20.802zm5.773 40.157c0 3.13-2.643 5.774-5.773 5.774h-31.049c-4.142 0-7.5 3.357-7.5 7.5v31.049c0 3.183-2.603 5.774-5.802 5.774h-19.354c-3.183 0-5.773-2.591-5.773-5.774v-31.049c0-4.142-3.357-7.5-7.5-7.5h-31.048c-3.13 0-5.774-2.644-5.774-5.774v-19.354c0-3.2 2.591-5.803 5.774-5.803h31.048c4.142 0 7.5-3.357 7.5-7.5v-31.049c0-3.183 2.59-5.774 5.773-5.774h19.354c3.199 0 5.802 2.591 5.802 5.774v31.049c0 4.142 3.357 7.5 7.5 7.5h31.049c3.183 0 5.773 2.603 5.773 5.803z"/><path d="m457.595 428.648h-11.27v-153.292c4.644 2.365 9.82 3.626 15.202 3.626 8.956 0 17.353-3.467 23.648-9.762 13.039-13.04 13.039-34.258 0-47.297l-32.535-32.536v-39.112c0-4.142-3.357-7.5-7.5-7.5-4.142 0-7.5 3.357-7.5 7.5v24.113l-53.763-53.765v-45.997h53.763v39.952c0 4.142 3.357 7.5 7.5 7.5 4.142 0 7.5-3.357 7.5-7.5v-39.952h.716c7.23 0 13.112-5.882 13.112-13.112v-36.37c0-7.231-5.882-13.113-13.112-13.113h-85.193c-7.23 0-13.112 5.882-13.112 13.113v36.37c0 7.23 5.882 13.112 13.112 13.112h.716v30.997l-100.464-100.467c-3.29-3.316-7.688-5.147-12.382-5.156-.012 0-.023 0-.035 0-4.697 0-9.106 1.823-12.418 5.135l-9.179 9.179c-57.077 57.079-155.386 155.391-207.565 207.6-6.313 6.295-9.79 14.696-9.79 23.655 0 8.96 3.476 17.361 9.783 23.651 6.512 6.511 15.07 9.767 23.635 9.767 5.225 0 10.45-1.22 15.215-3.644v67.496c0 4.015 3.357 7.269 7.5 7.269s7.5-3.254 7.5-7.269v-80.173l175.323-175.357 175.325 175.357v165.982h-53.93c1.098-2.857 2.105-5.763 3.011-8.718 10.184-33.236 6.817-68.441-9.48-99.13-33.663-63.364-112.599-87.55-175.963-53.918-.001.001-.001.001-.002.002-58.716 31.195-83.774 101.246-60.373 161.764h-53.913v-51.184c0-4.015-3.357-7.268-7.5-7.268s-7.5 3.254-7.5 7.268v51.184h-11.297c-15.888 0-28.813 12.925-28.813 28.813 0 15.904 12.925 28.843 28.813 28.843h123.94c11.784 8.747 25.106 15.507 39.555 19.931 12.588 3.855 25.46 5.765 38.263 5.765 20.993 0 41.801-5.135 60.871-15.258 5.829-3.094 11.362-6.587 16.572-10.439h124.014c15.903 0 28.841-12.939 28.841-28.843 0-15.887-12.937-28.812-28.841-28.812zm-87.545-401.618h81.42v32.598h-81.42zm-105.47 47.645c-4.768-4.692-12.485-4.675-17.2.043l-183.855 183.889c-7.205 7.184-18.91 7.189-26.099 0-3.471-3.462-5.382-8.091-5.382-13.036s1.911-9.575 5.391-13.044c52.188-52.218 150.495-150.528 207.571-207.607l9.18-9.179c.645-.645 1.41-.742 1.812-.742h.005c.393.001 1.143.096 1.784.742l216.781 216.787c7.192 7.191 7.192 18.893 0 26.086-3.461 3.461-8.092 5.368-13.041 5.368s-9.58-1.907-13.042-5.368zm-210.2 396.629c-7.617 0-13.814-6.211-13.814-13.844 0-7.617 6.197-13.814 13.814-13.814h87.13c5.494 10.182 12.197 19.455 19.935 27.657h-107.065zm255.597 12.189c-27.163 14.42-58.313 17.4-87.709 8.401-29.4-9.003-53.53-28.917-67.946-56.078-29.78-56.057-8.393-125.897 47.678-155.687l-.002.002c56.059-29.763 125.9-8.357 155.684 47.705 14.417 27.149 17.394 58.294 8.385 87.7-9.012 29.408-28.932 53.542-56.09 67.957zm147.618-12.189h-107.057c7.842-8.27 14.562-17.551 19.991-27.657h87.066c7.632 0 13.842 6.197 13.842 13.814 0 7.633-6.209 13.843-13.842 13.843z"/></g></g></svg>