<svg xmlns="http://www.w3.org/2000/svg" version="1.1" xmlns:xlink="http://www.w3.org/1999/xlink" width="512" height="512" x="0" y="0" viewBox="0 0 60 60" style="enable-background:new 0 0 512 512" xml:space="preserve" class=""><g><circle cx="30" cy="30" r="29" fill="#92ffb3" opacity="1" data-original="#2d87d1" class=""></circle><circle cx="30" cy="30" r="25" fill="#92ffb3" opacity="1" data-original="#3aacf2" class=""></circle><circle cx="30" cy="16" r="5" fill="#ffffff" opacity="1" data-original="#ffffff" class=""></circle><path fill="#ffffff" d="M36 45v2a1 1 0 0 1-1 1H25a1 1 0 0 1-1-1v-2a1 1 0 0 1 1-1 2 2 0 0 0 2-2V32a2 2 0 0 0-2-2 1 1 0 0 1-1-1v-2a1 1 0 0 1 1-1h6a2 2 0 0 1 2 2v14a2 2 0 0 0 2 2 1 1 0 0 1 1 1z" opacity="1" data-original="#ffffff" class=""></path><g fill="#181818"><path d="M30 0a29.998 29.998 0 0 0-19.547 7.242 1 1 0 1 0 1.305 1.515A27.997 27.997 0 0 1 30 1.999c15.439 0 28 12.561 28 28s-12.561 28-28 28S2 45.439 2 30a27.993 27.993 0 0 1 6.846-18.345 1 1 0 1 0-1.51-1.31A29.982 29.982 0 0 0 0 30c0 16.542 13.458 30 30 30s30-13.458 30-30S46.542 0 30 0z" fill="#181818" opacity="1" data-original="#181818" class=""></path><path d="M30 56c14.337 0 26-11.663 26-26S44.337 4 30 4 4 15.663 4 30s11.663 26 26 26zm0-50c13.233 0 24 10.767 24 24S43.233 54 30 54 6 43.233 6 30 16.767 6 30 6z" fill="#181818" opacity="1" data-original="#181818" class=""></path><path d="M30 22c3.309 0 6-2.691 6-6s-2.691-6-6-6-6 2.691-6 6 2.691 6 6 6zm0-10c2.206 0 4 1.794 4 4s-1.794 4-4 4-4-1.794-4-4 1.794-4 4-4zM25 49h10c1.103 0 2-.897 2-2v-2c0-1.103-.897-2-2-2a1 1 0 0 1-1-1V28c0-1.654-1.346-3-3-3h-6c-1.103 0-2 .897-2 2v2c0 1.103.897 2 2 2a1 1 0 0 1 1 1v10a1 1 0 0 1-1 1c-1.103 0-2 .897-2 2v2c0 1.103.897 2 2 2zm0-4c1.654 0 3-1.346 3-3V32c0-1.654-1.346-3-3-3v-2h6a1 1 0 0 1 1 1v14a3 3 0 0 0 2.997 2.998H35V47H25z" fill="#181818" opacity="1" data-original="#181818" class=""></path></g></g></svg>