<svg id="Layer_1" height="512" viewBox="0 0 256 256" width="512" xmlns="http://www.w3.org/2000/svg"><g><g><g><circle cx="128" cy="127.999" fill="#ffa91a" r="90.996"/></g><g><path d="m158.341 42.191c24.504 16.305 40.654 44.168 40.654 75.808 0 50.256-40.74 90.996-90.996 90.996-10.64 0-20.851-1.832-30.342-5.188 14.418 9.594 31.725 15.188 50.342 15.188 50.256 0 90.996-40.74 90.996-90.996.001-39.616-25.318-73.313-60.654-85.808z" fill="#f79219"/></g><g><g><g><g><path d="m194.127 190.517c-5.187 5.489-11.053 10.336-17.465 14.391-14.07 8.921-30.762 14.089-48.662 14.089-26.047 0-49.529-10.94-66.127-28.48 4.564-15.824 19.144-27.386 36.44-27.386h59.375c17.295 0 31.875 11.562 36.439 27.386z" fill="#58595b"/></g><g><path d="m176.662 204.908v-13.335c0-10.996-4.696-20.917-12.184-27.839 14.24 2.584 25.708 13.09 29.65 26.783-5.188 5.489-11.054 10.336-17.466 14.391z" fill="#414042"/></g></g><g><g><path d="m117.103 142.798v26.97c0 2.087.599 4.129 1.726 5.885 4.288 6.683 14.055 6.683 18.344 0 1.127-1.756 1.726-3.799 1.726-5.885v-26.97z" fill="#fcc4ae"/></g><g><g><path d="m117.103 151.231c3.425 1.146 7.086 1.775 10.897 1.775 3.811 0 7.473-.63 10.898-1.776v-8.433h-21.795z" fill="#f2ad97"/></g><g><path d="m128 148.265c-18.968 0-34.345-15.377-34.345-34.345v-17.828c0-18.968 15.377-34.345 34.345-34.345 18.968 0 34.345 15.377 34.345 34.345v17.828c-.001 18.968-15.377 34.345-34.345 34.345z" fill="#ffd2c0"/></g><g><path d="m93.655 96.092v9.166c13.383-8.934 21.945-24.177 21.892-40.89 0-.098-.001-.195-.002-.292-12.811 4.987-21.89 17.441-21.89 32.016z" fill="#f2ad97"/></g><g><path d="m149.798 69.553c4.876 5.93 7.805 13.522 7.805 21.798v17.828c0 18.968-15.377 34.345-34.345 34.345-8.277 0-15.869-2.929-21.798-7.805 6.299 7.66 15.848 12.546 26.54 12.546 18.968 0 34.345-15.377 34.345-34.345v-17.828c-.001-10.691-4.887-20.241-12.547-26.539z" fill="#fcc4ae"/></g><g><path d="m93.656 113.92v-10.733c-6.11 0-11.063 4.953-11.063 11.063s4.953 11.063 11.063 11.063c.644 0 1.271-.067 1.885-.172-1.216-3.518-1.885-7.29-1.885-11.221z" fill="#ffd2c0"/></g><g><path d="m162.344 103.187v10.733c0 3.931-.669 7.703-1.885 11.221.614.106 1.241.172 1.885.172 6.11 0 11.063-4.953 11.063-11.063s-4.953-11.063-11.063-11.063z" fill="#ffd2c0"/></g><g><path d="m169.161 105.537c1.472 1.879 2.349 4.245 2.349 6.817 0 5.922-4.653 10.756-10.502 11.049-.168.586-.352 1.166-.55 1.738.614.106 1.241.172 1.885.172 6.11 0 11.063-4.953 11.063-11.063.001-3.538-1.66-6.688-4.245-8.713z" fill="#fcc4ae"/></g><g><path d="m115.546 54.886c.058 18.236-10.141 34.723-25.669 43.173-3.285 1.787-7.317-.785-6.989-4.51 1.116-12.654 6.741-24.236 15.58-32.394 4.776-4.424 10.489-7.834 16.936-9.884.092 1.193.142 2.396.142 3.615z" fill="#7c3108"/></g><g><path d="m170.321 95.05c-28.79 14.863-64.986-2.102-71.852-33.895 4.749-4.399 10.425-7.796 16.827-9.849 26.766-8.689 53.44 11.681 57.504 38.905.294 1.966-.712 3.926-2.479 4.839z" fill="#8c3f0a"/></g><g><path d="m172.8 90.21c-1.949-13.058-9.1-24.538-18.968-31.992 4.886 6.437 8.285 14.173 9.537 22.561.294 1.968-.711 3.927-2.479 4.84-17.927 9.255-38.725 6.168-53.525-5.154 14.167 18.584 40.761 26.042 62.956 14.584 1.767-.912 2.773-2.872 2.479-4.839z" fill="#7c3108"/></g><g><g><circle cx="113.387" cy="109.421" fill="#995222" r="4.161"/></g><g><circle cx="145.667" cy="109.421" fill="#995222" r="4.161"/></g></g><g><g><path d="m93.656 113.92v-6.027c-3.511 0-6.357 2.846-6.357 6.357s2.846 6.357 6.357 6.357c.223 0 .435-.043.652-.066-.419-2.144-.652-4.354-.652-6.621z" fill="#f2ad97"/></g><g><path d="m162.35 113.92v-6.027c3.511 0 6.357 2.846 6.357 6.357s-2.846 6.357-6.357 6.357c-.223 0-.435-.043-.652-.066.419-2.144.652-4.354.652-6.621z" fill="#f2ad97"/></g></g></g></g><g><path d="m133.627 126.649c.945 0 1.66.882 1.442 1.801-.812 3.417-3.884 5.958-7.549 5.958s-6.737-2.541-7.549-5.958c-.219-.919.497-1.801 1.442-1.801z" fill="#e59076"/></g><g><g><g><path d="m152.519 163.131-20.559 55.772c-1.32.057-2.64.094-3.961.094s-2.641-.038-3.961-.094l-20.54-55.772 13.561-6.13v5.885l10.941 17.031 10.939-17.032v-5.885z" fill="#d1d3d4"/></g><g><path d="m103.497 163.124 10.234 27.761c.416 1.129 1.863 1.446 2.714.595l11.555-11.556-10.932-17.037v-5.889z" fill="#f1f2f2"/></g><g><path d="m152.512 163.124-10.243 27.761c-.416 1.129-1.863 1.446-2.714.595l-11.555-11.556 10.932-17.037v-5.889z" fill="#f1f2f2"/></g><g><path d="m137.152 189.075-6.819 6.819c-1.288 1.288-3.377 1.288-4.665 0l-6.819-6.819 9.151-9.151z" fill="#e63950"/></g><g><path d="m134.696 211.453-2.735 7.45c-1.32.057-2.64.094-3.961.094s-2.641-.038-3.961-.094l-2.735-7.45 2.018-17.899 2.339 2.339c1.301 1.283 3.376 1.283 4.678 0l2.339-2.339z" fill="#b7022d"/></g></g><g><path d="m124.039 218.903c-2.169-.075-4.3-.245-6.413-.509l-22.011-23.84c-.622-.679-.585-1.735.132-2.339l5.809-5.13c1.075-.962.509-2.735-.905-2.886l-6.847-.736c-1.056-.113-1.735-1.188-1.377-2.207l6.583-18.125h4.489z" fill="#939598"/></g><g><path d="m162.195 183.463-6.847.736c-1.415.151-1.98 1.924-.905 2.886l5.809 5.13c.717.604.755 1.66.132 2.339l-22.011 23.84c-2.112.264-4.244.434-6.413.509l20.559-55.772h4.489l6.564 18.125c.358 1.019-.321 2.094-1.377 2.207z" fill="#939598"/></g></g></g></g></g><g><g><path d="m224.337 210.137-23.925 19.036c-3.262 2.595-7.874 2.627-11.172.078l-24.645-19.054c-11.193-8.654-17.556-20.817-17.556-33.557v-24.653c0-3.456 1.968-6.61 5.071-8.129l38.835-19.014c2.551-1.249 5.539-1.228 8.072.056l37.345 18.928c3.042 1.542 4.959 4.663 4.959 8.074v25.128c.001 12.511-6.138 24.477-16.984 33.107z" fill="#478cf7"/></g><g><path d="m153.04 178.64c-1.1 0-2-.9-2-2s.9-2 2-2 2 .9 2 2-.9 2-2 2zm0-8c-1.1 0-2-.9-2-2v-16.65c.01-1.94 1.09-3.68 2.83-4.54l38.83-19.01c.98-.48 2.21-.05 2.68.91.48.99.07 2.19-.92 2.68l-38.83 19.01c-.34.16-.6.57-.59.94v16.65.01c0 1.1-.9 2-2 2z" fill="#5e9cf7"/></g><g><path d="m236.362 143.826-5.086-2.578c.016.217.046.432.046.651v25.128c0 12.513-6.139 24.48-16.984 33.109l-23.925 19.036c-3.262 2.595-7.874 2.627-11.172.078l-23.998-18.554c2.571 3.471 5.699 6.675 9.353 9.5l24.645 19.054c3.298 2.55 7.91 2.517 11.172-.078l23.925-19.036c10.846-8.63 16.984-20.596 16.984-33.109v-25.127c0-3.411-1.918-6.532-4.96-8.074z" fill="#377de2"/></g><g><path d="m236.362 143.826-.735-.373c.444 1.076.695 2.241.695 3.446v25.128c0 12.513-6.139 24.48-16.984 33.109l-23.925 19.036c-3.262 2.595-7.874 2.627-11.172.078l-24.645-19.054c-.756-.584-1.486-1.188-2.197-1.803 2.109 2.442 4.51 4.726 7.197 6.803l24.645 19.054c3.298 2.55 7.91 2.517 11.172-.078l23.925-19.036c10.846-8.63 16.984-20.596 16.984-33.109v-25.127c0-3.411-1.918-6.532-4.96-8.074z" fill="#2266d3"/></g></g><g><g><g><path d="m210.977 200.299h-33.592c-1.217 0-2.204-.987-2.204-2.204v-28.175c0-1.217.987-2.204 2.204-2.204h33.592c1.217 0 2.204.987 2.204 2.204v28.175c0 1.217-.987 2.204-2.204 2.204z" fill="#ffa91a"/></g><g><path d="m210.977 167.715h-2.796v25.379c0 1.217-.987 2.204-2.204 2.204h-30.797v2.796c0 1.217.987 2.204 2.204 2.204h33.592c1.217 0 2.204-.987 2.204-2.204v-28.175c.001-1.217-.986-2.204-2.203-2.204z" fill="#f79219"/></g><g><g><path d="m210.291 167.715h-5.51v-9.707c0-5.845-4.755-10.6-10.6-10.6s-10.6 4.755-10.6 10.6v9.707h-5.51v-9.707c0-8.884 7.227-16.111 16.111-16.111s16.111 7.227 16.111 16.111v9.707z" fill="#e6e7e8"/></g></g><g><g><path d="m204.52 145.669c2.35 2.801 3.771 6.405 3.771 10.339v9.707h-3.51v2h5.51v-9.707c0-4.95-2.247-9.381-5.771-12.339z" fill="#d1d3d4"/></g></g></g><g><path d="m199.37 190.281-2.74-7.65c1.194-.794 1.982-2.15 1.982-3.692 0-2.448-1.984-4.432-4.432-4.432s-4.432 1.984-4.432 4.432c0 1.541.788 2.898 1.982 3.692l-2.74 7.65c-.396 1.106.423 2.269 1.598 2.269h7.184c1.175 0 1.994-1.164 1.598-2.269z" fill="#995222"/></g><g><path d="m199.37 190.281-2.74-7.65c1.194-.794 1.982-2.151 1.982-3.692 0-1.741-1.013-3.233-2.474-3.958.294.593.474 1.251.474 1.958 0 1.541-.788 2.898-1.982 3.692l2.74 7.65c.396 1.106-.424 2.27-1.598 2.27h-6.843c-.188 1.017.579 2 1.658 2h7.184c1.176-.001 1.995-1.165 1.599-2.27z" fill="#8c3f0a"/></g></g></g></svg>