<svg id="Layer_1" enable-background="new 0 0 512 512" height="512" viewBox="0 0 512 512" width="512" xmlns="http://www.w3.org/2000/svg"><path d="m16 154.854v251.0264c0 7.6865 6.2534 13.9395 13.9395 13.9395h325.5269c43.2949 0 70.0933-37.252 70.0933-71.7656 0-2.5029 1.1709-4.8604 3.1646-6.373 1.9932-1.5127 4.5796-2.0049 6.9902-1.3311l60.2855 16.86v-202.3562z" fill="#fdfdfd"/><path d="m482.0884 61.4126h-47.8418v-19.1563c0-10.4307-10.8848-18.6016-24.7808-18.6016s-24.7813 8.1709-24.7813 18.6016v19.1563h-52.7393v-19.1563c0-10.4307-10.8853-18.6016-24.7808-18.6016s-24.7808 8.1709-24.7808 18.6016v19.1563h-52.7393v-19.1563c0-10.4307-10.8853-18.6016-24.7813-18.6016s-24.7808 8.1709-24.7808 18.6016v19.1563h-52.7676v-19.1563c0-10.4307-10.8848-18.6016-24.7808-18.6016s-24.7813 8.1709-24.7813 18.6016v19.1563h-47.813c-16.5088 0-29.9395 13.418-29.9395 29.9111v367.082c0 16.5088 13.4307 29.9395 29.9395 29.9395h452.1489c16.4932 0 29.9116-13.4307 29.9116-29.9395v-367.082c0-16.4931-13.4185-29.9111-29.9116-29.9111zm-46.374 278.9375c-2.4106-.6738-4.9971-.1816-6.9902 1.3311-1.9937 1.5127-3.1646 3.8701-3.1646 6.373 0 34.5137-26.7983 71.7656-70.0933 71.7656h-325.5268c-7.686 0-13.9395-6.2529-13.9395-13.9395v-251.0263h480v202.3562zm48.1113 30.0693-59.2202 35.127c-2.6309 1.5586-5.2646 2.9854-7.9102 4.2803.6797-.7148 1.3481-1.4414 2.0073-2.1836 12.1914-13.7227 20.0195-31.2285 22.2202-49.2227zm-83.1411-327.8798c.646-.9434 3.7637-2.8848 8.7813-2.8848 5.0259 0 8.1406 1.9385 8.7808 2.8789v18.8789h-17.562v-18.873zm-102.3008-.0059c.6401-.9404 3.7549-2.8789 8.7808-2.8789s8.1406 1.9385 8.7808 2.8789v18.8789h-17.5615v-18.8789zm-102.3013 0c.6401-.9404 3.7549-2.8789 8.7808-2.8789 5.0171 0 8.1348 1.9414 8.7813 2.8848v18.873h-17.562v-18.8789zm-102.3296.0059c.6465-.9434 3.7642-2.8848 8.7813-2.8848 5.0259 0 8.1406 1.9385 8.7808 2.8789v18.8789h-17.562v-18.873zm-63.8134 34.873h47.8135v12.6357c0 10.4307 10.8853 18.6016 24.7813 18.6016 4.4185 0 8-3.582 8-8s-3.5815-8-8-8c-5.0171 0-8.1348-1.9414-8.7813-2.8848v-12.3525h86.3296v12.6357c0 10.4307 10.8848 18.6016 24.7808 18.6016 4.4185 0 8-3.582 8-8s-3.5815-8-8-8c-5.0259 0-8.1406-1.9385-8.7808-2.8789v-12.3584h86.3013v12.6357c0 10.4307 10.8853 18.6016 24.7808 18.6016 4.4185 0 8-3.582 8-8s-3.5815-8-8-8c-5.0259 0-8.1406-1.9385-8.7808-2.8789v-12.3584h86.3008v12.6357c0 10.4307 10.8853 18.6016 24.7813 18.6016 4.4185 0 8-3.582 8-8s-3.5815-8-8-8c-5.0176 0-8.1353-1.9414-8.7813-2.8848v-12.3525h81.4038c7.6709 0 13.9116 6.2402 13.9116 13.9111v47.5303h-480.0001v-47.5303c0-7.6709 6.2534-13.9111 13.9395-13.9111zm452.1489 394.9326h-452.1489c-7.6128 0-13.8109-6.1367-13.9285-13.7227 4.1638 2.1963 8.9016 3.4463 13.9285 3.4463h452.1489c5.0161 0 9.7441-1.2471 13.9004-3.4385-.1216 7.5823-6.3052 13.7149-13.9004 13.7149zm13.9116-40.1885c0 7.6709-6.2407 13.9121-13.9116 13.9121h-452.1489c-7.6112 0-13.8081-6.1226-13.9282-13.6909 4.163 2.1978 8.9028 3.4419 13.9282 3.4419h342.6479c22.0493 0 41.1704-5.2461 60.1777-16.5107l63.2349-37.5078zm-191.3584-197.3515h-78.7388v-30.7207c0-3.207-1.9146-6.1035-4.8647-7.3604-2.9487-1.2568-6.3647-.6309-8.6777 1.5918l-86.6543 83.2529c-1.5703 1.5088-2.458 3.5918-2.4575 5.7695s.8887 4.2617 2.4595 5.7695l43.3374 41.6074 43.313 41.6416c2.3115 2.2227 5.7266 2.8516 8.6787 1.5928 2.9507-1.2559 4.8657-4.1533 4.8657-7.3604v-30.749h92.5435c30.3813 0 48.7539 11.0439 54.6069 32.8252.9492 3.5322 4.1484 5.9248 7.7197 5.9248.3481 0 .7002-.0234 1.0532-.0693 3.979-.5254 6.9531-3.918 6.9531-7.9316v-51.6465c0-46.3935-37.7441-84.1376-84.1377-84.1376zm68.1377 106.6416c-10.7617-10.1328-27.7212-17.6064-54.333-17.6064h-100.5435c-4.4185 0-8 3.582-8 8v19.96l-29.7725-28.6221-37.3325-35.8428 67.105-64.4717v19.9414c0 4.418 3.5815 8 8 8h86.7388c37.5713 0 68.1377 30.5664 68.1377 68.1377z" fill="#212121"/><path d="m482.0884 77.4126h-81.4038v12.3525c.646.9434 3.7637 2.8848 8.7813 2.8848 4.4185 0 8 3.582 8 8s-3.5815 8-8 8c-13.896 0-24.7813-8.1709-24.7813-18.6016v-12.6357h-86.3008v12.3584c.6401.9404 3.7549 2.8789 8.7808 2.8789 4.4185 0 8 3.582 8 8s-3.5815 8-8 8c-13.8955 0-24.7808-8.1709-24.7808-18.6016v-12.6357h-86.3013v12.3584c.6401.9404 3.7549 2.8789 8.7808 2.8789 4.4185 0 8 3.582 8 8s-3.5815 8-8 8c-13.896 0-24.7808-8.1709-24.7808-18.6016v-12.6357h-86.3296v12.3525c.6465.9434 3.7642 2.8848 8.7813 2.8848 4.4185 0 8 3.582 8 8s-3.5815 8-8 8c-13.896 0-24.7813-8.1709-24.7813-18.6016v-12.6357h-47.8134c-7.6861 0-13.9395 6.2402-13.9395 13.9111v47.5303h480v-47.5303c0-7.6709-6.2407-13.9111-13.9116-13.9111z" fill="#fdca03"/><path d="m209.9028 351.8003v-19.96c0-4.418 3.5815-8 8-8h100.5435c26.6118 0 43.5713 7.4736 54.333 17.6064v-22.5039c0-37.5713-30.5664-68.1377-68.1377-68.1377h-86.7388c-4.4185 0-8-3.582-8-8v-19.9414l-67.105 64.4717 37.3325 35.8428z" fill="#f15d5b"/><path d="m29.9395 462.0688c-5.0269 0-9.7646-1.25-13.9285-3.4463.1176 7.5859 6.3157 13.7227 13.9285 13.7227h452.1489c7.5952 0 13.7788-6.1326 13.9004-13.7148-4.1563 2.1914-8.8843 3.4385-13.9004 3.4385h-452.1489z" fill="#ced4df"/><path d="m440.9229 358.4204c-2.2007 17.9941-10.0288 35.5-22.2202 49.2227-.6592.7422-1.3276 1.4688-2.0073 2.1836 2.6455-1.2949 5.2793-2.7217 7.9102-4.2803l59.2202-35.127z" fill="#e3e6ea"/><path d="m372.5874 435.8198h-342.6479c-5.0254 0-9.7653-1.2441-13.9282-3.4419.1201 7.5684 6.317 13.6909 13.9282 13.6909h452.1489c7.6709 0 13.9116-6.2412 13.9116-13.9121v-50.3555l-63.2349 37.5078c-19.0073 11.2647-38.1284 16.5108-60.1777 16.5108z" fill="#ced4df"/></svg>