<svg clip-rule="evenodd" fill-rule="evenodd" height="512" image-rendering="optimizeQuality" shape-rendering="geometricPrecision" text-rendering="geometricPrecision" viewBox="0 0 1706.66 1706.66" width="512" xmlns="http://www.w3.org/2000/svg" xmlns:xodm="http://www.corel.com/coreldraw/odm/2003"><g id="Layer_x0020_1"><path d="m795.22 996c-11.04 0-20-8.97-20-20v-156.8c0-26.33 40-26.33 40 0v156.8c0 11.03-8.96 20-20 20z"/><path d="m354.15 996c-11.04 0-20-8.97-20-20v-156.8c0-26.33 40-26.33 40 0v156.8c0 11.03-8.96 20-20 20z"/><path d="m574.59 996c-11.04 0-20-8.97-20-20v-283.26c0-26.33 40-26.33 40 0v283.26c0 11.03-8.94 20-20 20z"/><path d="m598.7 784.16c-31.38 0-68.02 6.9-68.02-20 0-26.89 36.65-20 68.02-20 26.32 0 26.33 40 0 40z"/><path d="m598.7 854.37c-31.38 0-68.02 6.9-68.02-20s36.65-20 68.02-20c26.32 0 26.33 40 0 40z"/><path d="m598.7 924.59c-31.36 0-68.02 6.9-68.02-20s36.66-20 68.02-20c26.32 0 26.33 40 0 40z"/><path d="m490.15 383.58c-27.73 0-27.73-55.83 0-55.83 27.72 0 27.73 55.83 0 55.83z"/><path d="m659.8 384.02c-27.89 0-27.89-58.09 0-58.09 27.87 0 27.89 58.09 0 58.09z"/><path d="m523.06 324.85c-13.53 0-30.46-25.05-52.42-5.17-19.51 17.67-46.35-12-26.83-29.67 45.44-41.14 120.28-.8 94.08 28.25-3.94 4.37-9.37 6.58-14.83 6.58z"/><path d="m692.7 324.85c-13.52 0-30.46-25.05-52.42-5.17-19.51 17.67-46.35-12-26.83-29.67 45.44-41.13 120.28-.81 94.08 28.25-3.94 4.37-9.37 6.58-14.83 6.58z"/><path d="m574.97 504.23c-37.79 0-84.58-27.11-62.79-51.21 7.4-8.2 20.06-8.83 28.25-1.42 18.72 16.94 50.37 16.94 69.11 0 19.5-17.67 46.37 11.99 26.83 29.67-16.94 15.31-39.17 22.96-61.41 22.96z"/><path d="m922.55 996h-695.74c-11.04 0-20-8.97-20-20v-197.56c0-92.84 74.31-167.35 169.17-169.64l78.94-1.9c21.11-34.45 1.55-74.36 32.69-74.43 43.01-.09 9.47 113.42-21.83 114.17l-88.83 2.13c-72.96 1.76-130.14 58.72-130.14 129.66v177.54h655.74v-177.54c0-70.96-57.15-127.91-130.13-129.66l-88.83-2.13c-31.31-.75-64.91-111.76-21.81-111.73 31.1.02 11.26 37.85 32.6 71.98l79 1.9c94.87 2.28 169.17 76.8 169.17 169.64v197.54c.01 11.05-8.96 20.02-20 20.02z"/><path d="m577.9 594.43c-95.35 0-180.2-59.59-186.37-158.59-65.25-38.8-64.4-92.02-17.98-130.59-1.72-64.91 1.01-129.63 92.27-126.56 54.45 1.83 46.53 2.88 112.92-7.77 102.07-16.37 193.52-23.27 197.37 134.1 46.57 38.46 47.78 91.81-17.69 130.78-6.13 108.89-96.43 158.62-180.54 158.62zm-118.37-375.85c-80.16 0-26.24 94.65-54.99 113.37-36.99 24.08-29.68 50.31 15.93 74.26 25.47 13.38-7.59 63.68 55.55 114.57 79.22 63.87 242.75 39.72 242.75-96.87 0-24.97 49.28-27.57 50.62-57.41 1.15-25.58-33.15-31.06-33.15-51.36 0-186.54-120.94-83.43-272.72-96.49-1.38-.07-2.7-.08-4-.08z"/><path d="m370.91 357.05c-7.31 0-14.33-4.02-17.86-10.99-70.09-138.59-31.14-186.82 18.73-227.75 67.96-55.79 12.11-72.17 29.09-98.37 7.84-12.09 28.72-9.99 54.26-12.64 78.89-8.19 222.7-25.29 249.43 55.89 181.27 16.92 122.84 278.17 77.56 290.37-16.13 4.35-38.32-15.37-15.54-36.43 10.84-10.02 72.97-212.9-78.59-214.77-54.39-.67 60.94-84.28-244.39-53.65 25.29 129.61-161.47 68.62-54.83 279.32 6.75 13.34-3.01 29.02-17.87 29.02z"/><path d="m574.17 712.74c-46.34 0-90.85-26.46-125.14-74.45-15.24-21.33 17.27-44.6 32.54-23.26 55.68 77.83 131.72 76.07 186.28-.02 15.29-21.32 47.78 1.99 32.51 23.29-34.43 48.01-79.23 74.44-126.19 74.44z"/><path d="m1572.02 1706.66h-1437.38c-11.04 0-20-8.97-20-20v-521.09c0-11.04 8.96-20 20-20h1437.38c11.04 0 20 8.97 20 20v521.09c0 11.04-8.96 20-20 20zm-1417.38-40h1397.37v-481.08h-1397.37z"/><path d="m1635.96 1185.58h-1565.25c-11.04 0-20-8.97-20-20v-189.6c0-11.04 8.96-20 20-20h1565.23c11.04 0 20 8.97 20 20v189.58c.02 11.04-8.96 20.01-19.98 20.01zm-1545.25-40.01h1525.23v-149.57h-1525.23z"/><path d="m1598.1 883.69h-533.19c-11.04 0-20-8.97-20-20v-333.24c0-11.04 8.97-20 20-20h533.19c11.04 0 20 8.96 20 20v333.23c0 11.04-8.96 20.02-20 20.02zm-513.17-40.01h493.17v-293.24h-493.17z"/><path d="m1409.78 996h-141.87c-11.04 0-20-8.97-20-20v-112.31c0-11.04 8.97-20 20-20h141.87c11.04 0 20 8.96 20 20v112.31c.01 11.03-8.96 20-20 20zm-121.85-40.01h101.86v-72.3h-101.86z"/><path d="m1279.08 1706.66h-851.5c-11.04 0-20-8.97-20-20v-521.09c0-11.04 8.96-20 20-20h851.52c11.04 0 20 8.97 20 20v521.09c0 11.04-8.97 20-20.01 20zm-831.5-40h811.51v-481.08h-811.51z"/><path d="m853.33 1606.37c-36.79 0-66.73-29.94-66.73-66.75v-46.76h-46.76c-87.83 0-87.82-133.5 0-133.49l46.76.01v-46.75c0-87.85 133.48-87.84 133.48 0v46.75h46.76c87.84 0 87.85 133.5 0 133.49l-46.76-.01v46.76c0 36.8-29.96 66.75-66.75 66.75zm-113.49-206.99c-35.2 0-35.18 53.46 0 53.46 100.03 0 86.76-13.25 86.76 86.78 0 35.19 53.47 35.19 53.47 0 0-100.04-13.27-86.77 86.77-86.77 35.19 0 35.19-53.46 0-53.46-100.04 0-86.77 13.26-86.77-86.77 0-35.19-53.47-35.19-53.47 0 0 100.03 13.27 86.76-86.76 86.76z"/><path d="m1084.93 843.68h493.17v-293.24h-493.17z" fill="#4a5254"/><path d="m1287.93 883.69v72.3h101.85v-72.3z" fill="#b3b3b3"/><path d="m1409.78 996h-1319.07v149.57h1525.23v-149.57z" fill="#6dc2bf"/><path d="m1552.01 1185.58h-252.92v481.09h252.92z" fill="#79d8d4"/><path d="m407.58 1666.67v-481.09h-252.94v481.09z" fill="#79d8d4"/><path d="m447.57 1185.58v481.08h811.51v-481.08zm292.26 307.27c-87.83 0-87.82-133.5 0-133.49l46.76.01v-46.75c0-87.85 133.48-87.84 133.48 0v46.75h46.76c87.84 0 87.85 133.5 0 133.49l-46.76-.01v46.76c0 87.83-133.48 87.86-133.48 0v-46.76z" fill="#d6e3ff"/><path d="m739.83 1399.38c-35.2 0-35.18 53.46 0 53.46 100.03 0 86.76-13.25 86.76 86.78 0 35.19 53.47 35.19 53.47 0 0-100.04-13.27-86.77 86.77-86.77 35.19 0 35.19-53.46 0-53.46-100.04 0-86.77 13.26-86.77-86.77 0-35.19-53.47-35.19-53.47 0 0 100.03 13.27 86.76-86.76 86.76z" fill="#fa3c48"/><path d="m594.59 955.99h180.63v-136.78c0-26.33 40-26.33 40 0v136.78h87.33v-177.54c0-70.96-57.15-127.91-130.13-129.66l-78.52-1.89c-28.27 35.93-62.73 58.13-99.3 64.17v33.06c32.54.56 32.55 39.51 0 40.07v30.15c32.54.56 32.55 39.51 0 40.07v30.15c32.54.56 32.55 39.51 0 40.07v31.37z" fill="#204067"/><path d="m554.6 854.65c-32.79-3.33-32.79-37.22 0-40.55v-29.67c-32.79-3.33-32.79-37.22 0-40.55v-32.72c-36.38-5.9-70.84-28.15-99.14-64.27l-78.51 1.89c-72.96 1.76-130.14 58.72-130.14 129.66v177.54h87.35v-136.78c0-26.33 40-26.33 40 0v136.78h180.44v-31.13c-32.79-3.33-32.79-37.21 0-40.55v-29.67z" fill="#204067"/><path d="m489.97 626.01c51.77 62.9 118.32 61.69 169.26.19-7.17-11.83-12.96-27.27-15.87-42.08-44.3 14.5-94.13 13.5-137.31-1.7-2.92 15.34-8.8 31.37-16.07 43.59z" fill="#ffb091"/><path d="m540.43 451.6c18.72 16.94 50.37 16.94 69.11 0 19.5-17.67 46.37 11.99 26.83 29.67-56.94 51.49-153.13 3.78-124.19-28.25 7.4-8.2 20.06-8.83 28.25-1.42zm-64.41 69.19c79.57 64.14 242.75 39.21 242.75-96.87 0-29.72 78.4-32.69 40.75-79.43-9.78-9.69-23.28-16.59-23.28-29.33 0-186.54-120.94-83.43-272.72-96.49-83.99-5.76-30.94 95.03-58.99 113.28-33.77 21.98-32.02 49.08 15.93 74.26 25.47 13.38-7.59 63.68 55.55 114.57zm137.43-230.77c45.44-41.13 120.28-.81 94.08 28.25-20.71 22.98-39.69-23.54-67.25 1.42-19.51 17.67-46.35-12-26.83-29.67zm-169.64 0c45.44-41.14 120.28-.8 94.08 28.25-20.71 22.98-39.69-23.54-67.25 1.42-19.51 17.67-46.35-12-26.83-29.67zm215.99 94c-27.89 0-27.89-58.09 0-58.09 27.87 0 27.89 58.09 0 58.09zm-169.65-56.27c27.72 0 27.73 55.83 0 55.83s-27.73-55.83 0-55.83z" fill="#ffc3a1"/><path d="m465.83 178.7c54.45 1.83 46.53 2.88 112.92-7.77 100-16.04 189.79-22.98 197.03 124.7 17.02-54.44 36.78-191.73-87.78-193.27-53.76-.67 59.39-84.92-244.39-53.65 23.85 122.23-140.89 74.94-70.28 245.89-.93-61.14 6.24-118.81 92.5-115.9z" fill="#4d4d4d"/></g></svg>