<?xml version="1.0" encoding="UTF-8" standalone="no"?>
<!-- Created with Inkscape (http://www.inkscape.org/) -->

<svg
   version="1.1"
   id="svg6855"
   xml:space="preserve"
   width="682.66669"
   height="682.66669"
   viewBox="0 0 682.66669 682.66669"
   xmlns="http://www.w3.org/2000/svg"
   xmlns:svg="http://www.w3.org/2000/svg"><defs
     id="defs6859"><clipPath
       clipPathUnits="userSpaceOnUse"
       id="clipPath6869"><path
         d="M 0,512 H 512 V 0 H 0 Z"
         id="path6867" /></clipPath></defs><g
     id="g6861"
     transform="matrix(1.3333333,0,0,-1.3333333,0,682.66667)"><g
       id="g6863"><g
         id="g6865"
         clip-path="url(#clipPath6869)"><g
           id="g6871"
           transform="translate(255.9805,75.3311)"><path
             d="m 0,0 c -99.781,0 -180.669,80.889 -180.669,180.669 0,99.781 80.888,180.669 180.669,180.669 99.781,0 180.669,-80.888 180.669,-180.669 C 180.669,80.889 99.781,0 0,0"
             style="fill:#ffffff;fill-opacity:1;fill-rule:nonzero;stroke:none"
             id="path6873" /></g><g
           id="g6875"
           transform="translate(398.6411,55.6289)"><path
             d="m 0,0 c -40.233,-28.697 -89.476,-45.578 -142.661,-45.578 v 65.28 c 37.282,0 71.927,11.292 100.7,30.643 z"
             style="fill:#ff8b68;fill-opacity:1;fill-rule:nonzero;stroke:none"
             id="path6877" /></g><g
           id="g6879"
           transform="translate(255.9805,75.3311)"><path
             d="m 0,0 c -99.781,-0.001 -180.669,80.888 -180.669,180.669 0,99.781 80.888,180.67 180.669,180.67 99.781,0 180.669,-80.889 180.669,-180.67 0,-49.764 -20.244,-94.953 -52.793,-127.628 L 100.699,79.97 v -99.672 h 99.672 L 173.913,6.757 c 44.508,44.508 72.037,105.995 72.037,173.912 0,135.834 -110.116,245.949 -245.95,245.949 -135.834,0 -245.95,-110.115 -245.95,-245.949 C -245.95,44.835 -135.834,-65.28 0,-65.28 Z"
             style="fill:#ff8b68;fill-opacity:1;fill-rule:nonzero;stroke:none"
             id="path6881" /></g><g
           id="g6883"
           transform="translate(53.2759,395.3311)"><path
             d="m 0,0 c -27.277,-39.606 -43.245,-87.604 -43.245,-139.331 0,-135.834 110.115,-245.949 245.95,-245.949"
             style="fill:none;stroke:#000000;stroke-width:20;stroke-linecap:round;stroke-linejoin:round;stroke-miterlimit:10;stroke-dasharray:none;stroke-opacity:1"
             id="path6885" /></g><g
           id="g6887"
           transform="translate(255.9805,75.3311)"><path
             d="m 0,0 c -99.781,-0.001 -180.669,80.888 -180.669,180.669 0,99.781 80.888,180.67 180.669,180.67 99.781,0 180.669,-80.889 180.669,-180.67 0,-49.764 -20.244,-94.953 -52.793,-127.628 L 100.699,79.97 v -99.672 h 99.672 L 173.913,6.757 c 44.508,44.508 72.037,105.995 72.037,173.912 0,135.834 -110.116,245.949 -245.95,245.949 -51.727,0 -99.723,-15.968 -139.33,-43.243"
             style="fill:none;stroke:#000000;stroke-width:20;stroke-linecap:round;stroke-linejoin:round;stroke-miterlimit:10;stroke-dasharray:none;stroke-opacity:1"
             id="path6889" /></g><g
           id="g6891"
           transform="translate(151.8994,208)"><path
             d="m 0,0 36.047,94.647 c 0.737,1.801 3.286,1.804 4.027,0.005 L 75.794,0"
             style="fill:none;stroke:#000000;stroke-width:20;stroke-linecap:round;stroke-linejoin:round;stroke-miterlimit:10;stroke-dasharray:none;stroke-opacity:1"
             id="path6893" /></g><g
           id="g6895"
           transform="translate(163.1416,231.5723)"><path
             d="M 0,0 H 53.491"
             style="fill:none;stroke:#000000;stroke-width:20;stroke-linecap:round;stroke-linejoin:round;stroke-miterlimit:10;stroke-dasharray:none;stroke-opacity:1"
             id="path6897" /></g><g
           id="g6899"
           transform="translate(269.7168,304)"><path
             d="m 0,0 v -95.918 c 0.757,-0.186 24,0 24,0"
             style="fill:none;stroke:#000000;stroke-width:20;stroke-linecap:round;stroke-linejoin:round;stroke-miterlimit:10;stroke-dasharray:none;stroke-opacity:1"
             id="path6901" /></g><g
           id="g6903"
           transform="translate(336.0615,304)"><path
             d="m 0,0 v -95.918 c 0.758,-0.186 24,0 24,0"
             style="fill:none;stroke:#000000;stroke-width:20;stroke-linecap:round;stroke-linejoin:round;stroke-miterlimit:10;stroke-dasharray:none;stroke-opacity:1"
             id="path6905" /></g><g
           id="g6907"
           transform="translate(356.6797,105.9736)"><path
             d="M 0,0 C -28.773,-19.351 -63.417,-30.643 -100.699,-30.643"
             style="fill:none;stroke:#000000;stroke-width:20;stroke-linecap:round;stroke-linejoin:round;stroke-miterlimit:10;stroke-dasharray:none;stroke-opacity:1"
             id="path6909" /></g><g
           id="g6911"
           transform="translate(255.9805,10.0508)"><path
             d="M 0,0 C 53.185,0 102.427,16.881 142.661,45.578"
             style="fill:none;stroke:#000000;stroke-width:20;stroke-linecap:round;stroke-linejoin:round;stroke-miterlimit:10;stroke-dasharray:none;stroke-opacity:1"
             id="path6913" /></g><g
           id="g6915"
           transform="translate(82.0679,429.9131)"><path
             d="M 0,0 V 0"
             style="fill:none;stroke:#000000;stroke-width:20;stroke-linecap:round;stroke-linejoin:round;stroke-miterlimit:10;stroke-dasharray:none;stroke-opacity:1"
             id="path6917" /></g></g></g></g></svg>
