<?xml version="1.0" encoding="UTF-8"?>
<svg xmlns="http://www.w3.org/2000/svg" xmlns:xlink="http://www.w3.org/1999/xlink" version="1.1" id="Capa_1" x="0px" y="0px" viewBox="0 0 512 512" style="enable-background:new 0 0 512 512;" xml:space="preserve" width="512" height="512">
<g>
	<path style="fill:#26A6FE;" d="M394.217,235.029v33.899l0.86,0.122c20.832,2.939,39.979,13.319,53.913,29.227&#10;&#9;&#9;c14.065,16.059,21.812,36.674,21.812,58.048c0,48.606-39.545,88.151-88.151,88.151c-20.025,0-38.9-6.546-54.584-18.931&#10;&#9;&#9;l-0.272-0.215h-45.511c21.997,31.895,58.78,52.844,100.369,52.844c67.188,0,121.848-54.661,121.848-121.848&#10;&#9;&#9;C504.5,293.039,456,240.874,394.217,235.029z"/>
	<g>
		<path style="fill:#0593FC;" d="M394.217,235.029v11.635c22.242,10.805,40.726,28.175,52.911,49.58&#10;&#9;&#9;&#9;c0.626,0.672,1.256,1.34,1.863,2.033c14.065,16.059,21.812,36.674,21.812,58.048c0,23.153-8.977,44.245-23.627,59.991&#10;&#9;&#9;&#9;c-17.694,31.148-48.713,53.776-85.251,60.078c6.739,1.16,13.662,1.779,20.728,1.779c67.188,0,121.848-54.661,121.848-121.848&#10;&#9;&#9;&#9;C504.5,293.039,456,240.874,394.217,235.029z"/>
	</g>
	<path style="fill:none;stroke:#000000;stroke-width:15;stroke-linecap:round;stroke-linejoin:round;stroke-miterlimit:10;" d="&#10;&#9;&#9;M282.995,426.33c22.072,31.328,58.507,51.844,99.657,51.844c67.188,0,121.848-54.661,121.848-121.848&#10;&#9;&#9;c0-62.944-47.979-114.879-109.283-121.189"/>
	<g>
		<path style="fill:#F9F3F1;" d="M294.501,356.325c0-48.606,39.544-88.151,88.15-88.151c4.266,0,8.46,0.311,12.565,0.899V122.576&#10;&#9;&#9;&#9;H7.5V411.33c0,8.284,6.716,15,15,15h306.646C308.1,410.205,294.501,384.825,294.501,356.325z"/>
		<g>
			<path style="fill:#F3EAE6;" d="M353.717,122.576v150.482c9.068-3.16,18.803-4.884,28.935-4.884c4.266,0,8.46,0.311,12.565,0.899&#10;&#9;&#9;&#9;&#9;V122.576H353.717z"/>
		</g>
		<path style="fill:none;stroke:#000000;stroke-width:15;stroke-linecap:round;stroke-linejoin:round;stroke-miterlimit:10;" d="&#10;&#9;&#9;&#9;M395.217,268.06V123.576H7.5V411.33c0,8.284,6.716,15,15,15H58"/>
		
			<line style="fill:none;stroke:#000000;stroke-width:15;stroke-linecap:round;stroke-linejoin:round;stroke-miterlimit:10;" x1="93" y1="426.33" x2="327.447" y2="426.33"/>
		<g>
			<path style="fill:#A6E7F0;" d="M102.027,214.522H60.161c-1.657,0-3-1.343-3-3v-41.866c0-1.657,1.343-3,3-3h41.866&#10;&#9;&#9;&#9;&#9;c1.657,0,3,1.343,3,3v41.866C105.027,213.178,103.684,214.522,102.027,214.522z"/>
			<path style="fill:#A6E7F0;" d="M182.203,214.522h-41.866c-1.657,0-3-1.343-3-3v-41.866c0-1.657,1.343-3,3-3h41.866&#10;&#9;&#9;&#9;&#9;c1.657,0,3,1.343,3,3v41.866C185.203,213.178,183.86,214.522,182.203,214.522z"/>
			<path style="fill:#6BD9E7;" d="M182.203,166.655h-20.337c1.657,0,3,1.343,3,3v41.866c0,1.657-1.343,3-3,3h20.337&#10;&#9;&#9;&#9;&#9;c1.657,0,3-1.343,3-3v-41.866C185.203,167.998,183.86,166.655,182.203,166.655z"/>
			<path style="fill:#A6E7F0;" d="M262.379,214.522h-41.866c-1.657,0-3-1.343-3-3v-41.866c0-1.657,1.343-3,3-3h41.866&#10;&#9;&#9;&#9;&#9;c1.657,0,3,1.343,3,3v41.866C265.379,213.178,264.036,214.522,262.379,214.522z"/>
			<path style="fill:#6BD9E7;" d="M262.379,166.655h-20.513c1.657,0,3,1.343,3,3v41.866c0,1.657-1.343,3-3,3h20.513&#10;&#9;&#9;&#9;&#9;c1.657,0,3-1.343,3-3v-41.866C265.379,167.998,264.036,166.655,262.379,166.655z"/>
			<path style="fill:#FE7D43;" d="M342.555,214.522h-41.866c-1.657,0-3-1.343-3-3v-41.866c0-1.657,1.343-3,3-3h41.866&#10;&#9;&#9;&#9;&#9;c1.657,0,3,1.343,3,3v41.866C345.555,213.178,344.212,214.522,342.555,214.522z"/>
			<path style="fill:#FD6930;" d="M342.555,166.655h-20.689c1.657,0,3,1.343,3,3v41.866c0,1.657-1.343,3-3,3h20.689&#10;&#9;&#9;&#9;&#9;c1.657,0,3-1.343,3-3v-41.866C345.555,167.998,344.212,166.655,342.555,166.655z"/>
		</g>
		<path style="fill:#A6E7F0;" d="M102.027,297.091H60.161c-1.657,0-3-1.343-3-3v-41.866c0-1.657,1.343-3,3-3h41.866&#10;&#9;&#9;&#9;c1.657,0,3,1.343,3,3v41.866C105.027,295.748,103.684,297.091,102.027,297.091z"/>
		<path style="fill:#A6E7F0;" d="M182.203,297.091h-41.866c-1.657,0-3-1.343-3-3v-41.866c0-1.657,1.343-3,3-3h41.866&#10;&#9;&#9;&#9;c1.657,0,3,1.343,3,3v41.866C185.203,295.748,183.86,297.091,182.203,297.091z"/>
		<path style="fill:#6BD9E7;" d="M182.203,249.225h-20.337c1.657,0,3,1.343,3,3v41.866c0,1.657-1.343,3-3,3h20.337&#10;&#9;&#9;&#9;c1.657,0,3-1.343,3-3v-41.866C185.203,250.568,183.86,249.225,182.203,249.225z"/>
		<path style="fill:#6BD9E7;" d="M102.027,166.655H81.69c1.657,0,3,1.343,3,3v41.866c0,1.657-1.343,3-3,3h20.337&#10;&#9;&#9;&#9;c1.657,0,3-1.343,3-3v-41.866C105.027,167.998,103.684,166.655,102.027,166.655z"/>
		<path style="fill:#6BD9E7;" d="M102.027,249.225H81.69c1.657,0,3,1.343,3,3v41.866c0,1.657-1.343,3-3,3h20.337&#10;&#9;&#9;&#9;c1.657,0,3-1.343,3-3v-41.866C105.027,250.568,103.684,249.225,102.027,249.225z"/>
		<path style="fill:#A6E7F0;" d="M262.379,297.091h-41.866c-1.657,0-3-1.343-3-3v-41.866c0-1.657,1.343-3,3-3h41.866&#10;&#9;&#9;&#9;c1.657,0,3,1.343,3,3v41.866C265.379,295.748,264.036,297.091,262.379,297.091z"/>
		<path style="fill:#6BD9E7;" d="M262.379,249.225h-20.513c1.657,0,3,1.343,3,3v41.866c0,1.657-1.343,3-3,3h20.513&#10;&#9;&#9;&#9;c1.657,0,3-1.343,3-3v-41.866C265.379,250.568,264.036,249.225,262.379,249.225z"/>
		<path style="fill:#FE7D43;" d="M300.689,297.091h16.734c7.861-8.648,17.416-15.727,28.132-20.719v-24.147c0-1.657-1.343-3-3-3&#10;&#9;&#9;&#9;h-41.866c-1.657,0-3,1.343-3,3v41.866C297.689,295.748,299.032,297.091,300.689,297.091z"/>
		<g>
			<path style="fill:#FD6930;" d="M342.555,249.225h-20.689c1.657,0,3,1.343,3,3v37.619c6.204-5.397,13.151-9.96,20.689-13.472&#10;&#9;&#9;&#9;&#9;v-24.147C345.555,250.568,344.212,249.225,342.555,249.225z"/>
		</g>
		<path style="fill:none;stroke:#000000;stroke-width:15;stroke-linecap:round;stroke-linejoin:round;stroke-miterlimit:10;" d="&#10;&#9;&#9;&#9;M345.555,275.24v-23.015c0-1.657-1.343-3-3-3h-41.866c-1.657,0-3,1.343-3,3v41.866c0,1.657,1.343,3,3,3h15.343"/>
		<path style="fill:none;stroke:#000000;stroke-width:15;stroke-linecap:round;stroke-linejoin:round;stroke-miterlimit:10;" d="&#10;&#9;&#9;&#9;M342.555,214.522h-41.866c-1.657,0-3-1.343-3-3v-41.866c0-1.657,1.343-3,3-3h41.866c1.657,0,3,1.343,3,3v41.866&#10;&#9;&#9;&#9;C345.555,213.178,344.212,214.522,342.555,214.522z"/>
		<g>
			<path style="fill:#A6E7F0;" d="M182.203,379.66h-41.866c-1.657,0-3-1.343-3-3v-41.866c0-1.657,1.343-3,3-3h41.866&#10;&#9;&#9;&#9;&#9;c1.657,0,3,1.343,3,3v41.866C185.203,378.317,183.86,379.66,182.203,379.66z"/>
			<path style="fill:#6BD9E7;" d="M182.203,331.794h-20.337c1.657,0,3,1.343,3,3v41.866c0,1.657-1.343,3-3,3h20.337&#10;&#9;&#9;&#9;&#9;c1.657,0,3-1.343,3-3v-41.866C185.203,333.137,183.86,331.794,182.203,331.794z"/>
			<path style="fill:#A6E7F0;" d="M262.379,379.66h-41.866c-1.657,0-3-1.343-3-3v-41.866c0-1.657,1.343-3,3-3h41.866&#10;&#9;&#9;&#9;&#9;c1.657,0,3,1.343,3,3v41.866C265.379,378.317,264.036,379.66,262.379,379.66z"/>
			<path style="fill:#6BD9E7;" d="M262.379,331.794h-20.513c1.657,0,3,1.343,3,3v41.866c0,1.657-1.343,3-3,3h20.513&#10;&#9;&#9;&#9;&#9;c1.657,0,3-1.343,3-3v-41.866C265.379,333.137,264.036,331.794,262.379,331.794z"/>
		</g>
		<g>
			<circle style="fill:#FFFFFF;" cx="382.652" cy="356.325" r="89.151"/>
			<path style="fill:#F9F3F1;" d="M382.652,267.174c-5.375,0-10.638,0.476-15.75,1.387c41.724,7.438,73.4,43.901,73.4,87.764&#10;&#9;&#9;&#9;&#9;s-31.676,80.326-73.4,87.764c5.113,0.911,10.376,1.387,15.75,1.387c49.237,0,89.151-39.914,89.151-89.151&#10;&#9;&#9;&#9;&#9;S431.888,267.174,382.652,267.174z"/>
			<path style="fill:none;stroke:#000000;stroke-width:15;stroke-linecap:round;stroke-linejoin:round;stroke-miterlimit:10;" d="&#10;&#9;&#9;&#9;&#9;M295.256,374c8.2,40.77,44.211,71.476,87.396,71.476c49.237,0,89.151-39.914,89.151-89.151s-39.914-89.151-89.151-89.151&#10;&#9;&#9;&#9;&#9;c-43.308,0-79.398,30.883-87.463,71.826"/>
			
				<polyline style="fill:none;stroke:#000000;stroke-width:15;stroke-linecap:round;stroke-linejoin:round;stroke-miterlimit:10;" points="&#10;&#9;&#9;&#9;&#9;423.936,356.325 382.652,356.325 382.652,301.877 &#9;&#9;&#9;"/>
		</g>
		<path style="fill:#FE7D43;" d="M395.217,123.576H7.5V66.776c0-8.284,6.716-15,15-15h357.717c8.284,0,15,6.716,15,15V123.576z"/>
		<path style="fill:#FD6930;" d="M380.217,51.776h-41.5c8.284,0,15,6.716,15,15v56.799h41.5V66.776&#10;&#9;&#9;&#9;C395.217,58.492,388.501,51.776,380.217,51.776z"/>
		<path style="fill:none;stroke:#000000;stroke-width:15;stroke-linecap:round;stroke-linejoin:round;stroke-miterlimit:10;" d="&#10;&#9;&#9;&#9;M95,51.776H22.5c-8.284,0-15,6.716-15,15v56.799h387.717V66.776c0-8.284-6.716-15-15-15H130"/>
		
			<line style="fill:#FFFFFF;stroke:#000000;stroke-width:15;stroke-linecap:round;stroke-linejoin:round;stroke-miterlimit:10;" x1="101.358" y1="89.101" x2="301.358" y2="89.101"/>
		<g>
			
				<line style="fill:none;stroke:#000000;stroke-width:15;stroke-linecap:round;stroke-linejoin:round;stroke-miterlimit:10;" x1="57.161" y1="75.71" x2="57.161" y2="33.827"/>
			
				<line style="fill:none;stroke:#000000;stroke-width:15;stroke-linecap:round;stroke-linejoin:round;stroke-miterlimit:10;" x1="345.555" y1="75.71" x2="345.555" y2="33.827"/>
		</g>
		
			<polyline style="fill:none;stroke:#000000;stroke-width:15;stroke-linecap:round;stroke-linejoin:round;stroke-miterlimit:10;" points="&#10;&#9;&#9;&#9;57.161,353.418 78.729,379.66 106.253,333.075 &#9;&#9;"/>
	</g>
	<path style="fill:none;stroke:#000000;stroke-width:15;stroke-linecap:round;stroke-linejoin:round;stroke-miterlimit:10;" d="&#10;&#9;&#9;M102.027,214.522H60.161c-1.657,0-3-1.343-3-3v-41.866c0-1.657,1.343-3,3-3h41.866c1.657,0,3,1.343,3,3v41.866&#10;&#9;&#9;C105.027,213.178,103.684,214.522,102.027,214.522z"/>
	<path style="fill:none;stroke:#000000;stroke-width:15;stroke-linecap:round;stroke-linejoin:round;stroke-miterlimit:10;" d="&#10;&#9;&#9;M182.203,214.522h-41.866c-1.657,0-3-1.343-3-3v-41.866c0-1.657,1.343-3,3-3h41.866c1.657,0,3,1.343,3,3v41.866&#10;&#9;&#9;C185.203,213.178,183.86,214.522,182.203,214.522z"/>
	<path style="fill:none;stroke:#000000;stroke-width:15;stroke-linecap:round;stroke-linejoin:round;stroke-miterlimit:10;" d="&#10;&#9;&#9;M262.379,214.522h-41.866c-1.657,0-3-1.343-3-3v-41.866c0-1.657,1.343-3,3-3h41.866c1.657,0,3,1.343,3,3v41.866&#10;&#9;&#9;C265.379,213.178,264.036,214.522,262.379,214.522z"/>
	<path style="fill:none;stroke:#000000;stroke-width:15;stroke-linecap:round;stroke-linejoin:round;stroke-miterlimit:10;" d="&#10;&#9;&#9;M102.027,297.091H60.161c-1.657,0-3-1.343-3-3v-41.866c0-1.657,1.343-3,3-3h41.866c1.657,0,3,1.343,3,3v41.866&#10;&#9;&#9;C105.027,295.748,103.684,297.091,102.027,297.091z"/>
	<path style="fill:none;stroke:#000000;stroke-width:15;stroke-linecap:round;stroke-linejoin:round;stroke-miterlimit:10;" d="&#10;&#9;&#9;M182.203,297.091h-41.866c-1.657,0-3-1.343-3-3v-41.866c0-1.657,1.343-3,3-3h41.866c1.657,0,3,1.343,3,3v41.866&#10;&#9;&#9;C185.203,295.748,183.86,297.091,182.203,297.091z"/>
	<path style="fill:none;stroke:#000000;stroke-width:15;stroke-linecap:round;stroke-linejoin:round;stroke-miterlimit:10;" d="&#10;&#9;&#9;M262.379,297.091h-41.866c-1.657,0-3-1.343-3-3v-41.866c0-1.657,1.343-3,3-3h41.866c1.657,0,3,1.343,3,3v41.866&#10;&#9;&#9;C265.379,295.748,264.036,297.091,262.379,297.091z"/>
	<path style="fill:none;stroke:#000000;stroke-width:15;stroke-linecap:round;stroke-linejoin:round;stroke-miterlimit:10;" d="&#10;&#9;&#9;M102.027,214.522H60.161c-1.657,0-3-1.343-3-3v-41.866c0-1.657,1.343-3,3-3h41.866c1.657,0,3,1.343,3,3v41.866&#10;&#9;&#9;C105.027,213.178,103.684,214.522,102.027,214.522z"/>
	<path style="fill:none;stroke:#000000;stroke-width:15;stroke-linecap:round;stroke-linejoin:round;stroke-miterlimit:10;" d="&#10;&#9;&#9;M182.203,214.522h-41.866c-1.657,0-3-1.343-3-3v-41.866c0-1.657,1.343-3,3-3h41.866c1.657,0,3,1.343,3,3v41.866&#10;&#9;&#9;C185.203,213.178,183.86,214.522,182.203,214.522z"/>
	<path style="fill:none;stroke:#000000;stroke-width:15;stroke-linecap:round;stroke-linejoin:round;stroke-miterlimit:10;" d="&#10;&#9;&#9;M262.379,214.522h-41.866c-1.657,0-3-1.343-3-3v-41.866c0-1.657,1.343-3,3-3h41.866c1.657,0,3,1.343,3,3v41.866&#10;&#9;&#9;C265.379,213.178,264.036,214.522,262.379,214.522z"/>
	<path style="fill:none;stroke:#000000;stroke-width:15;stroke-linecap:round;stroke-linejoin:round;stroke-miterlimit:10;" d="&#10;&#9;&#9;M102.027,297.091H60.161c-1.657,0-3-1.343-3-3v-41.866c0-1.657,1.343-3,3-3h41.866c1.657,0,3,1.343,3,3v41.866&#10;&#9;&#9;C105.027,295.748,103.684,297.091,102.027,297.091z"/>
	<path style="fill:none;stroke:#000000;stroke-width:15;stroke-linecap:round;stroke-linejoin:round;stroke-miterlimit:10;" d="&#10;&#9;&#9;M182.203,297.091h-41.866c-1.657,0-3-1.343-3-3v-41.866c0-1.657,1.343-3,3-3h41.866c1.657,0,3,1.343,3,3v41.866&#10;&#9;&#9;C185.203,295.748,183.86,297.091,182.203,297.091z"/>
	<path style="fill:none;stroke:#000000;stroke-width:15;stroke-linecap:round;stroke-linejoin:round;stroke-miterlimit:10;" d="&#10;&#9;&#9;M262.379,297.091h-41.866c-1.657,0-3-1.343-3-3v-41.866c0-1.657,1.343-3,3-3h41.866c1.657,0,3,1.343,3,3v41.866&#10;&#9;&#9;C265.379,295.748,264.036,297.091,262.379,297.091z"/>
	<path style="fill:none;stroke:#000000;stroke-width:15;stroke-linecap:round;stroke-linejoin:round;stroke-miterlimit:10;" d="&#10;&#9;&#9;M182.203,379.66h-41.866c-1.657,0-3-1.343-3-3v-41.866c0-1.657,1.343-3,3-3h41.866c1.657,0,3,1.343,3,3v41.866&#10;&#9;&#9;C185.203,378.317,183.86,379.66,182.203,379.66z"/>
	<path style="fill:none;stroke:#000000;stroke-width:15;stroke-linecap:round;stroke-linejoin:round;stroke-miterlimit:10;" d="&#10;&#9;&#9;M262.379,379.66h-41.866c-1.657,0-3-1.343-3-3v-41.866c0-1.657,1.343-3,3-3h41.866c1.657,0,3,1.343,3,3v41.866&#10;&#9;&#9;C265.379,378.317,264.036,379.66,262.379,379.66z"/>
</g>















</svg>
