<svg version="1.1" id="Capa_1" xmlns="http://www.w3.org/2000/svg" xmlns:xlink="http://www.w3.org/1999/xlink" x="0px" y="0px" viewBox="0 0 512 512" style="enable-background:new 0 0 512 512;" xml:space="preserve">
<g>
	<g>
		<g>
			<path style="fill:#46CC8D;" d="M299.521,113.459L253.769,68.08c-1.893-1.878-5.113-0.537-5.113,2.13v15.386c0,2.761-2.239,5-5,5&#10;&#9;&#9;&#9;&#9;h-80.386v52.826h80.386c2.761,0,5,2.239,5,5v15.386c0,2.667,3.219,4.008,5.113,2.13l45.752-45.379&#10;&#9;&#9;&#9;&#9;C301.493,118.603,301.493,115.415,299.521,113.459z"/>
			<path style="fill:#00C27A;" d="M291.907,105.907l-43.25,42.898v-22.587c0-2.761-2.239-5-5-5h-80.386V90.596l0,0v52.826h80.386&#10;&#9;&#9;&#9;&#9;c2.761,0,5,2.239,5,5v15.386c0,2.667,3.219,4.008,5.113,2.13l45.752-45.379c1.972-1.956,1.972-5.144,0-7.1L291.907,105.907z"/>
			<circle style="fill:#C96E59;" cx="116.695" cy="269.899" r="54.598"/>
			<path style="fill:#BB5D4C;" d="M134.685,218.349c9.002,9.735,14.511,22.748,14.511,37.053c0,30.153-24.444,54.598-54.598,54.598&#10;&#9;&#9;&#9;&#9;c-6.305,0-12.355-1.082-17.989-3.048c9.974,10.785,24.239,17.544,40.087,17.544c30.153,0,54.598-24.444,54.598-54.598&#10;&#9;&#9;&#9;&#9;C171.293,246.05,155.997,225.786,134.685,218.349z"/>
			<path style="fill:#8AC9FE;" d="M215.891,460.991H17.5c-5.523,0-10-4.477-10-10v-71.897c0-30.153,24.444-54.598,54.598-54.598&#10;&#9;&#9;&#9;&#9;h109.195c30.154,0,54.598,24.444,54.598,54.598v71.897C225.891,456.513,221.414,460.991,215.891,460.991z"/>
			<path style="fill:#60B7FF;" d="M203.391,334.938v93.556c0,5.523-4.477,10-10,10H7.5v12.496c0,5.523,4.477,10,10,10h198.391&#10;&#9;&#9;&#9;&#9;c5.523,0,10-4.477,10-10v-71.897C225.891,360.94,217.023,344.865,203.391,334.938z"/>
			<circle style="fill:#FFDFCF;" cx="395.305" cy="269.899" r="54.598"/>
			<path style="fill:#FFD15B;" d="M494.5,460.991H296.109c-5.523,0-10-4.477-10-10v-71.897c0-30.153,24.444-54.598,54.598-54.598&#10;&#9;&#9;&#9;&#9;h109.195c30.153,0,54.598,24.444,54.598,54.598v71.897C504.5,456.513,500.023,460.991,494.5,460.991z"/>
			<path style="fill:#FFC344;" d="M482.391,335.216v93.278c0,5.523-4.477,10-10,10H286.109v12.496c0,5.523,4.477,10,10,10H494.5&#10;&#9;&#9;&#9;&#9;c5.523,0,10-4.477,10-10v-71.897C504.5,361.112,495.804,345.164,482.391,335.216z"/>
			<path style="fill:#FFE177;" d="M365.305,460.991v-52.994c0-2.761-2.239-5-5-5h-39.196c-2.761,0-5,2.239-5,5v52.994H365.305z"/>
			<rect x="316.109" y="438.494" style="fill:#FFD15B;" width="49.196" height="22.496"/>
			<path style="fill:#FFE177;" d="M474.5,460.991v-52.994c0-2.761-2.239-5-5-5h-39.195c-2.761,0-5,2.239-5,5v52.994H474.5z"/>
			<path style="fill:#FFD15B;" d="M472.391,438.494h-47.086v22.496H474.5v-22.724C473.82,438.413,473.115,438.494,472.391,438.494z"/>
			<g>
				<path style="fill:#E2DEE2;" d="M154.271,180.443H79.12c-5.523,0-10-4.477-10-10V63.575c0-5.523,4.477-10,10-10h75.151&#10;&#9;&#9;&#9;&#9;&#9;c5.523,0,10,4.477,10,10v106.868C164.271,175.966,159.794,180.443,154.271,180.443z"/>
				<path style="fill:#CBC4CC;" d="M154.271,53.575h-12.12V148c0,5.523-4.477,10-10,10H69.12v12.443c0,5.523,4.477,10,10,10h75.151&#10;&#9;&#9;&#9;&#9;&#9;c5.523,0,10-4.477,10-10V63.575C164.271,58.053,159.794,53.575,154.271,53.575z"/>
			</g>
			<path style="fill:#46CC8D;" d="M439.699,51.009H350.91c-6.687,0-12.108,5.421-12.108,12.108v88.789&#10;&#9;&#9;&#9;&#9;c0,6.687,5.421,12.108,12.108,12.108h21.271c3.933,0,7.62,1.91,9.889,5.122l9.974,14.12c1.598,2.262,4.947,2.279,6.568,0.034&#10;&#9;&#9;&#9;&#9;l10.295-14.257c2.276-3.152,5.928-5.019,9.816-5.019h20.975c6.687,0,12.108-5.421,12.108-12.108V63.117&#10;&#9;&#9;&#9;&#9;C451.807,56.43,446.386,51.009,439.699,51.009z"/>
			<path style="fill:#00C27A;" d="M439.699,51.009h-10.695v78.888c0,6.687-5.421,12.108-12.107,12.108h-78.095v9.902&#10;&#9;&#9;&#9;&#9;c0,6.687,5.421,12.108,12.108,12.108h21.271c3.932,0,7.62,1.91,9.889,5.122l9.975,14.12c1.598,2.262,4.947,2.279,6.568,0.034&#10;&#9;&#9;&#9;&#9;l10.295-14.257c2.276-3.152,5.928-5.019,9.816-5.019h20.976c6.687,0,12.107-5.421,12.107-12.108V63.117&#10;&#9;&#9;&#9;&#9;C451.807,56.43,446.386,51.009,439.699,51.009z"/>
		</g>
		<rect x="101.695" y="324.496" style="fill:#B3DAFE;" width="30" height="136.494"/>
		<path style="fill:#FFCEBF;" d="M412.395,218.045c9.172,9.767,14.801,22.902,14.801,37.358c0,30.153-24.444,54.598-54.598,54.598&#10;&#9;&#9;&#9;c-5.971,0-11.712-0.972-17.09-2.744c9.96,10.606,24.1,17.24,39.797,17.24c30.153,0,54.598-24.444,54.598-54.598&#10;&#9;&#9;&#9;C449.902,245.716,434.174,225.219,412.395,218.045z"/>
		<rect x="101.696" y="438.494" style="fill:#8AC9FE;" width="30" height="22.496"/>
	</g>
	<g>
		<path style="fill:none;stroke:#000000;stroke-width:15;stroke-linecap:round;stroke-linejoin:round;stroke-miterlimit:10;" d="&#10;&#9;&#9;&#9;M191,90.596h-26.729v52.826h79.385c2.761,0,5,2.239,5,5v15.386c0,2.667,3.219,4.008,5.113,2.13l45.752-45.379&#10;&#9;&#9;&#9;c1.972-1.956,1.972-5.144,0-7.1L253.769,68.08c-1.893-1.878-5.113-0.537-5.113,2.13v15.386c0,2.761-2.239,5-5,5H226"/>
		
			<line style="fill:none;stroke:#000000;stroke-width:15;stroke-linejoin:round;stroke-miterlimit:10;" x1="395.305" y1="324.496" x2="395.305" y2="460.991"/>
		
			<line style="fill:none;stroke:#000000;stroke-width:15;stroke-linecap:round;stroke-linejoin:round;stroke-miterlimit:10;" x1="115.551" y1="146.083" x2="100.837" y2="146.083"/>
		
			<line style="fill:none;stroke:#000000;stroke-width:15;stroke-linecap:round;stroke-linejoin:round;stroke-miterlimit:10;" x1="100.837" y1="87.936" x2="132.554" y2="87.936"/>
		
			<line style="fill:none;stroke:#000000;stroke-width:15;stroke-linecap:round;stroke-linejoin:round;stroke-miterlimit:10;" x1="100.837" y1="117.009" x2="132.554" y2="117.009"/>
		
			<polyline style="fill:none;stroke:#000000;stroke-width:15;stroke-linecap:round;stroke-linejoin:round;stroke-miterlimit:10;" points="&#10;&#9;&#9;&#9;369.071,104.364 391.012,125.875 421.538,89.148 &#9;&#9;"/>
		
			<circle style="fill:none;stroke:#000000;stroke-width:15;stroke-linecap:round;stroke-linejoin:round;stroke-miterlimit:10;" cx="116.695" cy="269.899" r="54.598"/>
		<path style="fill:none;stroke:#000000;stroke-width:15;stroke-linecap:round;stroke-linejoin:round;stroke-miterlimit:10;" d="&#10;&#9;&#9;&#9;M215.891,460.991H17.5c-5.523,0-10-4.477-10-10v-71.897c0-30.153,24.444-54.598,54.598-54.598h109.195&#10;&#9;&#9;&#9;c30.154,0,54.598,24.444,54.598,54.598v71.897C225.891,456.513,221.414,460.991,215.891,460.991z"/>
		
			<circle style="fill:none;stroke:#000000;stroke-width:15;stroke-linecap:round;stroke-linejoin:round;stroke-miterlimit:10;" cx="395.305" cy="269.899" r="54.598"/>
		<path style="fill:none;stroke:#000000;stroke-width:15;stroke-linecap:round;stroke-linejoin:round;stroke-miterlimit:10;" d="&#10;&#9;&#9;&#9;M286.109,432v18.991c0,5.523,4.477,10,10,10H494.5c5.523,0,10-4.477,10-10v-71.897c0-30.153-24.444-54.598-54.598-54.598H340.707&#10;&#9;&#9;&#9;c-30.154,0-54.598,24.444-54.598,54.598V397"/>
		<path style="fill:none;stroke:#000000;stroke-width:15;stroke-linecap:round;stroke-linejoin:round;stroke-miterlimit:10;" d="&#10;&#9;&#9;&#9;M365.305,460.991v-52.994c0-2.761-2.239-5-5-5h-39.196c-2.761,0-5,2.239-5,5v52.994H365.305z"/>
		<path style="fill:none;stroke:#000000;stroke-width:15;stroke-linecap:round;stroke-linejoin:round;stroke-miterlimit:10;" d="&#10;&#9;&#9;&#9;M474.5,460.991v-52.994c0-2.761-2.239-5-5-5h-39.195c-2.761,0-5,2.239-5,5v52.994H474.5z"/>
		<path style="fill:none;stroke:#000000;stroke-width:15;stroke-linecap:round;stroke-linejoin:round;stroke-miterlimit:10;" d="&#10;&#9;&#9;&#9;M154.271,180.443H79.12c-5.523,0-10-4.477-10-10V63.575c0-5.523,4.477-10,10-10h75.151c5.523,0,10,4.477,10,10v106.868&#10;&#9;&#9;&#9;C164.271,175.966,159.794,180.443,154.271,180.443z"/>
		<path style="fill:none;stroke:#000000;stroke-width:15;stroke-linecap:round;stroke-linejoin:round;stroke-miterlimit:10;" d="&#10;&#9;&#9;&#9;M439.699,51.009H350.91c-6.687,0-12.108,5.421-12.108,12.108v88.789c0,6.687,5.421,12.108,12.108,12.108h21.271&#10;&#9;&#9;&#9;c3.933,0,7.62,1.91,9.889,5.122l9.974,14.12c1.598,2.262,4.947,2.279,6.568,0.034l10.295-14.257&#10;&#9;&#9;&#9;c2.276-3.152,5.928-5.019,9.816-5.019h20.975c6.687,0,12.108-5.421,12.108-12.108V63.117&#10;&#9;&#9;&#9;C451.807,56.43,446.386,51.009,439.699,51.009z"/>
		
			<polyline style="fill:none;stroke:#000000;stroke-width:15;stroke-linecap:round;stroke-linejoin:round;stroke-miterlimit:10;" points="&#10;&#9;&#9;&#9;101.696,409 101.696,460.991 131.696,460.991 131.696,324.496 101.696,324.496 101.696,374 &#9;&#9;"/>
	</g>
</g>
<g>
</g>
<g>
</g>
<g>
</g>
<g>
</g>
<g>
</g>
<g>
</g>
<g>
</g>
<g>
</g>
<g>
</g>
<g>
</g>
<g>
</g>
<g>
</g>
<g>
</g>
<g>
</g>
<g>
</g>
</svg>