<svg version="1.1" id="Capa_1" xmlns="http://www.w3.org/2000/svg" xmlns:xlink="http://www.w3.org/1999/xlink" x="0px" y="0px" viewBox="0 0 512.001 512.001" style="enable-background:new 0 0 512.001 512.001;" xml:space="preserve">
<g>
	<g>
		<g>
			<g>
				<g>
					<g>
						<path style="fill:#FFCEC0;" d="M504.106,277.141c-8.518-29.436-44.103-146.343-77.926-168.061&#10;&#9;&#9;&#9;&#9;&#9;&#9;&#9;c-1.706-1.096-3.655-1.753-5.667-2.001l-31.49-3.88c-10.543-1.301-20.406,5.406-23.076,15.688l-4.771,18.357&#10;&#9;&#9;&#9;&#9;&#9;&#9;&#9;c-2.797,10.775,3.23,21.879,13.789,25.401l17.423,5.802c5.593,1.862,11.755,0.269,15.733-4.075&#10;&#9;&#9;&#9;&#9;&#9;&#9;&#9;c1.638-1.787,2.827-3.851,3.552-6.042l20.07,82.448c-9.13-4.846-23.098-7.134-42.727,2.557&#10;&#9;&#9;&#9;&#9;&#9;&#9;&#9;c-10.865-16.182-33.941-38.181-71.703-17.086l49.008,97.956c0,0,71.756,8.128,133.903-36.04&#10;&#9;&#9;&#9;&#9;&#9;&#9;&#9;C503.724,285.678,505.3,281.267,504.106,277.141z"/>
						<path style="fill:#FDB0A0;" d="M500.22,288.17c-62.14,44.16-133.9,36.04-133.9,36.04l-5.69-11.37&#10;&#9;&#9;&#9;&#9;&#9;&#9;&#9;c26.6-1.77,67.98-9.27,105.81-36.16c3.5-2.49,5.07-6.9,3.88-11.02c-7.83-27.06-38.53-128.04-69.72-161.03l19.91,2.45&#10;&#9;&#9;&#9;&#9;&#9;&#9;&#9;c2.01,0.25,3.96,0.9,5.67,2c33.82,21.72,69.41,138.63,77.93,168.06C505.301,281.27,503.72,285.68,500.22,288.17z"/>
						<path style="fill:#FFCEC0;" d="M122.986,243.336c-19.629-9.691-33.597-7.403-42.727-2.557l20.07-82.448&#10;&#9;&#9;&#9;&#9;&#9;&#9;&#9;c0.725,2.191,1.914,4.255,3.552,6.042c3.978,4.344,10.14,5.937,15.733,4.075l17.423-5.802&#10;&#9;&#9;&#9;&#9;&#9;&#9;&#9;c10.558-3.522,16.585-14.626,13.789-25.401l-4.771-18.357c-2.669-10.282-12.532-16.989-23.076-15.688l-31.49,3.88&#10;&#9;&#9;&#9;&#9;&#9;&#9;&#9;c-2.013,0.248-3.961,0.905-5.668,2.001C51.998,130.799,16.413,247.706,7.895,277.141c-1.194,4.126,0.382,8.537,3.883,11.025&#10;&#9;&#9;&#9;&#9;&#9;&#9;&#9;c62.147,44.168,133.903,36.04,133.903,36.04l49.008-97.956C156.927,205.156,133.851,227.155,122.986,243.336z"/>
					</g>
					<g>
						<path style="fill:#FB3A82;" d="M377.125,207.404L377.125,207.404c-32.678-32.678-85.659-32.678-118.337,0l-2.787,2.787&#10;&#9;&#9;&#9;&#9;&#9;&#9;&#9;l-2.788-2.788c-32.678-32.678-85.659-32.678-118.337,0h0c-32.678,32.678-32.678,85.659,0,118.337l113.778,113.778&#10;&#9;&#9;&#9;&#9;&#9;&#9;&#9;c4.058,4.058,10.636,4.058,14.694,0l113.778-113.778C409.803,293.063,409.803,240.082,377.125,207.404z"/>
						<path style="fill:#E01058;" d="M377.12,325.74L263.35,439.52c-4.06,4.06-10.64,4.06-14.7,0l-20.67-20.67L337.1,309.73&#10;&#9;&#9;&#9;&#9;&#9;&#9;&#9;c32.68-32.68,32.68-85.66,0-118.34c-2.89-2.89-5.94-5.52-9.12-7.89c17.96,2.15,35.35,10.11,49.14,23.9&#10;&#9;&#9;&#9;&#9;&#9;&#9;&#9;C409.801,240.08,409.801,293.06,377.12,325.74z"/>
					</g>
				</g>
				<g>
					<path style="fill:#27D1B3;" d="M294.814,79.341h-16.947V62.394c0-5.523-4.477-10-10-10h-23.734c-5.523,0-10,4.477-10,10v16.947&#10;&#9;&#9;&#9;&#9;&#9;&#9;h-16.947c-5.523,0-10,4.477-10,10v23.734c0,5.523,4.477,10,10,10h16.947v16.947c0,5.523,4.477,10,10,10h23.734&#10;&#9;&#9;&#9;&#9;&#9;&#9;c5.523,0,10-4.477,10-10v-16.947h16.947c5.523,0,10-4.477,10-10V89.341C304.814,83.818,300.337,79.341,294.814,79.341z"/>
					<path style="fill:#20B69F;" d="M294.813,79.34h-16.95v43.73h16.95c5.52,0,10-4.47,10-10V89.34&#10;&#9;&#9;&#9;&#9;&#9;&#9;C304.813,83.817,300.336,79.34,294.813,79.34z"/>
				</g>
			</g>
		</g>
		<g>
			<g>
				<path style="fill:#27D1B3;" d="M132.811,388.926h-16.947v-16.947c0-5.523-4.477-10-10-10H82.131c-5.523,0-10,4.477-10,10v16.947&#10;&#9;&#9;&#9;&#9;&#9;H55.184c-5.523,0-10,4.477-10,10v23.734c0,5.523,4.477,10,10,10h16.947v16.947c0,5.523,4.477,10,10,10h23.734&#10;&#9;&#9;&#9;&#9;&#9;c5.523,0,10-4.477,10-10V432.66h16.947c5.523,0,10-4.477,10-10v-23.734C142.811,393.403,138.334,388.926,132.811,388.926z"/>
				<path style="fill:#20B69F;" d="M132.811,388.925h-16.95v43.73h16.95c5.52,0,10-4.47,10-10v-23.73&#10;&#9;&#9;&#9;&#9;&#9;C142.811,393.402,138.333,388.925,132.811,388.925z"/>
			</g>
			<g>
				<path style="fill:#27D1B3;" d="M456.819,388.926h-16.947v-16.947c0-5.523-4.477-10-10-10h-23.734c-5.523,0-10,4.477-10,10&#10;&#9;&#9;&#9;&#9;&#9;v16.947h-16.947c-5.523,0-10,4.477-10,10v23.734c0,5.523,4.477,10,10,10h16.947v16.947c0,5.523,4.477,10,10,10h23.734&#10;&#9;&#9;&#9;&#9;&#9;c5.523,0,10-4.477,10-10V432.66h16.947c5.523,0,10-4.477,10-10v-23.734C466.819,393.403,462.342,388.926,456.819,388.926z"/>
				<path style="fill:#20B69F;" d="M456.818,388.925h-16.95v43.73h16.95c5.52,0,10-4.47,10-10v-23.73&#10;&#9;&#9;&#9;&#9;&#9;C466.818,393.402,462.341,388.925,456.818,388.925z"/>
			</g>
		</g>
	</g>
	<g>
		<g>
			<g>
				<g>
					<g>
						
							<path style="fill:none;stroke:#000000;stroke-width:15;stroke-linecap:round;stroke-linejoin:round;stroke-miterlimit:10;" d="&#10;&#9;&#9;&#9;&#9;&#9;&#9;&#9;M380.383,324.795c23.944-0.008,74.455-4.372,119.84-36.628c3.501-2.488,5.077-6.899,3.883-11.025&#10;&#9;&#9;&#9;&#9;&#9;&#9;&#9;c-4.868-16.823-18.579-62.214-35.748-102.081"/>
						
							<path style="fill:none;stroke:#000000;stroke-width:15;stroke-linecap:round;stroke-linejoin:round;stroke-miterlimit:10;" d="&#10;&#9;&#9;&#9;&#9;&#9;&#9;&#9;M454.129,145.255c-9.042-16.785-18.562-30.148-27.949-36.175c-1.706-1.096-3.655-1.753-5.667-2.001l-31.49-3.88&#10;&#9;&#9;&#9;&#9;&#9;&#9;&#9;c-10.543-1.301-20.406,5.406-23.076,15.688l-4.771,18.357c-2.797,10.775,3.23,21.879,13.789,25.401l17.423,5.802&#10;&#9;&#9;&#9;&#9;&#9;&#9;&#9;c5.593,1.862,11.755,0.269,15.733-4.075c1.638-1.787,2.827-3.851,3.552-6.042l20.07,82.448&#10;&#9;&#9;&#9;&#9;&#9;&#9;&#9;c-7.484-3.972-18.22-6.226-32.66-1.571"/>
						<g>
							
								<path style="fill:none;stroke:#000000;stroke-width:15;stroke-linecap:round;stroke-linejoin:round;stroke-miterlimit:10;" d="&#10;&#9;&#9;&#9;&#9;&#9;&#9;&#9;&#9;M431.742,240.779c0,0,8.504,3.576,12.853,14.968"/>
						</g>
						
							<path style="fill:none;stroke:#000000;stroke-width:15;stroke-linecap:round;stroke-linejoin:round;stroke-miterlimit:10;" d="&#10;&#9;&#9;&#9;&#9;&#9;&#9;&#9;M113.37,239.356c-14.668-4.849-25.549-2.59-33.111,1.423l20.07-82.448c0.725,2.191,1.914,4.255,3.552,6.042&#10;&#9;&#9;&#9;&#9;&#9;&#9;&#9;c3.978,4.344,10.14,5.937,15.733,4.075l17.423-5.802c10.558-3.522,16.585-14.626,13.789-25.401l-4.771-18.357&#10;&#9;&#9;&#9;&#9;&#9;&#9;&#9;c-2.669-10.282-12.532-16.989-23.076-15.688l-31.49,3.88c-2.013,0.248-3.961,0.905-5.668,2.001&#10;&#9;&#9;&#9;&#9;&#9;&#9;&#9;C51.998,130.799,16.413,247.706,7.895,277.141c-1.194,4.126,0.382,8.537,3.883,11.025&#10;&#9;&#9;&#9;&#9;&#9;&#9;&#9;c12.713,9.035,25.828,15.88,38.648,21.055"/>
						
							<path style="fill:none;stroke:#000000;stroke-width:15;stroke-linecap:round;stroke-linejoin:round;stroke-miterlimit:10;" d="&#10;&#9;&#9;&#9;&#9;&#9;&#9;&#9;M81.829,319.063c20.571,4.737,38.475,5.741,50.046,5.73"/>
					</g>
					<g>
						
							<path style="fill:none;stroke:#000000;stroke-width:15;stroke-linecap:round;stroke-linejoin:round;stroke-miterlimit:10;" d="&#10;&#9;&#9;&#9;&#9;&#9;&#9;&#9;M345.728,357.138l31.397-31.397c32.678-32.678,32.678-85.659,0-118.337l0,0c-32.678-32.678-85.659-32.678-118.337,0&#10;&#9;&#9;&#9;&#9;&#9;&#9;&#9;l-2.787,2.787l-2.788-2.787c-32.678-32.678-85.659-32.678-118.337,0h0c-32.678,32.678-32.678,85.659,0,118.337&#10;&#9;&#9;&#9;&#9;&#9;&#9;&#9;l113.778,113.778c4.057,4.057,10.636,4.057,14.694,0l59.166-59.166"/>
					</g>
				</g>
				<g>
					<path style="fill:none;stroke:#000000;stroke-width:15;stroke-linecap:round;stroke-linejoin:round;stroke-miterlimit:10;" d="&#10;&#9;&#9;&#9;&#9;&#9;&#9;M294.814,79.341h-16.947V62.394c0-5.523-4.477-10-10-10h-23.734c-5.523,0-10,4.477-10,10v16.947h-16.947&#10;&#9;&#9;&#9;&#9;&#9;&#9;c-5.523,0-10,4.477-10,10v23.734c0,5.523,4.477,10,10,10h16.947v16.947c0,5.523,4.477,10,10,10h23.734c5.523,0,10-4.477,10-10&#10;&#9;&#9;&#9;&#9;&#9;&#9;v-16.947h16.947c5.523,0,10-4.477,10-10V89.341C304.814,83.818,300.337,79.341,294.814,79.341z"/>
				</g>
				<path style="fill:none;stroke:#000000;stroke-width:15;stroke-linecap:round;stroke-linejoin:round;stroke-miterlimit:10;" d="&#10;&#9;&#9;&#9;&#9;&#9;M80.259,240.779c0,0-8.504,3.576-12.853,14.968"/>
			</g>
			<g>
				<g>
					<path style="fill:none;stroke:#000000;stroke-width:15;stroke-linecap:round;stroke-linejoin:round;stroke-miterlimit:10;" d="&#10;&#9;&#9;&#9;&#9;&#9;&#9;M226.068,324.034c6.275,9.916,17.329,16.504,29.933,16.504s23.658-6.588,29.933-16.504"/>
				</g>
				<g>
					
						<line style="fill:none;stroke:#000000;stroke-width:15;stroke-linecap:round;stroke-linejoin:round;stroke-miterlimit:10;" x1="219.092" y1="285.282" x2="219.092" y2="290.417"/>
					
						<line style="fill:none;stroke:#000000;stroke-width:15;stroke-linecap:round;stroke-linejoin:round;stroke-miterlimit:10;" x1="292.911" y1="285.282" x2="292.911" y2="290.417"/>
				</g>
			</g>
		</g>
		<g>
			<g>
				<path style="fill:none;stroke:#000000;stroke-width:15;stroke-linecap:round;stroke-linejoin:round;stroke-miterlimit:10;" d="&#10;&#9;&#9;&#9;&#9;&#9;M132.811,388.926h-16.947v-16.947c0-5.523-4.477-10-10-10H82.131c-5.523,0-10,4.477-10,10v16.947H55.184&#10;&#9;&#9;&#9;&#9;&#9;c-5.523,0-10,4.477-10,10v23.734c0,5.523,4.477,10,10,10h16.947v16.947c0,5.523,4.477,10,10,10h23.734c5.523,0,10-4.477,10-10&#10;&#9;&#9;&#9;&#9;&#9;V432.66h16.947c5.523,0,10-4.477,10-10v-23.734C142.811,393.403,138.334,388.926,132.811,388.926z"/>
			</g>
			<g>
				<path style="fill:none;stroke:#000000;stroke-width:15;stroke-linecap:round;stroke-linejoin:round;stroke-miterlimit:10;" d="&#10;&#9;&#9;&#9;&#9;&#9;M456.819,388.926h-16.947v-16.947c0-5.523-4.477-10-10-10h-23.734c-5.523,0-10,4.477-10,10v16.947h-16.947&#10;&#9;&#9;&#9;&#9;&#9;c-5.523,0-10,4.477-10,10v23.734c0,5.523,4.477,10,10,10h16.947v16.947c0,5.523,4.477,10,10,10h23.734c5.523,0,10-4.477,10-10&#10;&#9;&#9;&#9;&#9;&#9;V432.66h16.947c5.523,0,10-4.477,10-10v-23.734C466.819,393.403,462.342,388.926,456.819,388.926z"/>
			</g>
		</g>
	</g>
</g>
<g>
</g>
<g>
</g>
<g>
</g>
<g>
</g>
<g>
</g>
<g>
</g>
<g>
</g>
<g>
</g>
<g>
</g>
<g>
</g>
<g>
</g>
<g>
</g>
<g>
</g>
<g>
</g>
<g>
</g>
</svg>