<svg id="Filled" height="512" viewBox="0 0 512 512" width="512" xmlns="http://www.w3.org/2000/svg"><g><path d="m24 56h464v432h-464z" fill="#fefbfb"/><path d="m56 320h80v64h-80z" fill="#80daff"/><path d="m136 320h80v64h-80z" fill="#f47b79"/><path d="m216 320h240v64h-240z" fill="#fbd373"/><path d="m296 256h80v64h-80z" fill="#f47b79"/><path d="m24 56h464v64h-464z" fill="#f47b79"/><path d="m496 440h-16v-376h-24v-16h32a8 8 0 0 1 8 8z"/><g fill="#fbd373"><rect height="64" rx="20" width="48" x="232" y="24"/><rect height="64" rx="20" width="48" x="408" y="24"/><rect height="64" rx="20" width="48" x="320" y="24"/><rect height="64" rx="20" width="48" x="144" y="24"/><rect height="64" rx="20" width="48" x="56" y="24"/></g><path d="m56 192h80v64h-80z" fill="#80daff"/><path d="m136 192h80v64h-80z" fill="#f47b79"/><path d="m56 256h240v64h-240z" fill="#fbd373"/><path d="m216 192h240v64h-240z" fill="#fbd373"/><path d="m376 256h80v64h-80z" fill="#80daff"/><path d="m296 384h80v64h-80z" fill="#f47b79"/><path d="m56 384h240v64h-240z" fill="#fbd373"/><path d="m376 384h80v64h-80z" fill="#80daff"/><g><path d="m32 128h456v-16h-456v-48h16v4a28.0314 28.0314 0 0 0 28 28h8a28.0314 28.0314 0 0 0 28-28v-4h24v4a28.0314 28.0314 0 0 0 28 28h8a28.0314 28.0314 0 0 0 28-28v-4h24v4a28.0314 28.0314 0 0 0 28 28h8a28.0314 28.0314 0 0 0 28-28v-4h24v4a28.0314 28.0314 0 0 0 28 28h8a28.0314 28.0314 0 0 0 28-28v-4h24v4a28.0314 28.0314 0 0 0 28 28h8a28.0314 28.0314 0 0 0 28-28v-24a28.0314 28.0314 0 0 0 -28-28h-8a28.0314 28.0314 0 0 0 -28 28v4h-24v-4a28.0314 28.0314 0 0 0 -28-28h-8a28.0314 28.0314 0 0 0 -28 28v4h-24v-4a28.0314 28.0314 0 0 0 -28-28h-8a28.0314 28.0314 0 0 0 -28 28v4h-24v-4a28.0314 28.0314 0 0 0 -28-28h-8a28.0314 28.0314 0 0 0 -28 28v4h-24v-4a28.0314 28.0314 0 0 0 -28-28h-8a28.0314 28.0314 0 0 0 -28 28v4h-24a8 8 0 0 0 -8 8v96h16zm384-84a12.0134 12.0134 0 0 1 12-12h8a12.0134 12.0134 0 0 1 12 12v24a12.0134 12.0134 0 0 1 -12 12h-8a12.0134 12.0134 0 0 1 -12-12zm-88 0a12.0134 12.0134 0 0 1 12-12h8a12.0134 12.0134 0 0 1 12 12v24a12.0134 12.0134 0 0 1 -12 12h-8a12.0134 12.0134 0 0 1 -12-12zm-88 0a12.0134 12.0134 0 0 1 12-12h8a12.0134 12.0134 0 0 1 12 12v24a12.0134 12.0134 0 0 1 -12 12h-8a12.0134 12.0134 0 0 1 -12-12zm-88 0a12.0134 12.0134 0 0 1 12-12h8a12.0134 12.0134 0 0 1 12 12v24a12.0134 12.0134 0 0 1 -12 12h-8a12.0134 12.0134 0 0 1 -12-12zm-88 0a12.0134 12.0134 0 0 1 12-12h8a12.0134 12.0134 0 0 1 12 12v24a12.0134 12.0134 0 0 1 -12 12h-8a12.0134 12.0134 0 0 1 -12-12z"/><path d="m480 456v24h-448v-312h-16v320a8 8 0 0 0 8 8h464a8 8 0 0 0 8-8v-32z"/><path d="m48 192v256a8 8 0 0 0 8 8h400a8 8 0 0 0 8-8v-256a8 8 0 0 0 -8-8h-400a8 8 0 0 0 -8 8zm240 72v48h-224v-48zm80 0v48h-64v-48zm-144 112v-48h224v48zm-80 0v-48h64v48zm-80 0v-48h64v48zm384-64h-64v-48h64zm-384 80h224v48h-224zm240 0h64v48h-64zm144 48h-64v-48h64zm0-192h-224v-48h224zm-240 0h-64v-48h64zm-144-48h64v48h-64z"/><path d="m240 216h40v16h-40z"/><path d="m296 216h136v16h-136z"/><path d="m240 344h40v16h-40z"/><path d="m296 344h136v16h-136z"/><path d="m80 280h136v16h-136z"/><path d="m232 280h40v16h-40z"/><path d="m80 408h136v16h-136z"/><path d="m232 408h40v16h-40z"/><path d="m88 152h16v16h-16z"/><path d="m168 152h16v16h-16z"/><path d="m248 152h16v16h-16z"/><path d="m328 152h16v16h-16z"/><path d="m408 152h16v16h-16z"/></g></g></svg>