<svg id="Layer_1" enable-background="new 0 0 66 66" height="512" viewBox="0 0 66 66" width="512" xmlns="http://www.w3.org/2000/svg"><g><g><g><path d="m30.71 40.79c-1.24-.6-2.56-1.08-3.92-1.43v-6.56l-9.64-1v7.56c-1.37.34-2.68.82-3.92 1.43l-4.99 7.27 4.47 7.41 14.76-.7 1.89-6.79 3.1-2.45v-2.84z" fill="#e5d3b3"/></g><g><path d="m36.57 31.31c-.55.56-.86 1.31-.87 2.09-.06 3.53 2.07 8.09 5.91 11.94 3.85 3.85 8.42 5.98 11.95 5.92.79-.01 1.53-.32 2.09-.87.85-.84 2.11-2.1 2.11-2.1.15-.15.27-.34.35-.52.25-.6.13-1.32-.35-1.8l-2.91-2.91c-.64-.64-1.68-.64-2.32 0l-2.14 2.14c-.24.24-.62.3-.92.12-1.53-.93-3.05-2.11-4.48-3.54-1.35-1.35-2.48-2.78-3.39-4.23-.19-.3-.13-.68.11-.93l2.19-2.19c.64-.64.64-1.68 0-2.32l-2.91-2.91c-.56-.56-1.43-.63-2.07-.21-.09.06-.17.13-.25.21z" fill="#ff4823"/></g><g opacity=".1"><g><path d="m56.79 48.88c-.56.55-1.31.86-2.09.87-3.53.06-8.09-2.06-11.95-5.92-3.85-3.85-5.97-8.41-5.91-11.94.01-.37.08-.74.22-1.08l-.49.49c-.55.56-.86 1.31-.87 2.09-.06 3.53 2.07 8.09 5.91 11.94 3.85 3.85 8.42 5.98 11.95 5.92.79-.01 1.53-.32 2.09-.87.85-.84 2.11-2.1 2.11-2.1.15-.15.27-.34.35-.52.04-.09.05-.18.07-.27-.43.43-.96.96-1.39 1.39z"/></g></g><g><path d="m30.71 40.79c-1.25 3.63-4.69 6.23-8.74 6.23s-7.49-2.61-8.74-6.23c-6.19 3.01-10.6 9.09-11.22 16.26-.08.93.63 1.74 1.57 1.74h36.78c.94 0 1.65-.81 1.57-1.74-.63-7.17-5.04-13.25-11.22-16.26z" fill="#009aff"/></g><g opacity=".1"><path d="m17.15 36c1.69 1.51 3.68 2.48 5.82 2.48 1.34 0 2.63-.38 3.82-1.04v-4.64l-9.64-1z"/></g><g><path d="m62.99 24.44h-14.29c-.56 0-1.02.45-1.02 1.02v9.17c0 .56.45 1.02 1.02 1.02h2.26v3.5l4.4-3.5h7.63c.56 0 1.02-.45 1.02-1.02v-9.17c-.01-.57-.46-1.02-1.02-1.02z" fill="#fec200"/></g><g><path d="m30.27 10.13c-8.43-7.3-13.54 1.37-13.54 1.37s-9.07.47-5.66 8.99l21.47 2.75c0-.01 3.59-8.03-2.27-13.11z" fill="#5d5b68"/></g><g opacity=".1"><path d="m30.27 10.13c-6.92-6-11.61-1.22-13.06.68 2.3-1.74 6.11-2.97 11.06 1.32 3.96 3.43 3.6 8.19 2.96 10.93l1.31.17s3.59-8.02-2.27-13.1z"/></g><g><path d="m34.33 22.58c-.43-.12-.89-.03-1.33.22.02.24.01-.01-.03-.37-.18.51-.31.8-.31.8s-1.18-4.21-6.69-4.15c-5.52.06-8.78-3.56-8.78-3.56-2.72 5.25-6 4.97-6 4.96-.13.87-.22 1.79-.26 2.32-.43-.25-.89-.34-1.33-.22-1.16.33-1.69 2.07-1.17 3.89s1.88 3.02 3.04 2.69c.19-.05.36-.16.51-.29 1.79 4.55 5.57 8.6 9.97 8.6 4.39 0 8.18-4.05 9.97-8.6.16.13.32.23.51.29 1.16.33 2.53-.87 3.04-2.69.54-1.82.02-3.56-1.14-3.89z" fill="#e5d3b3"/></g><g><g><path d="m32.19 41.6c-.48-.29-.98-.56-1.48-.81-.33.95-.81 1.82-1.41 2.61 1.08-.42 2.05-1.03 2.89-1.8z" fill="#009aff"/></g><g opacity=".1"><path d="m41.77 55.79h-23.84c-10.99 0-13.84-6.58-6-14.27l.11-.11c-5.56 3.19-9.47 8.95-10.04 15.68-.08.93.63 1.7 1.57 1.7h36.79c.93 0 1.64-.8 1.57-1.72-.04-.43-.09-.86-.16-1.28z"/></g></g><g opacity=".1"><path d="m52.81 33.57c-1.3 0-2.36-1.06-2.36-2.36v-6.78h-1.75c-.56 0-1.02.45-1.02 1.02v9.17c0 .56.45 1.02 1.02 1.02h2.26v3.5l4.4-3.5h7.63c.56 0 1.02-.45 1.02-1.02v-1.05z"/></g><g opacity=".35"><path d="m62.99 24.44h-11.29c0 1.1.9 2 2 2h8.3v4.18c0 1.1.9 2 2 2v-7.17c0-.56-.45-1.01-1.01-1.01z" fill="#fff"/></g></g><g><g><g><path d="m21.96 31.31c-.79 0-1.59-.3-2.19-.91-.29-.29-.29-.77 0-1.06s.77-.29 1.06 0c.62.62 1.64.62 2.26 0 .29-.29.77-.29 1.06 0s.29.77 0 1.06c-.6.61-1.39.91-2.19.91z" fill="#211e27"/></g><g><circle cx="19.07" cy="25.44" fill="#211e27" r="1"/></g><g><circle cx="24.86" cy="25.44" fill="#211e27" r="1"/></g></g><g><g><path d="m53.41 52.01c-3.82 0-8.53-2.34-12.33-6.14-3.85-3.85-6.2-8.63-6.13-12.48.02-.99.4-1.91 1.09-2.61l2.09-2.12c.11-.11.22-.2.33-.28.99-.65 2.25-.52 3.05.28l2.91 2.91c.45.45.7 1.05.7 1.69s-.25 1.24-.7 1.69l-2.19 2.19c.91 1.46 2.01 2.84 3.27 4.1 1.33 1.33 2.79 2.48 4.34 3.43l2.14-2.15c.9-.9 2.48-.9 3.38 0l2.91 2.91c.69.69.89 1.72.51 2.62-.13.29-.3.55-.51.76l-2.11 2.1c-.69.69-1.62 1.08-2.61 1.09-.04.01-.09.01-.14.01zm-13.59-22.54c-.17 0-.35.05-.5.15-.02.02-.08.06-.13.11l-2.09 2.11c-.41.42-.65.98-.66 1.58-.06 3.46 2.12 7.82 5.69 11.39 3.53 3.53 7.83 5.7 11.27 5.7h.14c.6-.01 1.16-.24 1.58-.66l2.11-2.1c.08-.08.15-.18.19-.29.14-.33.06-.72-.19-.97l-2.91-2.91c-.33-.33-.93-.33-1.26 0l-2.14 2.14c-.49.49-1.25.59-1.84.23-1.66-1.01-3.21-2.24-4.62-3.65-1.34-1.34-2.51-2.8-3.49-4.36-.37-.59-.28-1.36.22-1.86l2.19-2.19c.17-.17.26-.39.26-.63s-.09-.46-.26-.63l-2.91-2.91c-.19-.17-.42-.25-.65-.25z" fill="#211e27"/></g></g><g><path d="m28.77 40.72c-.08 0-.17-.01-.26-.04-.07-.02-.13-.05-.2-.07-.5-.17-1.04-.34-1.6-.48-.4-.1-.64-.51-.54-.91s.51-.65.91-.54c.58.15 1.16.32 1.72.52.07.02.14.05.21.08.39.14.59.57.45.96-.1.29-.38.48-.69.48z" fill="#211e27"/></g><g><path d="m15.16 40.72c-.31 0-.59-.19-.71-.49-.14-.39.06-.82.45-.96.01 0 .01 0 .02-.01.02-.01.04-.01.06-.02.6-.21 1.22-.4 1.85-.56.4-.1.81.14.91.54s-.14.81-.54.91c-.6.16-1.18.33-1.71.52-.02.01-.04.01-.06.02-.01 0-.01 0-.02.01-.08.03-.17.04-.25.04z" fill="#211e27"/></g><g><path d="m30.7 41.54c-.11 0-.22-.02-.33-.08s0 0-.01 0c-.22-.11-.44-.21-.66-.31-.38-.17-.76-.32-1.15-.46s-.59-.57-.45-.96.57-.59.96-.45h.01c.42.15.84.32 1.24.5.24.11.48.22.71.33.37.18.53.63.35 1-.12.27-.39.43-.67.43z" fill="#211e27"/></g><g><path d="m13.23 41.54c-.28 0-.55-.16-.68-.42-.18-.37-.03-.82.35-1 .24-.12.49-.23.74-.34.4-.17.81-.34 1.22-.49.39-.14.82.06.96.45s-.06.82-.45.96h-.01c-.38.14-.75.29-1.11.44-.23.1-.47.21-.69.32-.11.05-.22.08-.33.08z" fill="#211e27"/></g><g><path d="m40.35 59.55h-36.77c-.66 0-1.26-.27-1.7-.75-.45-.49-.67-1.15-.61-1.81.61-7.22 5.07-13.69 11.63-16.87.19-.09.42-.1.62-.02s.35.25.42.45c1.18 3.43 4.41 5.73 8.03 5.73s6.85-2.3 8.03-5.73c.07-.2.22-.37.42-.45s.42-.08.62.02c6.55 3.19 11.01 9.65 11.64 16.87.06.66-.17 1.32-.61 1.81-.46.48-1.06.75-1.72.75zm-27.52-17.71c-5.69 3.07-9.52 8.85-10.08 15.28-.02.25.06.49.22.67.16.17.37.26.6.26h36.78c.23 0 .44-.09.6-.26.16-.18.24-.42.22-.67-.56-6.43-4.39-12.21-10.08-15.28-1.59 3.58-5.16 5.94-9.13 5.94s-7.54-2.36-9.13-5.94z" fill="#211e27"/></g><g><path d="m30.7 41.54c-.11 0-.22-.02-.33-.08-1.2-.58-2.47-1.04-3.78-1.37-.33-.08-.57-.38-.57-.73v-3.56c0-.41.34-.75.75-.75s.75.34.75.75v2.98c1.21.34 2.39.79 3.5 1.33.37.18.53.63.35 1-.12.27-.39.43-.67.43z" fill="#211e27"/></g><g><path d="m13.22 41.54c-.28 0-.54-.16-.67-.42-.18-.37-.03-.82.35-1 1.12-.54 2.29-.99 3.5-1.33v-2.99c0-.41.34-.75.75-.75s.75.34.75.75v3.56c0 .34-.23.64-.57.73-1.31.33-2.58.79-3.78 1.37-.1.06-.22.08-.33.08z" fill="#211e27"/></g><g><path d="m32.66 23.98c-.1 0-.21-.02-.31-.07-.38-.17-.55-.61-.38-.99.14-.31 3.29-7.58-2.08-12.23-2.45-2.13-4.82-3.02-7.04-2.67-3.36.54-5.34 3.82-5.36 3.85-.13.21-.36.35-.6.37-.04 0-3.65.23-5.1 2.5-.85 1.33-.82 3.17.1 5.46.15.38-.03.82-.42.97-.38.15-.82-.03-.98-.42-1.11-2.77-1.1-5.06.03-6.83 1.56-2.44 4.77-3.02 5.89-3.15.66-.96 2.79-3.68 6.19-4.23 2.69-.43 5.47.58 8.28 3.01 6.21 5.38 2.5 13.89 2.46 13.97-.12.3-.39.46-.68.46z" fill="#211e27"/></g><g><path d="m21.96 38.23c-4.63 0-8.44-4.07-10.35-8.33-.79.2-1.65-.06-2.39-.72-.68-.6-1.22-1.49-1.51-2.51-.64-2.25.1-4.37 1.68-4.82.28-.08.58-.1.87-.07.05-.43.1-.92.18-1.41.06-.41.44-.71.85-.63.07 0 2.81.11 5.23-4.57.11-.22.33-.37.57-.4.25-.03.49.06.65.24.03.03 3.07 3.31 8.09 3.31h.24c3.87 0 5.8 1.99 6.67 3.38.1-.03.2-.04.31-.03.14.02.26.07.37.15.37-.08.75-.07 1.11.03 1.58.45 2.32 2.57 1.68 4.82-.29 1.01-.82 1.91-1.51 2.51-.74.65-1.6.92-2.39.72-1.9 4.26-5.72 8.33-10.35 8.33zm-9.96-10.1c.06 0 .13.01.19.02.23.06.42.23.51.45 1.59 4.05 5.07 8.13 9.27 8.13s7.68-4.08 9.27-8.13c.09-.22.28-.39.51-.45s.48-.01.66.14c.1.08.18.13.25.15.31.09.69-.05 1.06-.38.46-.41.85-1.06 1.06-1.79.43-1.51 0-2.78-.65-2.96-.17-.05-.34-.02-.5.03-.05.06-.11.12-.18.17-.04.03-.07.05-.11.06-.14.27-.43.42-.73.41-.31-.02-.58-.24-.66-.54-.04-.14-1.11-3.6-5.86-3.6-.08 0-.16 0-.24 0-4.22 0-7.16-2-8.46-3.11-2.05 3.45-4.36 4.27-5.53 4.46-.09.68-.15 1.3-.17 1.67-.02.26-.17.49-.4.61s-.51.12-.73-.01c-.19-.11-.47-.23-.74-.15-.66.19-1.08 1.45-.65 2.96.21.73.59 1.39 1.06 1.79.37.33.76.47 1.06.38.07-.02.15-.07.25-.15.12-.11.29-.16.46-.16z" fill="#211e27"/></g><g><g><path d="m34 50.15c-.41 0-.75-.34-.75-.75v-6.63c0-.41.34-.75.75-.75s.75.34.75.75v6.63c0 .41-.34.75-.75.75z" fill="#211e27"/></g><g><path d="m34 55.22c-1.81 0-3.28-1.47-3.28-3.28s1.47-3.28 3.28-3.28 3.28 1.47 3.28 3.28-1.47 3.28-3.28 3.28zm0-5.07c-.98 0-1.78.8-1.78 1.78s.8 1.78 1.78 1.78 1.78-.8 1.78-1.78-.8-1.78-1.78-1.78z" fill="#211e27"/></g></g><g><g><path d="m11.18 50.15c-.41 0-.75-.34-.75-.75v-7.46c0-.41.34-.75.75-.75s.75.34.75.75v7.46c0 .41-.33.75-.75.75z" fill="#211e27"/></g><g><path d="m14.97 53.94c-.41 0-.75-.34-.75-.75 0-1.67-1.36-3.04-3.04-3.04s-3.04 1.36-3.04 3.04c0 .41-.34.75-.75.75s-.75-.34-.75-.75c0-2.5 2.04-4.54 4.54-4.54s4.54 2.04 4.54 4.54c0 .41-.34.75-.75.75z" fill="#211e27"/></g></g><g><g><path d="m50.96 39.89c-.11 0-.22-.02-.33-.07-.26-.13-.42-.39-.42-.68v-2.75h-1.51c-.97 0-1.77-.79-1.77-1.77v-9.17c0-.97.79-1.77 1.77-1.77h14.28c.97 0 1.77.79 1.77 1.77v9.17c0 .97-.79 1.77-1.77 1.77h-7.37l-4.19 3.34c-.13.1-.29.16-.46.16zm-2.26-14.7c-.15 0-.27.12-.27.27v9.17c0 .15.12.27.27.27h2.26c.41 0 .75.34.75.75v1.94l3.18-2.53c.13-.11.3-.16.47-.16h7.63c.15 0 .27-.12.27-.27v-9.17c0-.15-.12-.27-.27-.27z" fill="#211e27"/></g><g><g><path d="m55.84 33.32c-.41 0-.75-.34-.75-.75v-5.07c0-.41.34-.75.75-.75s.75.34.75.75v5.07c0 .42-.33.75-.75.75z" fill="#211e27"/></g><g><path d="m58.38 30.79h-5.07c-.41 0-.75-.34-.75-.75s.34-.75.75-.75h5.07c.41 0 .75.34.75.75s-.34.75-.75.75z" fill="#211e27"/></g></g></g></g></g></svg>