<svg viewBox="0 0 64 64" xmlns="http://www.w3.org/2000/svg"><g id="Fill_1" data-name="Fill 1"><path d="m31.7426 50.2573 26.5-26.5a6 6 0 0 0 0-8.4854l-1.5146-1.5145a6 6 0 0 0 -8.4854 0l-20.7426 20.7426-11.7426-11.7426a6 6 0 0 0 -8.4854 0l-1.5146 1.5146a6 6 0 0 0 0 8.4854l17.5 17.5a6 6 0 0 0 8.4852-.0001z" fill="#00e75c"/></g><g id="Effect_Line" data-name="Effect Line"><path d="m17.6572 40a.9969.9969 0 0 1 -.707-.293l-9.0713-9.07a2.9994 2.9994 0 0 1 -.7783-2.8916 1 1 0 0 1 1.9336.51 1.036 1.036 0 0 0 -.0342.26.9831.9831 0 0 0 .2939.7085l9.07 9.07a1 1 0 0 1 -.7067 1.7061z" fill="#8dff8d"/><path d="m35 42.3428a1 1 0 0 1 -.707-1.7071l20.414-20.413a1 1 0 1 1 1.4141 1.414l-20.4141 20.4133a.9967.9967 0 0 1 -.707.2928z" fill="#00ad45"/><circle cx="11" cy="25" fill="#8dff8d" r="1"/></g><g id="Line"><path d="m27.5 53.0112a6.9779 6.9779 0 0 1 -4.95-2.0468l-17.5-17.5a7.0076 7.0076 0 0 1 0-9.8995l1.5149-1.5149a7.0076 7.0076 0 0 1 9.9 0l11.0351 11.0359 20.0356-20.0359a7.0076 7.0076 0 0 1 9.8995 0l1.5149 1.5149a7.0076 7.0076 0 0 1 0 9.9l-26.5 26.5a6.9779 6.9779 0 0 1 -4.95 2.0463zm-15.9854-31.0088a4.9848 4.9848 0 0 0 -3.5356 1.462l-1.5146 1.5146a5.0063 5.0063 0 0 0 0 7.0713l17.5 17.5a5.0064 5.0064 0 0 0 7.0712 0l26.5-26.5a5.0063 5.0063 0 0 0 0-7.0713l-1.5146-1.5146a5.0063 5.0063 0 0 0 -7.0713 0l-20.7427 20.7426a.9994.9994 0 0 1 -1.414 0l-11.743-11.7426a4.9848 4.9848 0 0 0 -3.5354-1.462z"/></g></svg>