<svg clip-rule="evenodd" fill-rule="evenodd" height="512" stroke-linejoin="round" stroke-miterlimit="2" viewBox="0 0 64 64" width="512" xmlns="http://www.w3.org/2000/svg"><g transform="translate(2)"><path d="m46 10v50c0 1.1-.9 2-2 2h-36c-1.1 0-2-.9-2-2v-56c0-1.1.9-2 2-2h18z" fill="#eceaec" fill-rule="nonzero"/></g><g transform="translate(1.98)"><path d="m46 10v50c0 1.1-.9 2-2 2h-36c-1.1 0-2-.9-2-2 21.153-10.448 24.317-31.077 18.609-58h1.411z" fill="#dbd8db" fill-rule="nonzero"/></g><g transform="translate(2)"><path d="m46 10c-3.3 0-6 2.7-6 6l-14-14z" fill="#eceaec" fill-rule="nonzero"/></g><g fill-rule="nonzero"><path d="m45.2 22.1h5.6c.7 0 1.2.5 1.2 1.2v12.8h3.5c.5 0 .7.6.4.9l-7 6.7c-.5.4-1.2.4-1.7 0l-7-6.7c-.3-.3-.1-.9.4-.9h3.4v-12.8c0-.7.5-1.2 1.2-1.2z" fill="#4ce1a1"/><path d="m47.2 43.7c3.137-5.694 3.702-13.387 3.6-21.6.7 0 1.2.5 1.2 1.2v12.8h3.5c.5 0 .7.6.4.9l-7 6.7c-.5.4-1.2.4-1.7 0z" fill="#3ec2a3"/><path d="m56.9 36c-.2-.6-.8-.9-1.4-.9h-2.5v-5.1c0-.6-.4-1-1-1s-1 .4-1 1v6.1c0 .6.4 1 1 1h2.4l-6.3 5.9-6.3-5.9h2.2c.6 0 1-.4 1-1v-13h6v3c0 .6.4 1 1 1s1-.4 1-1v-2.8c0-1.2-1-2.2-2.2-2.2h-5.6c-1.2 0-2.2 1-2.2 2.2v11.8h-2.4c-.6 0-1.2.4-1.4.9-.2.6-.1 1.2.3 1.7l7.1 6.8c.4.3.9.5 1.4.5s1.1-.2 1.6-.6l7-6.7c.4-.4.6-1.1.3-1.7z"/><path d="m8 48.9c.6 0 1-.4 1-1v-43.9c0-.6.4-1 1-1h17.6l6.7 6.7c.4.4 1 .4 1.4 0s.4-1 0-1.4l-3.6-3.6 12.6 5c-1.6.9-2.9 2.3-3.5 4.1l-2.6-2.6c-.4-.4-1-.4-1.4 0s-.4 1 0 1.4l4 4c.2.2.6.5 1.1.2.4-.2.6-.5.6-.9 0-2.4 1.7-4.4 4-4.9v7c0 .6.4 1 1 1s1-.4 1-1v-8c0-.6-.6-.9-.6-.9l-20.1-8.1h-18.2c-1.7 0-3 1.3-3 3v43.9c0 .5.4 1 1 1z"/><path d="m8 54.9c.6 0 1-.4 1-1v-1.9c0-.6-.4-1-1-1s-1 .4-1 1v1.9c0 .5.4 1 1 1z"/><path d="m48 47c-.6 0-1 .4-1 1v12c0 .6-.4 1-1 1h-36c-.6 0-1-.4-1-1v-2c0-.6-.4-1-1-1s-1 .4-1 1v2c0 1.7 1.3 3 3 3h36c1.7 0 3-1.3 3-3v-12c0-.6-.4-1-1-1z"/><path d="m12 13h20c.6 0 1-.4 1-1s-.4-1-1-1h-20c-.6 0-1 .4-1 1s.4 1 1 1z"/><path d="m44 51h-32c-.6 0-1 .4-1 1s.4 1 1 1h32c.6 0 1-.4 1-1s-.4-1-1-1z"/><path d="m40 19h-28c-.6 0-1 .4-1 1s.4 1 1 1h28c.6 0 1-.4 1-1s-.4-1-1-1z"/><path d="m41 28c0-.6-.4-1-1-1h-28c-.6 0-1 .4-1 1s.4 1 1 1h28c.6 0 1-.4 1-1z"/><path d="m36 35h-24c-.6 0-1 .4-1 1s.4 1 1 1h24c.6 0 1-.4 1-1s-.4-1-1-1z"/><path d="m42 43h-30c-.6 0-1 .4-1 1s.4 1 1 1h30c.6 0 1-.4 1-1s-.4-1-1-1z"/></g></svg>