<?xml version="1.0" encoding="UTF-8"?>
<svg xmlns="http://www.w3.org/2000/svg" xmlns:xlink="http://www.w3.org/1999/xlink" version="1.1" id="Capa_1" x="0px" y="0px" viewBox="0 0 512.005 512.005" style="enable-background:new 0 0 512.005 512.005;" xml:space="preserve" width="512" height="512">
<g>
	<g>
		<path style="fill:#706CE1;" d="M192.125,339.867c-36.702-19.007-74.091-19.002-112.167,0C37.068,360.7,7.52,404.675,7.52,455.547&#10;&#9;&#9;&#9;c27.941,0,228.498,0,257.044,0c63.443-4.434,133-115.681,76.859-115.681L192.125,339.867z"/>
		<path style="fill:#FB5B73;" d="M432.041,339.867c-36.702-19.007-74.091-19.002-112.167,0&#10;&#9;&#9;&#9;c-42.891,20.833-72.439,64.808-72.439,115.681c27.941,0,228.498,0,257.044,0C504.479,404.675,474.932,360.7,432.041,339.867z"/>
		<path style="fill:#FFCEBF;" d="M24.638,344.154v-8.855c0-9.307,7.54-16.857,16.857-16.857c0.32,0,7.605,0,7.159,0h11.169&#10;&#9;&#9;&#9;c8.963,0,16.23,7.266,16.23,16.23v9.483c0,14.111-11.429,25.702-25.702,25.702C36.01,369.856,24.638,358.219,24.638,344.154z"/>
		<path style="fill:#FDCD64;" d="M375.958,352.718c5.886-26.969,38.674-19.459,56.063-12.841l-25.913,43.031&#10;&#9;&#9;&#9;c-8.494,14.096-30.15,8.072-30.15-8.383V352.718z"/>
		<path style="fill:#FCE299;" d="M375.958,352.718v21.807c0,16.456-21.656,22.48-30.15,8.383l-25.933-43.041&#10;&#9;&#9;&#9;C334.076,333.795,363.595,324.107,375.958,352.718z"/>
		<path style="fill:#F1B0A2;" d="M461.091,369.85c-14.064-0.296-25.145-12.159-25.145-26.226v-8.828&#10;&#9;&#9;&#9;c0-9.033,7.322-16.355,16.355-16.355c0.107,0,18.344,0,18.202,0c9.317,0,16.857,7.55,16.857,16.857v8.855&#10;&#9;&#9;&#9;C487.361,358.478,475.611,370.156,461.091,369.85z"/>
		<path style="fill:#CBC5EF;" d="M413.457,101.216c-0.127,31.217-74.132,30.916-74.005-0.301&#10;&#9;&#9;&#9;c-4.273-22.929,13.385-44.457,37.027-44.457C400.19,56.458,417.903,78.078,413.457,101.216z"/>
		<path style="fill:#FFB09E;" d="M176.754,346.132c2.39,26.087-18.208,49.176-44.999,49.176c-27.789,0-48.935-24.831-44.628-52.228&#10;&#9;&#9;&#9;C88.32,308.048,177.947,311.1,176.754,346.132z"/>
		<path style="fill:#ECEAF5;" d="M500.213,191.204c-13.575-51.268-57.915-89.743-111.766-94.943&#10;&#9;&#9;&#9;c-109.355,4.955-120.064,112.888-57.683,141.387C404.088,251.074,502.756,238.805,500.213,191.204z"/>
		<path style="fill:#DBD8F1;" d="M334.616,184.947c0.003,0,0.007,0.001,0.01,0.001c0,0,0-0.001,0-0.001&#10;&#9;&#9;&#9;c8.224-36.953,27.739-68.322,53.82-88.686C330.066,90.622,276.488,124.812,256,177.952&#10;&#9;&#9;&#9;c-12.978,29.702,25.074,50.599,74.764,59.697C329.5,220.547,330.652,202.793,334.616,184.947z"/>
		<path style="fill:#FFDFCF;" d="M500.223,191.204c-2.684,0.204-7.722,0.793-15.783,0.793c-44.566,0-83.144-18.702-101.765-45.923&#10;&#9;&#9;&#9;c-3.259-4.765-10.178-4.765-13.437-0.001c-7.624,11.142-18.593,20.854-31.943,28.444c-86.65,52.119-61.884,169.632,51.118,177.602&#10;&#9;&#9;&#9;C465.988,344.723,520.78,268.979,500.223,191.204z"/>
		<path style="fill:#FFCEBF;" d="M337.295,174.517c-22.955,13.049-50.696,18.565-76.827,17.32&#10;&#9;&#9;&#9;c-18.524,22.751-16.485,50.559-4.468,78.593c20.117,52.175,72.974,87.355,132.412,81.689&#10;&#9;&#9;&#9;C340.197,314.358,317.783,242.155,337.295,174.517z"/>
		<path style="fill:#FFDFCF;" d="M263.439,207.058c-15.952-48.078-49.633-84.309-101.042-108.693&#10;&#9;&#9;&#9;c-6.623-1.384-13.364-2.234-20.131-2.558C35.12,121.467,39.638,344.149,162.079,350.077&#10;&#9;&#9;&#9;C226.634,336.825,272.614,275.316,263.439,207.058z"/>
		<path style="fill:#FFCEBF;" d="M116.354,183.92c3.084-33.1,12.328-63.205,25.912-88.114c-10.916-0.523-21.902,0.327-32.579,2.558&#10;&#9;&#9;&#9;C59.563,118.371,25.882,154.602,8.645,207.058c-10.396,77.35,49.897,145.66,127.397,145.66c8.941,0,17.644-0.918,26.037-2.641&#10;&#9;&#9;&#9;C129.193,311.357,110.139,249.949,116.354,183.92z"/>
		<path style="fill:#ECEAF5;" d="M138.933,273.919c18.825,13.796,39.941,7.55,50.122,3.078c2.328-1.022,2.601-4.226,0.477-5.624&#10;&#9;&#9;&#9;c-8.275-5.445-13.792-16.957-13.792-16.957c-13.012-20.096-30.714-16.392-37.275-14.106c-1.676,0.584-3.492,0.584-5.168,0&#10;&#9;&#9;&#9;c-3.3-1.15-9.42-2.655-16.343-1.313c-30.379,10.229-16.574,43.361,7.98,39.536c2.652-1.198,5.296-2.709,7.896-4.614&#10;&#9;&#9;&#9;C134.645,272.588,137.117,272.588,138.933,273.919z"/>
		<path style="fill:#DBD8F1;" d="M96.023,254.416c0,0-5.517,11.512-13.792,16.957c-2.124,1.398-1.85,4.601,0.477,5.624&#10;&#9;&#9;&#9;c8.775,3.855,25.673,9.014,42.226,1.536c-3.656-12.568-6.362-25.809-7.98-39.536C110.114,240.323,102.489,244.429,96.023,254.416z&#10;&#9;&#9;&#9;"/>
		<path style="fill:#ECEAF5;" d="M263.439,207.058h-10.683c-20.789,0-37.65-16.847-37.65-37.65h-15.06&#10;&#9;&#9;&#9;c-20.793,0-37.65-16.857-37.65-37.65V98.365C216.375,109.609,256.464,154.126,263.439,207.058z"/>
		<path style="fill:#DBD8F1;" d="M109.687,98.365v33.393c0,20.793-16.857,37.65-37.65,37.65h-15.06&#10;&#9;&#9;&#9;c0,20.79-16.847,37.65-37.65,37.65H8.645C15.853,152.882,56.816,109.379,109.687,98.365z"/>
		<path style="fill:none;stroke:#000000;stroke-width:15;stroke-linecap:round;stroke-linejoin:round;stroke-miterlimit:10;" d="&#10;&#9;&#9;&#9;M109.687,98.365v33.393c0,20.793-16.857,37.65-37.65,37.65h-15.06c0,20.79-16.847,37.65-37.65,37.65H8.645"/>
		<path style="fill:none;stroke:#000000;stroke-width:15;stroke-linecap:round;stroke-linejoin:round;stroke-miterlimit:10;" d="&#10;&#9;&#9;&#9;M162.397,98.365v33.393c0,20.793,16.857,37.65,37.65,37.65h15.06c0,20.79,16.847,37.65,37.65,37.65h10.683"/>
		<path style="fill:none;stroke:#000000;stroke-width:15;stroke-linecap:round;stroke-linejoin:round;stroke-miterlimit:10;" d="&#10;&#9;&#9;&#9;M176.754,346.132c2.39,26.087-18.208,49.176-44.999,49.176c-27.789,0-48.935-24.831-44.628-52.228"/>
		<path style="fill:none;stroke:#000000;stroke-width:15;stroke-linecap:round;stroke-linejoin:round;stroke-miterlimit:10;" d="&#10;&#9;&#9;&#9;M135.881,241.364c0,0,23.594-12.068,39.859,13.052c0,0,8.132,16.968,19.458,19.447c0,0-32.75,20.612-59.316-2.379"/>
		<path style="fill:none;stroke:#000000;stroke-width:15;stroke-linecap:round;stroke-linejoin:round;stroke-miterlimit:10;" d="&#10;&#9;&#9;&#9;M135.881,241.364c0,0-23.594-12.068-39.859,13.052c0,0-8.132,16.968-19.457,19.447c0,0,32.75,20.612,59.316-2.379"/>
		<path style="fill:none;stroke:#000000;stroke-width:15;stroke-linecap:round;stroke-linejoin:round;stroke-miterlimit:10;" d="&#10;&#9;&#9;&#9;M328.007,243.463c0-7.63-6.185-13.815-13.815-13.815c-7.64,0-13.825,6.185-13.825,13.815"/>
		<path style="fill:none;stroke:#000000;stroke-width:15;stroke-linecap:round;stroke-linejoin:round;stroke-miterlimit:10;" d="&#10;&#9;&#9;&#9;M423.909,243.463c0-7.63,6.185-13.815,13.815-13.815c7.63,0,13.825,6.185,13.825,13.815"/>
		<path style="fill:none;stroke:#000000;stroke-width:15;stroke-linecap:round;stroke-linejoin:round;stroke-miterlimit:10;" d="&#10;&#9;&#9;&#9;M361.299,259.617c7.765,8.924,21.567,8.907,29.317,0"/>
		<path style="fill:none;stroke:#000000;stroke-width:15;stroke-linecap:round;stroke-linejoin:round;stroke-miterlimit:10;" d="&#10;&#9;&#9;&#9;M260.468,191.837c2.319,0.11,4.659,0.161,7.008,0.161c50.933,0,94.035-24.427,108.482-58.081&#10;&#9;&#9;&#9;c14.438,33.654,57.549,58.081,108.482,58.081c5.351,0,10.622-0.271,15.773-0.793"/>
		
			<line style="fill:none;stroke:#000000;stroke-width:15;stroke-linecap:round;stroke-linejoin:round;stroke-miterlimit:10;" x1="247.436" y1="455.547" x2="142.508" y2="455.547"/>
		<path style="fill:none;stroke:#000000;stroke-width:15;stroke-linecap:round;stroke-linejoin:round;stroke-miterlimit:10;" d="&#10;&#9;&#9;&#9;M41.616,368.33v0.01C20.452,391.261,7.5,421.893,7.5,455.547c6.974,0,83.731,0,99.868,0"/>
		
			<line style="fill:none;stroke:#000000;stroke-width:15;stroke-linecap:round;stroke-linejoin:round;stroke-miterlimit:10;" x1="319.874" y1="339.867" x2="192.135" y2="339.867"/>
		<path style="fill:none;stroke:#000000;stroke-width:15;stroke-linecap:round;stroke-linejoin:round;stroke-miterlimit:10;" d="&#10;&#9;&#9;&#9;M470.384,368.33v0.01c21.164,22.921,34.116,53.553,34.116,87.207c-8.373,0-255.019,0-257.064,0&#10;&#9;&#9;&#9;c0-50.873,29.548-94.848,72.439-115.681"/>
		<path style="fill:none;stroke:#000000;stroke-width:15;stroke-linecap:round;stroke-linejoin:round;stroke-miterlimit:10;" d="&#10;&#9;&#9;&#9;M463.356,318.441h7.148c9.317,0,16.857,7.55,16.857,16.857v8.855c0,14.178-11.487,25.702-25.712,25.702&#10;&#9;&#9;&#9;c-14.197,0-25.702-11.506-25.702-25.702v-6.265v-0.01"/>
		<path style="fill:none;stroke:#000000;stroke-width:15;stroke-linecap:round;stroke-linejoin:round;stroke-miterlimit:10;" d="&#10;&#9;&#9;&#9;M76.053,337.879c0,0.137,0,6.378,0,6.275c0,7.108-2.881,13.524-7.53,18.172c-7.192,7.208-17.743,9.316-26.907,6.014&#10;&#9;&#9;&#9;c-9.899-3.574-16.978-13.052-16.978-24.186v-8.855c0-9.307,7.54-16.857,16.857-16.857h7.148"/>
		<path style="fill:none;stroke:#000000;stroke-width:15;stroke-linecap:round;stroke-linejoin:round;stroke-miterlimit:10;" d="&#10;&#9;&#9;&#9;M413.457,101.216c0.442-2.299,0.673-4.679,0.673-7.108c0-20.793-16.857-37.65-37.65-37.65s-37.65,16.857-37.65,37.65&#10;&#9;&#9;&#9;c0,2.329,0.211,4.598,0.622,6.807"/>
		
			<line style="fill:none;stroke:#000000;stroke-width:15;stroke-linecap:round;stroke-linejoin:round;stroke-miterlimit:10;" x1="73.342" y1="214.588" x2="73.342" y2="226.636"/>
		
			<line style="fill:none;stroke:#000000;stroke-width:15;stroke-linecap:round;stroke-linejoin:round;stroke-miterlimit:10;" x1="198.742" y1="214.588" x2="198.742" y2="226.636"/>
		<path style="fill:none;stroke:#000000;stroke-width:15;stroke-linecap:round;stroke-linejoin:round;stroke-miterlimit:10;" d="&#10;&#9;&#9;&#9;M469.902,136.476c14.237,15.241,24.819,33.945,30.311,54.728h0.01c11.92,45.097-1.256,94.184-36.867,127.237&#10;&#9;&#9;&#9;c-0.01,0-0.01,0-0.01,0c-23.519,21.823-54.453,34.277-87.388,34.277c-54.407,0-101.295-33.881-119.958-82.288"/>
		<path style="fill:none;stroke:#000000;stroke-width:15;stroke-linecap:round;stroke-linejoin:round;stroke-miterlimit:10;" d="&#10;&#9;&#9;&#9;M256,177.952c18.827-48.831,65.981-82.298,119.958-82.298c23.685,0,46.687,6.446,66.766,18.684"/>
		
			<line style="fill:none;stroke:#000000;stroke-width:15;stroke-linecap:round;stroke-linejoin:round;stroke-miterlimit:10;" x1="67.75" y1="425.427" x2="67.75" y2="455.547"/>
		
			<line style="fill:none;stroke:#000000;stroke-width:15;stroke-linecap:round;stroke-linejoin:round;stroke-miterlimit:10;" x1="308.71" y1="425.427" x2="308.71" y2="455.547"/>
		
			<line style="fill:none;stroke:#000000;stroke-width:15;stroke-linecap:round;stroke-linejoin:round;stroke-miterlimit:10;" x1="444.25" y1="425.427" x2="444.25" y2="455.547"/>
		<path style="fill:none;stroke:#000000;stroke-width:15;stroke-linecap:round;stroke-linejoin:round;stroke-miterlimit:10;" d="&#10;&#9;&#9;&#9;M375.958,374.525c0,16.456-21.656,22.48-30.15,8.383l-25.933-43.041"/>
		<path style="fill:none;stroke:#000000;stroke-width:15;stroke-linecap:round;stroke-linejoin:round;stroke-miterlimit:10;" d="&#10;&#9;&#9;&#9;M375.958,352.718v21.807c0,16.456,21.656,22.48,30.15,8.383c5.694-9.454-14.038,23.307,25.923-43.041"/>
		
			<line style="fill:none;stroke:#000000;stroke-width:15;stroke-linecap:round;stroke-linejoin:round;stroke-miterlimit:10;" x1="376.48" y1="417.897" x2="376.48" y2="425.427"/>
		<path style="fill:none;stroke:#000000;stroke-width:15;stroke-linecap:round;stroke-linejoin:round;stroke-miterlimit:10;" d="&#10;&#9;&#9;&#9;M7.51,224.186c0,37.238,15.833,70.772,41.134,94.255c0.01,0,0.01,0,0.01,0c39.52,36.669,96.903,44.096,143.471,21.425h0.01&#10;&#9;&#9;&#9;c49.452-24.027,78.777-77.208,71.304-132.809c-1.263-9.584-3.723-19.515-7.44-29.106c-18.829-48.849-66.02-82.298-119.958-82.298&#10;&#9;&#9;&#9;c-9.036,0-17.851,0.934-26.355,2.711C51.06,110.578,7.51,162.517,7.51,224.186z"/>
	</g>
</g>















</svg>
