<svg id="Layer_1" enable-background="new 0 0 512 512" viewBox="0 0 512 512" xmlns="http://www.w3.org/2000/svg"><g><path d="m352.3 84.3h-6.8v-6.8c0-7.5-6.1-13.6-13.6-13.6s-13.6 6.1-13.6 13.6v6.8h-6.8c-7.5 0-13.6 6.1-13.6 13.6s6.1 13.6 13.6 13.6h6.8v6.8c0 7.5 6.1 13.6 13.6 13.6s13.6-6.1 13.6-13.6v-6.8h6.8c17.9-.4 18-26.7 0-27.2zm0 16.9h-12c-2.9 0-5.2 2.3-5.2 5.2v12c0 4.2-6.5 4.2-6.5 0v-12c0-2.9-2.3-5.2-5.2-5.2h-12c-4.2 0-4.3-6.5 0-6.5h12c2.9 0 5.2-2.3 5.2-5.2v-12c0-4.3 6.5-4.3 6.5 0v12c0 2.9 2.3 5.2 5.2 5.2h12c4.2 0 4.2 6.5 0 6.5z" fill="#231f20"/><path d="m285.8 383.5h-14.1v-14.1c0-10.4-8.5-18.8-18.8-18.8-10.4 0-18.8 8.5-18.8 18.8v14.1h-14.2c-10.4 0-18.8 8.5-18.8 18.8 0 10.4 8.5 18.8 18.8 18.8h14.2v14.2c0 10.4 8.4 18.8 18.8 18.8s18.8-8.4 18.8-18.8v-14.2h14.1c24.9-.6 24.8-36.9 0-37.6zm0 27.2h-19.3c-2.9 0-5.2 2.3-5.2 5.2v19.4c-.2 11-16.7 11.1-16.9 0v-19.4c0-2.9-2.3-5.2-5.2-5.2h-19.4c-4.7 0-8.5-3.8-8.5-8.4 0-4.7 3.8-8.5 8.5-8.5 29-.3 24.2 4.4 24.5-24.5 0-4.7 3.7-8.5 8.4-8.5s8.5 3.8 8.5 8.5v19.3c0 2.9 2.3 5.2 5.2 5.2h19.3c11.2.3 11.2 16.7.1 16.9z" fill="#231f20"/><path d="m209.2 157.2c10.4-14.6-1.2-36.3-19.2-35.9-18-.5-29.7 21.3-19.1 35.9-6.5 5.2-10.5 13.2-10.5 21.7v19.5c0 2.9 2.3 5.2 5.2 5.2h49c2.9 0 5.2-2.3 5.2-5.2v-19.5c0-8.5-4.1-16.5-10.6-21.7zm-19.2-25.5c20.9 1.4 13.7 32.1-5.7 24.1-11.9-5.8-7.6-24.2 5.7-24.1zm19.4 61.5h-38.7v-14.3c0-5.9 3-11.3 7.7-14.5.1 0 .1.1.2.1 7 4 15.9 4.1 22.9 0 .1 0 .2-.1.2-.1 4.7 3.2 7.7 8.6 7.7 14.5z" fill="#231f20"/><path d="m432.6 207.2h-10.8s32.4-101.1 32.4-101.1c2.4-7.6-1.8-15.8-9.4-18.2l-43.8-14.1v-22.7c0-8-6.5-14.5-14.5-14.5h-101.6l-94.5-30.3c-3.7-1.2-7.6-.9-11.1.9s-6.1 4.8-7.2 8.6l-6.7 20.9h-12.1c-1.4.1-2.6.5-3.6 1.5 0 0 0 0-.1 0-9.1 9.1-34 34-43.4 43.5-.9 1-1.4 2.4-1.5 3.7v16.3l-36.4 6.8c-3.7.7-6.9 2.8-9 5.8-2.1 3.2-2.9 7-2.2 10.6l15.6 83.5c-9.2 2.8-15.8 11.3-15.8 21.4v254.2c0 12.4 10.1 22.5 22.5 22.5h353.3c12.4 0 22.5-10.1 22.5-22.5v-254.3c0-12.4-10.1-22.5-22.6-22.5zm-31.6-122.5 40.7 13c2.2.7 3.3 3 2.6 5.2-.9 2.6-42.4 132.4-43.4 135.3v-153.5zm-219-65.9c.7-2.1 3.1-3.4 5.2-2.7 0 0 63.8 20.4 63.8 20.4h-74.6zm-33.9 35.5v21.6c0 2.3-1.9 4.2-4.2 4.2h-21.6zm-33 36.2h28.9c8 0 14.5-6.5 14.5-14.5v-29h228c2.3 0 4.1 1.9 4.1 4.2v244.7h-124.9c-4.2 0-8.1-2.3-10.4-5.9l-22.9-37.7c-4.2-6.8-11.3-10.8-19.3-10.8h-98.1v-151zm-47.8 32.4c-.4-2 .9-4 2.9-4.4 0 0 34.5-6.4 34.5-6.4v129.3h-15.3l-.2-.8zm-.1 106.8c0-5 3-9.3 7.3-11.2l4.3 22.8c-4.1.2-8.1 1.3-11.6 3.6zm377.6 254.2c0 6.7-5.4 12.1-12.1 12.1h-353.3c-6.7 0-12.1-5.4-12.1-12.1v-220c0-6.7 5.4-12.1 12.1-12.1h133.8c4.3 0 8.1 2.2 10.4 5.9l23 37.7c4.1 6.7 11.5 10.8 19.2 10.8h166.9c6.7 0 12.1 5.4 12.1 12.1zm0-184.5c-3.6-2.3-7.8-3.5-12.1-3.6h-31.7v-23.6l.5-1.5 17.1-53.2h14.1c6.7 0 12.1 5.4 12.1 12.1z" fill="#231f20"/><path d="m444.8 229.7v69.7c-3.6-2.3-7.8-3.5-12.1-3.6h-31.7v-23.6l.5-1.5 17.1-53.2h14.1c6.6.1 12.1 5.5 12.1 12.2z" fill="#6a88c8"/><path d="m78.8 241.4c-4.1.2-8.1 1.3-11.6 3.6v-15.3c0-5 3-9.3 7.3-11.2z" fill="#6a88c8"/><path d="m432.6 306.2h-166.9c-7.7 0-15.1-4.2-19.2-10.8l-23-37.7c-2.2-3.7-6.1-5.9-10.4-5.9h-133.7c-6.7 0-12.1 5.4-12.1 12.1v220c0 6.7 5.4 12.1 12.1 12.1h353.3c6.7 0 12.1-5.4 12.1-12.1v-165.5c0-6.7-5.5-12.2-12.2-12.2zm-146.8 114.9h-14.1v14.2c0 10.4-8.5 18.8-18.8 18.8-10.4 0-18.8-8.4-18.8-18.8v-14.2h-14.2c-10.4 0-18.8-8.4-18.8-18.8s8.5-18.8 18.8-18.8h14.2v-14.1c0-10.4 8.4-18.8 18.8-18.8s18.8 8.5 18.8 18.8v14.1h14.1c24.8.7 24.8 37 0 37.6z" fill="#66aff1"/><path d="m294.2 402.3c0 4.6-3.8 8.4-8.5 8.4-29.1.3-24.1-4.3-24.5 24.5 0 4.6-3.8 8.4-8.5 8.4s-8.4-3.8-8.4-8.4c-.4-29.2 4.4-24.1-24.5-24.5-4.7 0-8.5-3.8-8.5-8.4 0-4.7 3.8-8.5 8.5-8.5 29-.3 24.2 4.4 24.5-24.5 0-4.7 3.7-8.5 8.4-8.5s8.5 3.8 8.5 8.5c.3 29-4.4 24.1 24.5 24.5 4.8.1 8.5 3.9 8.5 8.5z" fill="#f44a7e"/><path d="m250.9 36.6h-74.6l5.7-17.7c.7-2.1 3.1-3.4 5.2-2.7-.1-.1 63.7 20.4 63.7 20.4z" fill="#eaeffe"/><path d="m104.7 112.1v129.3h-15.3l-.2-.8-22-117.6c-.2-1 0-2 .6-2.9.6-.8 1.4-1.3 2.3-1.5z" fill="#eaeffe"/><path d="m444.4 103-43 134.2-.4 1.1v-153.6l40.7 13c2.2.8 3.4 3.1 2.7 5.3z" fill="#eaeffe"/><path d="m386.5 47h-228v29c0 8-6.5 14.5-14.5 14.5h-28.9v151h98.1c7.9 0 15.1 4 19.3 10.8l22.9 37.7c2.2 3.6 6.2 5.9 10.4 5.9h124.9v-244.8c-.1-2.3-1.9-4.1-4.2-4.1zm-137.2 160c0 8.1-6.6 14.7-14.7 14.7h-89c-8.1 0-14.7-6.6-14.7-14.7v-89c0-8.1 6.6-14.7 14.7-14.7h89c8.1 0 14.7 6.6 14.7 14.7zm18.6-85.7h25.4c6.8 0 6.8 10.4 0 10.4h-25.4c-6.8-.1-6.8-10.2 0-10.4zm92.8 137.3h-92.8c-6.8-.1-6.8-10.3 0-10.4h92.8c6.8 0 6.8 10.4 0 10.4zm0-32.3h-92.8c-6.8-.1-6.8-10.2 0-10.4h92.8c6.8 0 6.8 10.4 0 10.4zm0-32.3h-92.8c-6.8-.1-6.8-10.2 0-10.4h92.8c6.8.1 6.8 10.4 0 10.4zm0-30.6h-92.8c-6.8-.1-6.8-10.3 0-10.4h92.8c6.8 0 6.8 10.3 0 10.4zm-8.4-51.8h-6.8v6.8c0 7.5-6.1 13.6-13.6 13.6s-13.6-6.1-13.6-13.6v-6.8h-6.8c-7.5 0-13.6-6.1-13.6-13.6s6.1-13.6 13.6-13.6h6.8v-6.8c0-7.5 6.1-13.6 13.6-13.6s13.6 6.1 13.6 13.6v6.8h6.8c18 .4 17.9 26.7 0 27.2z" fill="#eaeffe"/><path d="m355.5 97.9c0 1.8-1.5 3.3-3.2 3.3h-12c-2.9 0-5.2 2.3-5.2 5.2v12c0 4.2-6.5 4.2-6.5 0v-12c0-2.9-2.3-5.2-5.2-5.2h-12c-4.2 0-4.3-6.5 0-6.5h12c2.9 0 5.2-2.3 5.2-5.2v-12c0-4.3 6.5-4.3 6.5 0v12c0 2.9 2.3 5.2 5.2 5.2h12c1.8 0 3.2 1.5 3.2 3.2z" fill="#f44a7e"/><path d="m234.6 103.2h-89c-8.1 0-14.7 6.6-14.7 14.7v89c0 8.1 6.6 14.7 14.7 14.7h89c8.1 0 14.7-6.6 14.7-14.7v-89c0-8.1-6.6-14.7-14.7-14.7zm4.3 103.8c0 2.4-2 4.4-4.4 4.4h-89c-2.4 0-4.4-2-4.4-4.4v-89c0-2.4 1.9-4.4 4.4-4.4h89c2.4 0 4.4 2 4.4 4.4z" fill="#231f20"/><path d="m234.6 113.6h-89c-2.4 0-4.4 2-4.4 4.4v89c0 2.4 1.9 4.4 4.4 4.4h89c2.4 0 4.4-2 4.4-4.4v-89c-.1-2.4-2-4.4-4.4-4.4zm-14.8 84.8c0 2.9-2.3 5.2-5.2 5.2h-49c-2.9 0-5.2-2.3-5.2-5.2v-19.5c0-8.6 4-16.6 10.5-21.7-10.5-14.6 1.1-36.3 19.1-35.9 18-.5 29.6 21.3 19.2 35.9 6.5 5.2 10.5 13.2 10.5 21.7v19.5z" fill="#78e7dc"/><path d="m209.4 178.9v14.3h-38.7v-14.3c0-5.9 3-11.3 7.7-14.5.1 0 .1.1.2.1 7 4 15.9 4.1 22.9 0 .1 0 .2-.1.2-.1 4.7 3.3 7.7 8.7 7.7 14.5z" fill="#f6c9af"/><path d="m202.8 144.4c-.2 16.8-25.3 16.7-25.5 0 .4-16.7 25.1-16.7 25.5 0z" fill="#f6c9af"/><g fill="#231f20"><path d="m298.5 126.5c0 2.9-2.3 5.2-5.2 5.2h-25.4c-2.9 0-5.2-2.3-5.2-5.2s2.3-5.2 5.2-5.2h25.4c2.9 0 5.2 2.4 5.2 5.2z"/><path d="m365.9 158.2c0 2.9-2.3 5.2-5.2 5.2h-92.8c-2.9 0-5.2-2.3-5.2-5.2s2.3-5.2 5.2-5.2h92.8c2.9 0 5.2 2.3 5.2 5.2z"/><path d="m365.9 188.8c0 2.9-2.3 5.2-5.2 5.2h-92.8c-2.9 0-5.2-2.3-5.2-5.2s2.3-5.2 5.2-5.2h92.8c2.9.1 5.2 2.4 5.2 5.2z"/><path d="m365.9 221.1c0 2.9-2.3 5.2-5.2 5.2h-92.8c-2.9 0-5.2-2.3-5.2-5.2s2.3-5.2 5.2-5.2h92.8c2.9 0 5.2 2.4 5.2 5.2z"/><path d="m365.9 253.5c0 2.9-2.3 5.2-5.2 5.2h-92.8c-2.9 0-5.2-2.3-5.2-5.2s2.3-5.2 5.2-5.2h92.8c2.9 0 5.2 2.2 5.2 5.2z"/></g></g></svg>