<svg enable-background="new 0 0 512 512" height="512" viewBox="0 0 512 512" width="512" xmlns="http://www.w3.org/2000/svg"><g id="_x30_7_Info_Center"><g><path d="m481.537 252.216c-7.292 114.214-101.065 205.96-215.403 210.961-22.17.97-43.568-1.259-63.927-6.219-3.524-.859-7.234-.237-10.218 1.825l-57.207 39.537c-8.364 5.78-19.778-.206-19.778-10.373v-67.987c0-3.75-1.709-7.259-4.578-9.674-53.633-45.17-85.939-114.876-79.685-191.822 9.118-112.172 101.799-201.444 214.214-206.787 134.807-6.408 245.218 105.278 236.582 240.539z" fill="#3eb655"/><path d="m134.245 434.082c2.862 2.446 4.579 5.933 4.579 9.68v51.726l-4.059 2.81c-8.326 5.776-19.775-.208-19.775-10.356v-67.962c0-1.978-.468-3.851-1.301-5.569 6.402 6.974 13.271 13.531 20.556 19.671z" opacity=".1"/><path d="m427.379 90.055c-42.151-36.375-97.885-57.451-158.614-54.589-112.404 5.36-205.085 94.658-214.191 206.802-5.204 63.747 16.028 122.447 53.964 166.42-52.455-45.17-83.991-114.173-77.798-190.202 9.107-112.196 101.788-201.442 214.192-206.802 72.958-3.487 138.787 27.633 182.447 78.371z" opacity=".1"/><path d="m307.759 347.28c0 9.198-7.5 16.651-16.651 16.651h-70.234c-9.198 0-16.651-7.452-16.651-16.651 0-4.622 1.84-8.773 4.858-11.792 3.019-3.018 7.169-4.858 11.792-4.858h.519v-123.014h-.519c-9.198 0-16.651-7.453-16.651-16.651 0-4.622 1.84-8.774 4.858-11.792 3.019-3.019 7.169-4.858 11.792-4.858h70.234c9.15 0 16.651 7.452 16.651 16.651 0 9.198-7.5 16.651-16.651 16.651h-.519v123.013h.519c9.152 0 16.653 7.453 16.653 16.65z" fill="#fff"/><path d="m289.339 118.231c0 18.396-14.953 33.3-33.348 33.3-18.443 0-33.348-14.905-33.348-33.3 0-18.443 14.905-33.348 33.348-33.348 18.396.001 33.348 14.906 33.348 33.348z" fill="#fff"/><g fill="#25294f"><path d="m137.739 502.602 57.207-39.537c1.713-1.187 3.913-1.56 6.032-1.049 21.293 5.189 43.278 7.333 65.384 6.36 116.167-5.079 212.962-99.882 220.367-215.826 8.809-138-103.917-252.591-242.021-246.072-115.578 5.493-209.797 96.447-219.158 211.565-6.073 74.76 24.403 148.115 81.524 196.228 1.733 1.453 2.724 3.529 2.724 5.689v67.988c0 14.346 16.137 22.815 27.941 14.654zm-101.811-283.716c8.939-109.919 98.909-196.766 209.278-202.011 131.889-6.289 239.55 103.224 231.135 235.008-7.069 110.714-99.504 201.244-210.437 206.094-21.12.935-42.129-1.121-62.467-6.075-4.985-1.212-10.245-.274-14.407 2.599l-57.207 39.537c-4.93 3.41-11.617-.124-11.617-6.091v-67.987c0-5.242-2.343-10.22-6.429-13.653-54.549-45.945-83.653-116.01-77.849-187.421z"/><path d="m199.021 347.281c0 12.052 9.803 21.855 21.852 21.855h70.232c12.054 0 21.857-9.803 21.857-21.855 0-10.326-7.201-19.004-17.172-21.275v-113.693c9.808-2.15 17.172-10.906 17.172-21.349 0-12.049-9.803-21.852-21.857-21.852h-70.232c-12.137 0-21.852 9.741-21.852 21.852 0 10.326 7.196 19.004 17.167 21.275v113.682c-9.746 2.102-17.167 10.747-17.167 21.36zm21.853-144.87c-6.312 0-11.444-5.135-11.444-11.447 0-6.373 5.072-11.444 11.444-11.444h70.232c6.312 0 11.45 5.133 11.45 11.444 0 6.312-5.138 11.447-11.968 11.447-2.876 0-5.204 2.33-5.204 5.204v123.015c0 2.874 2.846 5.204 5.722 5.204 6.312 0 11.45 5.135 11.45 11.447s-5.138 11.447-11.45 11.447h-70.232c-6.312 0-11.444-5.135-11.444-11.447 0-6.006 4.536-11.447 11.963-11.447 2.876 0 5.204-2.33 5.204-5.204v-123.015c-.001-2.874-2.847-5.204-5.723-5.204z"/><path d="m255.99 156.735c21.258 0 38.551-17.273 38.551-38.503 0-21.258-17.294-38.551-38.551-38.551s-38.551 17.294-38.551 38.551c-.001 21.229 17.293 38.503 38.551 38.503zm0-66.647c15.52 0 28.144 12.626 28.144 28.144 0 15.492-12.623 28.095-28.144 28.095-15.52 0-28.144-12.603-28.144-28.095 0-15.518 12.623-28.144 28.144-28.144z"/></g></g></g></svg>