<svg id="Icons" height="512" viewBox="0 0 60 60" width="512" xmlns="http://www.w3.org/2000/svg"><path d="m59 30a29.008 29.008 0 0 1 -42.56 25.64 33.559 33.559 0 0 1 -9.02 3.32 1.651 1.651 0 0 1 -1.89-2.23 36.552 36.552 0 0 0 2.18-8.17 29 29 0 1 1 51.29-18.56z" fill="#36a5f7"/><path d="m35.215 44.405 1.1.367a1 1 0 0 1 .684.949v1.279a1 1 0 0 1 -1 1h-11.999a1 1 0 0 1 -1-1v-1.279a1 1 0 0 1 .684-.949l1.085-.362a1.8 1.8 0 0 0 1.231-1.71v-14.4a1.8 1.8 0 0 0 -1.231-1.708l-1.085-.362a1 1 0 0 1 -.684-.951v-1.279a1 1 0 0 1 1-1h9a1 1 0 0 1 1 1v18.72a1.776 1.776 0 0 0 1.215 1.685z" fill="#fff"/><circle cx="30" cy="14" fill="#fff" r="4"/><g fill="#262626"><path d="m30 0a29.784 29.784 0 0 0 -17.587 5.691 1 1 0 1 0 1.174 1.62 28 28 0 1 1 16.413 50.689 27.63 27.63 0 0 1 -13.091-3.243 1 1 0 0 0 -.962.013 32.528 32.528 0 0 1 -8.747 3.212.628.628 0 0 1 -.636-.209.646.646 0 0 1 -.109-.674 37.4 37.4 0 0 0 2.245-8.394 1 1 0 0 0 -.22-.786 28.043 28.043 0 0 1 -6.48-17.919 27.755 27.755 0 0 1 8.687-20.276 1 1 0 0 0 -1.379-1.448 29.736 29.736 0 0 0 -9.308 21.724 30.053 30.053 0 0 0 6.653 18.848 35.332 35.332 0 0 1 -2.053 7.51 2.651 2.651 0 0 0 3.035 3.578 35.243 35.243 0 0 0 8.818-3.163 30 30 0 1 0 13.547-56.773z"/><path d="m24.452 43.462-1.084.361a2 2 0 0 0 -1.368 1.898v1.279a2 2 0 0 0 2 2h12a2 2 0 0 0 2-2v-1.279a2 2 0 0 0 -1.367-1.9l-1.1-.367a.777.777 0 0 1 -.533-.734v-18.72a2 2 0 0 0 -2-2h-9a2 2 0 0 0 -2 2v1.279a2 2 0 0 0 1.367 1.9l1.085.362a.8.8 0 0 1 .548.759v14.4a.8.8 0 0 1 -.548.762zm.633-17.82-1.085-.363v-1.279h9v18.72a2.775 2.775 0 0 0 1.9 2.634l1.1.367v1.279h-12v-1.279l1.085-.363a2.8 2.8 0 0 0 1.915-2.658v-14.4a2.8 2.8 0 0 0 -1.915-2.658z"/><path d="m35 14a5 5 0 1 0 -5 5 5.006 5.006 0 0 0 5-5zm-8 0a3 3 0 1 1 3 3 3 3 0 0 1 -3-3z"/></g></svg>