<svg xmlns="http://www.w3.org/2000/svg" version="1.1" xmlns:xlink="http://www.w3.org/1999/xlink" width="512" height="512" x="0" y="0" viewBox="0 0 64 64" style="enable-background:new 0 0 512 512" xml:space="preserve" class=""><g transform="matrix(-1,2.4492935982947064e-16,2.4492935982947064e-16,1,63.999999999999986,-1.4210854715202004e-14)"><path fill="#838f9b" d="m40.87 58.14-3.86-19.32c-.31.12-.65.18-1.01.18-.83 0-1.58-.34-2.12-.88S33 36.83 33 36v-1H23v1l-4.87 22.14c-.48 1.58.42 3.26 2.01 3.73.28.09.57.13.86.13 1.31 0 2.5-.88 2.87-2.14l5.95-20.83c.91.79 1.55 1.86 1.79 3.07l3.52 17.76A3.012 3.012 0 0 0 38 62c.29 0 .58-.04.86-.13a2.988 2.988 0 0 0 2.01-3.73z" opacity="1" data-original="#838f9b" class=""></path><g fill="#5cd6b3"><path d="M33 29v6H5l-3-2v-2l3-2h17.98zM17 35v8h-4v-4H9v4H5v-8zM52 22c5.52 0 10 4.48 10 10s-4.48 10-10 10c-4.48 0-8.27-2.94-9.54-7H39v-6h3.46c1.27-4.06 5.06-7 9.54-7zm6 10c0-1.66-1.34-3-3-3s-3 1.34-3 3 1.34 3 3 3 3-1.34 3-3z" fill="#5cd6b3" opacity="1" data-original="#5cd6b3"></path></g><path fill="#fcd770" d="M24.87 18.85a7.953 7.953 0 0 0-1.88 5.14v.62C16.82 22.08 13 16.41 13 11c0-1.65 1.35-3 3-3s3 1.35 3 3c0 2.98 2.32 6.19 5.87 7.85z" opacity="1" data-original="#fcd770" class=""></path><path fill="#fcd770" d="M33.88 38.12c-.54-.54-.88-1.29-.88-2.12v-7H22.98l.01-4.39v-.62c0-1.96.71-3.75 1.88-5.14A8.002 8.002 0 0 1 30.99 16c2.21 0 4.22.9 5.67 2.34A8.038 8.038 0 0 1 39 24.01V36c0 1.3-.83 2.41-1.99 2.82-.31.12-.65.18-1.01.18-.83 0-1.58-.34-2.12-.88z" opacity="1" data-original="#fcd770" class=""></path><circle cx="30" cy="9" r="7" fill="#f0d0b4" opacity="1" data-original="#f0d0b4" class=""></circle><path d="M55 28c-2.206 0-4 1.794-4 4s1.794 4 4 4 4-1.794 4-4-1.794-4-4-4zm0 6c-1.103 0-2-.897-2-2s.897-2 2-2 2 .897 2 2-.897 2-2 2z" fill="#000000" opacity="1" data-original="#000000" class=""></path><path d="M52 21a10.951 10.951 0 0 0-10.249 7H40v-3.994c0-3.76-2.318-6.986-5.599-8.332A7.996 7.996 0 0 0 38 9c0-4.411-3.589-8-8-8s-8 3.589-8 8c0 3.166 1.854 5.901 4.529 7.196-.679.39-1.305.86-1.858 1.407C21.897 16.074 20 13.448 20 11c0-2.206-1.794-4-4-4s-4 1.794-4 4c0 5.884 3.99 11.529 9.985 14.256L21.981 28H4.697L1 30.465v3.07l3 2V44h6v-4h2v4h6v-8h3.976l-4.808 21.853A4.004 4.004 0 0 0 21 63a4.031 4.031 0 0 0 3.836-2.864l5.41-18.964c.176.351.308.728.385 1.124l3.536 17.854A4.03 4.03 0 0 0 38 63c.39 0 .777-.057 1.15-.169 2.11-.632 3.313-2.866 2.704-4.888L38.14 39.368A3.994 3.994 0 0 0 40 36h1.751c1.638 4.216 5.668 7 10.249 7 6.065 0 11-4.935 11-11s-4.935-11-11-11zM24 9c0-3.309 2.691-6 6-6s6 2.691 6 6-2.691 6-6 6-6-2.691-6-6zm-10 2c0-1.103.897-2 2-2s2 .897 2 2c0 3.11 2.129 6.283 5.395 8.194a8.93 8.93 0 0 0-1.357 3.864C17.245 20.549 14 15.772 14 11zm9.987 12.995C23.993 20.138 27.136 17 30.993 17 34.856 17 38 20.143 38 24.006V36c0 1.103-.897 2-2 2s-2-.897-2-2V25.141a4.987 4.987 0 0 0-2.227-4.16l-1.219-.812-1.109 1.664 1.219.812A2.99 2.99 0 0 1 32 25.141V28h-8.019zM3 31.535 5.303 30H32v4H5.303L3 32.465zM16 42h-2v-4H8v4H6v-6h10zm23.916 16.426a2.002 2.002 0 0 1-1.341 2.489c-1.033.31-2.188-.336-2.468-1.248l-3.513-17.76a6.448 6.448 0 0 0-4.278-4.857l-.633 1.897c.35.117.678.279.982.474l-5.749 20.152c-.308 1.026-1.455 1.652-2.492 1.341-1.055-.316-1.655-1.433-1.321-2.561l4.874-22.14.004-.213H32c0 2.206 1.794 4 4 4 .076 0 .147-.018.222-.023zM52 41a8.963 8.963 0 0 1-8.587-6.3l-.22-.7H40v-4h3.193l.22-.7A8.963 8.963 0 0 1 52 23c4.963 0 9 4.038 9 9s-4.037 9-9 9z" fill="#000000" opacity="1" data-original="#000000" class=""></path></g></svg>