<svg xmlns="http://www.w3.org/2000/svg" version="1.1" xmlns:xlink="http://www.w3.org/1999/xlink" width="512" height="512" x="0" y="0" viewBox="0 0 48 48" style="enable-background:new 0 0 512 512" xml:space="preserve" class=""><g transform="matrix(1,2.465190328815662e-32,2.465190328815662e-32,-1,-2.1316282072803006e-14,48.01013565063476)"><path d="M45.5 22v-8c0-.83-.67-1.5-1.5-1.5s-1.5.67-1.5 1.5v8a2.5 2.5 0 0 1-2.5 2.5H7.62l5.44-5.44a1.499 1.499 0 0 0 0-2.12c-.58-.58-1.54-.58-2.12 0l-8 8c-.1.1-.18.21-.24.31l-.12.25c-.08.22-.1.45-.06.71l.04.18c.07.27.2.5.38.68l8 8A1.499 1.499 0 0 0 13.5 34c0-.4-.16-.78-.44-1.06L7.62 27.5H40c3.03 0 5.5-2.47 5.5-5.5z" fill="#000000" opacity="1" data-original="#000000" class=""></path></g></svg>