<svg enable-background="new 0 0 512 512" height="512" viewBox="0 0 512 512" width="512" xmlns="http://www.w3.org/2000/svg"><g id="_x36_6_Left_Arrow"><g><path d="m266.347 82.188c19.547 26.654 13.181 63.647-12.847 82.681l-57.724 42.218 249.62-.001c27.004 0 48.896 21.891 48.896 48.895 0 27.004-21.891 48.896-48.896 48.896l-249.62.001 57.724 42.217c26.078 19.072 32.259 56.211 12.847 82.681-19.297 26.372-56.422 32.145-82.738 12.846l-110.524-80.811c-34.692-25.353-55.347-65.024-55.347-106.053v-2.66c.848-40.35 20.09-77.135 52.687-101.017l113.184-82.738c26.372-19.299 63.44-13.526 82.738 12.845z" fill="#ffc809"/><path d="m66.258 371.135 110.521 80.778c31.517 23.068 75.812 16.218 98.894-15.328 23.147-31.6 15.897-75.984-15.335-98.827l-29.214-21.358h137.093c6.365 0 11.53-5.161 11.53-11.53s-5.164-11.53-11.53-11.53h-172.402c-4.992 0-9.413 3.209-10.959 7.949-1.546 4.744.128 9.946 4.158 12.888l57.715 42.192c20.882 15.288 25.992 45.217 10.336 66.595-15.542 21.261-45.455 25.861-66.678 10.336l-110.52-80.777c-31.691-23.194-50.614-59.37-50.614-96.77v-2.451c.758-36.608 18.263-70.119 47.995-91.929l113.149-82.711c21.228-15.534 51.14-10.892 66.678 10.34 15.493 21.168 10.846 51.046-10.336 66.591l-57.723 42.196c-4.031 2.942-5.705 8.144-4.158 12.888 1.546 4.74 5.967 7.949 10.959 7.949h249.574c20.597 0 37.358 16.758 37.358 37.358 0 20.243-16.247 37.355-37.358 37.355h-21.603c-6.365 0-11.53 5.161-11.53 11.53s5.164 11.53 11.53 11.53h21.603c33.604 0 60.418-27.174 60.418-60.414 0-33.313-27.105-60.417-60.418-60.417h-214.267l29.237-21.37c31.436-23.07 38.312-67.398 15.32-98.812-23.052-31.496-67.428-38.36-98.894-15.335l-113.156 82.719c-35.587 26.099-56.522 66.212-57.438 110.292v2.691c0 44.726 22.451 87.857 60.065 115.382z"/></g></g></svg>