<svg height="512" viewBox="0 0 32 32" width="512" xmlns="http://www.w3.org/2000/svg"><g id="Layer_1" data-name="Layer 1"><path d="m16 4v20.4a2 2 0 0 1 -2 2h-3v-19.09a2.252 2.252 0 0 0 -1.03-1.94l-5-3.09a1.841 1.841 0 0 0 -.97-.28h10a2.006 2.006 0 0 1 2 2z" fill="#ffce66"/><path d="m29.668 13.255-7-7a1 1 0 0 0 -1.668.745v2a1 1 0 0 1 -1 1h-3a2 2 0 0 0 -2 2v4a2 2 0 0 0 2 2h3a1 1 0 0 1 1 1v2a1 1 0 0 0 1.664.747l7-7a1.016 1.016 0 0 0 .004-1.492z" fill="#fb8890"/><path d="m11 7.31v20.47a2.011 2.011 0 0 1 -2.97 1.94l-5-3.09a2.252 2.252 0 0 1 -1.03-1.94v-20.47a2.12 2.12 0 0 1 2-2.22 1.841 1.841 0 0 1 .97.28l5 3.09a2.252 2.252 0 0 1 1.03 1.94z" fill="#ffd98c"/></g><g id="Layer_2" data-name="Layer 2"><path d="m2.5 27.482 5 3.085a2.808 2.808 0 0 0 2.879.068 3.25 3.25 0 0 0 1.621-2.86v-.375h2a3 3 0 0 0 3-3v-2.4a1 1 0 0 0 -2 0v2.4a1 1 0 0 1 -1 1h-2v-18.089a3.276 3.276 0 0 0 -1.5-2.793l-2.463-1.518h5.963a1 1 0 0 1 1 1v2a1 1 0 0 0 2 0v-2a3 3 0 0 0 -3-3h-10a.929.929 0 0 0 -.1.021 2.816 2.816 0 0 0 -1.277.344 3.25 3.25 0 0 0 -1.623 2.86v20.464a3.276 3.276 0 0 0 1.5 2.793zm.5-23.257a1.246 1.246 0 0 1 .592-1.114.845.845 0 0 1 .854.023l5 3.086a1.283 1.283 0 0 1 .554 1.091v20.464c0 .708-.694 1.554-1.446 1.091l-5-3.086a1.283 1.283 0 0 1 -.554-1.091z"/><path d="m21.185 22.822a2 2 0 0 0 2.19-.37l7-7a2.1 2.1 0 0 0 .625-1.537 1.947 1.947 0 0 0 -.638-1.389l-7.029-7.026a2 2 0 0 0 -3.333 1.5v2h-3a3 3 0 0 0 -3 3v4a3 3 0 0 0 3 3h3v2a1.976 1.976 0 0 0 1.185 1.822zm-4.185-5.822a1 1 0 0 1 -1-1v-4a1 1 0 0 1 1-1h3a2 2 0 0 0 2-2l-.043-2.04s7.026 7.027 7.043 7.04c0 0-6.952 6.953-6.994 7v-2a2 2 0 0 0 -2-2z"/></g></svg>