<?xml version="1.0" encoding="UTF-8"?>
<svg xmlns="http://www.w3.org/2000/svg" xmlns:xlink="http://www.w3.org/1999/xlink" version="1.1" id="Capa_1" x="0px" y="0px" viewBox="0 0 512 512" style="enable-background:new 0 0 512 512;" xml:space="preserve" width="512" height="512">
<g>
	<g>
		<path style="fill:#FFCE61;" d="M424.542,490.211H421.2l-12.874-2.76l-309.77,2.76c-5.722,0-10.36-4.638-10.36-10.36V78.503&#10;&#9;&#9;&#9;c0-5.722,4.638-10.36,10.36-10.36l282.099,3.967l11.764-3.967h32.122c5.722,0,10.36,4.638,10.36,10.36V479.85&#10;&#9;&#9;&#9;C434.902,485.572,430.264,490.211,424.542,490.211z"/>
		<path style="fill:#FFBF61;" d="M421.2,348.46v141.75H98.56c-5.73,0-10.36-4.64-10.36-10.36V78.5c0-5.72,4.63-10.36,10.36-10.36&#10;&#9;&#9;&#9;h293.86v243.6l15.67,11.22C416.3,328.84,421.2,338.37,421.2,348.46z"/>
		<path style="fill:#F5F8F9;" d="M453.326,449.753H421.2l-13.438-3.808l-193.764,3.808V108.601l159.122,3.604l19.3-3.604h60.906&#10;&#9;&#9;&#9;c2.861,0,5.18,2.319,5.18,5.18v330.792C458.506,447.434,456.187,449.753,453.326,449.753z"/>
		<path style="fill:#E8EDF2;" d="M421.2,348.46v101.29H214V108.6h178.42v188.681c0,9.075,4.377,17.593,11.756,22.876l3.914,2.802&#10;&#9;&#9;&#9;C416.3,328.84,421.2,338.37,421.2,348.46z"/>
		<path style="fill:#FFDE80;" d="M357.025,57.783l-15.615-3.929H63.854c-5.722,0-10.36,4.638-10.36,10.36V494.14&#10;&#9;&#9;&#9;c0,5.722,4.638,10.36,10.36,10.36H370.2l12.018-4.301c5.722,0,10.36-4.638,10.36-10.36l2.007-135.943&#10;&#9;&#9;&#9;c0-3.342-1.612-6.479-4.33-8.424l-23.434-14.444c-2.718-1.945-4.33-5.082-4.33-8.424l4.895-254.46&#10;&#9;&#9;&#9;C367.385,62.422,362.747,57.783,357.025,57.783z"/>
		<path style="fill:#FFCE61;" d="M400.2,348.46v145.68c0,5.72-4.64,10.36-10.36,10.36H370.2V348.46c0-3.34-1.61-6.48-4.33-8.42&#10;&#9;&#9;&#9;l-20.13-14.41c-2.71-1.94-4.33-5.08-4.33-8.42V53.85h19.64c5.73,0,10.36,4.64,10.36,10.36v253c0,3.34,1.62,6.48,4.33,8.42&#10;&#9;&#9;&#9;l20.13,14.41C398.59,341.98,400.2,345.12,400.2,348.46z"/>
		<g>
			<path style="fill:#FF7E7B;" d="M112.879,364.393c0,11.514,1.877,22.591,5.348,32.936c17.745,36.239,51.879,64.984,97.503,64.984&#10;&#9;&#9;&#9;&#9;c57.139,0,98.72-40.781,98.72-97.92c0-45.624-28.882-76.891-65.175-98.112c-10.345-3.472-21.423-5.346-32.938-5.346&#10;&#9;&#9;&#9;&#9;C159.199,260.934,112.879,307.254,112.879,364.393z"/>
			<path style="fill:#FF6464;" d="M319.799,364.391c0,57.141-46.32,103.461-103.461,103.461c-45.627,0-84.355-29.532-98.11-70.523&#10;&#9;&#9;&#9;&#9;c10.349,3.483,21.435,5.361,32.949,5.361c57.141,0,103.461-46.319,103.461-103.461c0-11.514-1.879-22.6-5.361-32.949&#10;&#9;&#9;&#9;&#9;C290.267,280.036,319.799,318.764,319.799,364.391z"/>
			<path style="fill:#F5F8F9;" d="M162.844,345.475h32.378c1.214,0,2.197-0.984,2.197-2.197v-32.378&#10;&#9;&#9;&#9;&#9;c0-1.214,0.984-2.197,2.197-2.197h33.442c1.214,0,2.197,0.984,2.197,2.197v32.378c0,1.214,0.984,2.197,2.197,2.197h6.296&#10;&#9;&#9;&#9;&#9;l24.17,1.647c1.214,0,2.197,0.984,2.197,2.197l0.698,30.271c0,1.214-0.984,2.197-2.197,2.197l-32.795-0.109&#10;&#9;&#9;&#9;&#9;c-1.214,0-2.197,0.984-2.197,2.197l1.099,31.06c0,1.214-0.984,2.197-2.197,2.197l-30.992,1.337c-1.214,0-2.197-0.984-2.197-2.197&#10;&#9;&#9;&#9;&#9;l-1.918-24.47v-6.294c0-1.214-0.984-2.197-2.197-2.197h-32.378c-1.214,0-2.197-0.984-2.197-2.197v-33.443&#10;&#9;&#9;&#9;&#9;C160.647,346.458,161.631,345.475,162.844,345.475z"/>
			<path style="fill:#E8EDF2;" d="M272.029,347.669v33.443c0,1.219-0.989,2.197-2.197,2.197h-32.377&#10;&#9;&#9;&#9;&#9;c-1.208,0-2.197,0.989-2.197,2.197v32.377c0,1.219-0.989,2.197-2.197,2.197h-33.443c-1.209,0-2.197-0.978-2.197-2.197v-26.082&#10;&#9;&#9;&#9;&#9;c20.007-10.009,36.322-26.324,46.33-46.331h26.082C271.04,345.472,272.029,346.461,272.029,347.669z"/>
		</g>
		<path style="fill:#F5F8F9;" d="M287.786,224.275H264.39l-48.659-12.4l-51.591,12.4h-23.392c-2.861,0-5.18-2.319-5.18-5.18V39.54&#10;&#9;&#9;&#9;c0-2.861,2.319-5.18,5.18-5.18h81.292l7.557-2.696l7.443,2.696h50.746c2.861,0,5.18,2.319,5.18,5.18v179.555&#10;&#9;&#9;&#9;C292.966,221.956,290.647,224.275,287.786,224.275z"/>
		<path style="fill:#D5DEE2;" d="M264.39,220.16v4.11H164.14v-4.11c0-13.84,5.61-26.38,14.68-35.45&#10;&#9;&#9;&#9;c9.07-9.07,21.6-14.68,35.45-14.68C241.95,170.03,264.39,192.47,264.39,220.16z"/>
		<path style="fill:#E8EDF2;" d="M224.321,178.619L224.321,178.619c-6.429,2.706-13.678,2.706-20.108,0l0,0&#10;&#9;&#9;&#9;c-12.918-5.437-21.319-18.088-21.319-32.104v-11.351c0-17.327,14.046-31.373,31.373-31.373h0&#10;&#9;&#9;&#9;c17.327,0,31.373,14.046,31.373,31.373v11.351C245.64,160.531,237.239,173.182,224.321,178.619z"/>
	</g>
	<g>
		<path style="fill:none;stroke:#000000;stroke-width:15;stroke-linecap:round;stroke-linejoin:round;stroke-miterlimit:10;" d="&#10;&#9;&#9;&#9;M373.697,68.143h50.845c5.722,0,10.36,4.638,10.36,10.36v29.047"/>
		<path style="fill:none;stroke:#000000;stroke-width:15;stroke-linecap:round;stroke-linejoin:round;stroke-miterlimit:10;" d="&#10;&#9;&#9;&#9;M434.902,451.917v27.933c0,5.722-4.638,10.36-10.36,10.36h-22.882"/>
		<path style="fill:none;stroke:#000000;stroke-width:15;stroke-linecap:round;stroke-linejoin:round;stroke-miterlimit:10;" d="&#10;&#9;&#9;&#9;M458.51,198.15v246.42c0,2.86-2.32,5.18-5.18,5.18h-50.02"/>
		<path style="fill:none;stroke:#000000;stroke-width:15;stroke-linecap:round;stroke-linejoin:round;stroke-miterlimit:10;" d="&#10;&#9;&#9;&#9;M373.7,108.6h79.63c2.86,0,5.18,2.32,5.18,5.18v49.37"/>
		<path style="fill:none;stroke:#000000;stroke-width:15;stroke-linecap:round;stroke-linejoin:round;stroke-miterlimit:10;" d="&#10;&#9;&#9;&#9;M400.2,410.75v83.39c0,5.72-4.64,10.36-10.36,10.36H63.85c-5.72,0-10.36-4.64-10.36-10.36V381.89"/>
		<path style="fill:none;stroke:#000000;stroke-width:15;stroke-linecap:round;stroke-linejoin:round;stroke-miterlimit:10;" d="&#10;&#9;&#9;&#9;M294.87,53.85h66.18c5.73,0,10.36,4.64,10.36,10.36v253c0,3.34,1.62,6.48,4.33,8.42l20.13,14.41c2.72,1.94,4.33,5.08,4.33,8.42&#10;&#9;&#9;&#9;v27.29"/>
		<path style="fill:none;stroke:#000000;stroke-width:15;stroke-linecap:round;stroke-linejoin:round;stroke-miterlimit:10;" d="&#10;&#9;&#9;&#9;M53.49,346.89V64.21c0-5.72,4.64-10.36,10.36-10.36h69.63"/>
		
			<circle style="fill:none;stroke:#000000;stroke-width:15;stroke-linecap:round;stroke-linejoin:round;stroke-miterlimit:10;" cx="216.339" cy="364.393" r="103.698"/>
		
			<polygon style="fill:none;stroke:#000000;stroke-width:15;stroke-linecap:round;stroke-linejoin:round;stroke-miterlimit:10;" points="&#10;&#9;&#9;&#9;160.519,345.431 197.377,345.431 197.377,308.573 235.302,308.573 235.302,345.431 272.159,345.431 272.159,383.355 &#10;&#9;&#9;&#9;235.302,383.355 235.302,420.213 197.377,420.213 197.377,383.355 160.519,383.355 &#9;&#9;"/>
		<path style="fill:none;stroke:#000000;stroke-width:15;stroke-linecap:round;stroke-linejoin:round;stroke-miterlimit:10;" d="&#10;&#9;&#9;&#9;M135.57,112.44v106.65c0,2.87,2.32,5.18,5.18,5.18h147.04c2.86,0,5.18-2.31,5.18-5.18V39.54c0-2.86-2.32-5.18-5.18-5.18h-58.25&#10;&#9;&#9;&#9;h-30.55h-58.24c-2.86,0-5.18,2.32-5.18,5.18v37.9"/>
		<path style="fill:none;stroke:#000000;stroke-width:15;stroke-linecap:round;stroke-linejoin:round;stroke-miterlimit:10;" d="&#10;&#9;&#9;&#9;M229.539,60.452c0,8.435-6.838,15.273-15.273,15.273h0c-8.435,0-15.273-6.838-15.273-15.273v-37.68&#10;&#9;&#9;&#9;c0-8.435,6.838-15.273,15.273-15.273h0c8.435,0,15.273,6.838,15.273,15.273V34.36"/>
		<path style="fill:none;stroke:#000000;stroke-width:15;stroke-linecap:round;stroke-linejoin:round;stroke-miterlimit:10;" d="&#10;&#9;&#9;&#9;M234.42,174.245c17.65,7.758,29.975,25.396,29.975,45.912"/>
		<path style="fill:none;stroke:#000000;stroke-width:15;stroke-linecap:round;stroke-linejoin:round;stroke-miterlimit:10;" d="&#10;&#9;&#9;&#9;M164.139,220.158c0-20.764,12.624-38.579,30.616-46.188"/>
		<path style="fill:none;stroke:#000000;stroke-width:15;stroke-linecap:round;stroke-linejoin:round;stroke-miterlimit:10;" d="&#10;&#9;&#9;&#9;M224.321,178.619L224.321,178.619c-6.429,2.706-13.678,2.706-20.108,0l0,0c-12.918-5.437-21.319-18.088-21.319-32.104v-11.351&#10;&#9;&#9;&#9;c0-17.327,14.046-31.373,31.373-31.373h0c17.327,0,31.373,14.046,31.373,31.373v11.351&#10;&#9;&#9;&#9;C245.64,160.531,237.239,173.182,224.321,178.619z"/>
		
			<line style="fill:none;stroke:#000000;stroke-width:15;stroke-linecap:round;stroke-linejoin:round;stroke-miterlimit:10;" x1="373.415" y1="187.346" x2="423.833" y2="187.346"/>
		
			<line style="fill:none;stroke:#000000;stroke-width:15;stroke-linecap:round;stroke-linejoin:round;stroke-miterlimit:10;" x1="373.415" y1="228.79" x2="423.833" y2="228.79"/>
		
			<line style="fill:none;stroke:#000000;stroke-width:15;stroke-linecap:round;stroke-linejoin:round;stroke-miterlimit:10;" x1="373.415" y1="270.235" x2="423.833" y2="270.235"/>
	</g>
</g>















</svg>
