<svg height="512" viewBox="0 0 512 512" width="512" xmlns="http://www.w3.org/2000/svg"><g id="Layer_2"><g><path d="m7.524 162.366h496.952v342.11h-496.952z" fill="#fff"/><path d="m7.524 162.366h23.309v342.11h-23.309z" fill="#cdcdc6"/><path d="m504.476 162.366h-496.952v-74.346c0-8.284 6.716-15 15-15h466.952c8.284 0 15 6.716 15 15z" fill="#e15f4f"/><path d="m45.832 73.02h-23.308c-8.284 0-15 6.716-15 15v74.345h23.309v-74.345c-.001-8.284 6.715-15 14.999-15z" fill="#ca4336"/><path d="m50.47 191.699h411.061v283.444h-411.061z" fill="#f8d250"/><path d="m50.47 191.699h23.309v283.444h-23.309z" fill="#f8ae46"/><path d="m214.894 333.421h82.212v70.861h-82.212z" fill="#68c0e0"/><path d="m378.46 150.679c-59.743 0-108.174 48.431-108.174 108.175 0 25.629 8.919 49.172 23.814 67.707l-23.814 38.411 38.165-23.661c18.869 16.036 43.307 25.717 70.01 25.717 59.743 0 108.175-48.431 108.175-108.175s-48.433-108.174-108.176-108.174z" fill="#fff"/><path d="m293.097 258.853c0-55.891 42.388-101.878 96.769-107.577-3.749-.393-7.553-.598-11.405-.598-59.743 0-108.174 48.431-108.174 108.175s48.431 108.175 108.174 108.175c3.853 0 7.657-.205 11.405-.598-54.382-5.699-96.769-51.686-96.769-107.577z" fill="#cdcdc6"/><path d="m429.611 239.01h-31.307v-31.307h-39.687v31.307h-31.307v39.687h31.307v31.307h39.687v-31.307h31.307z" fill="#68c0e0"/><path d="m190.268 125.414c-14.212 0-25.732-11.521-25.732-25.732v-52.616c0-14.211 11.521-25.732 25.732-25.732 14.211 0 25.732 11.521 25.732 25.732v52.616c0 14.211-11.521 25.732-25.732 25.732z" fill="#494a47"/><path d="m187.844 99.681v-52.616c0-10.015 5.725-18.687 14.078-22.94-3.5-1.782-7.458-2.793-11.654-2.793-14.211 0-25.732 11.521-25.732 25.732v52.616c0 14.211 11.521 25.732 25.732 25.732 4.196 0 8.154-1.011 11.654-2.793-8.353-4.25-14.078-12.922-14.078-22.938z" fill="#333331"/><path d="m67.822 125.414h-3.108c-13.353 0-24.178-10.825-24.178-24.178v-55.725c0-13.353 10.825-24.178 24.178-24.178h3.108c13.353 0 24.178 10.825 24.178 24.178v55.724c0 13.354-10.825 24.179-24.178 24.179z" fill="#494a47"/><path d="m63.844 101.236v-55.725c0-9.746 5.77-18.14 14.078-21.967-3.074-1.416-6.493-2.211-10.1-2.211h-3.108c-13.353 0-24.178 10.825-24.178 24.178v55.724c0 13.353 10.825 24.178 24.178 24.178h3.108c3.607 0 7.026-.796 10.1-2.211-8.308-3.826-14.078-12.22-14.078-21.966z" fill="#333331"/><path d="m323.286 125.414h-3.108c-13.353 0-24.178-10.825-24.178-24.178v-55.725c0-13.353 10.825-24.178 24.178-24.178h3.108c13.353 0 24.178 10.825 24.178 24.178v55.724c0 13.354-10.824 24.179-24.178 24.179z" fill="#494a47"/><path d="m319.309 101.236v-55.725c0-9.746 5.77-18.14 14.078-21.967-3.074-1.416-6.493-2.211-10.1-2.211h-3.108c-13.354 0-24.179 10.825-24.179 24.178v55.724c0 13.353 10.825 24.178 24.178 24.178h3.108c3.607 0 7.026-.796 10.1-2.211-8.307-3.826-14.077-12.22-14.077-21.966z" fill="#333331"/><path d="m447.286 125.414h-3.108c-13.353 0-24.178-10.825-24.178-24.178v-55.725c0-13.353 10.825-24.178 24.178-24.178h3.108c13.353 0 24.178 10.825 24.178 24.178v55.724c0 13.354-10.824 24.179-24.178 24.179z" fill="#494a47"/><path d="m443.309 101.236v-55.725c0-9.746 5.77-18.14 14.078-21.967-3.074-1.416-6.493-2.211-10.1-2.211h-3.108c-13.354 0-24.179 10.825-24.179 24.178v55.724c0 13.353 10.825 24.178 24.178 24.178h3.108c3.607 0 7.026-.796 10.1-2.211-8.307-3.826-14.077-12.22-14.077-21.966z" fill="#333331"/><g><path d="m489.476 68.021h-13.012v-22.51c0-16.089-13.089-29.178-29.178-29.178h-3.108c-16.089 0-29.178 13.089-29.178 29.178v22.509h-62.536v-22.509c0-16.089-13.089-29.178-29.178-29.178h-3.108c-16.089 0-29.178 13.089-29.178 29.178v22.509h-70v-22.509c0-16.089-13.089-29.178-29.178-29.178h-3.108c-16.089 0-29.178 13.089-29.178 29.178v22.509h-62.536v-22.509c0-16.089-13.089-29.178-29.178-29.178h-3.108c-16.089 0-29.178 13.089-29.178 29.178v22.509h-13.012c-11.028 0-20 8.972-20 20v74.345 342.11c0 2.761 2.239 5 5 5h496.952c2.761 0 5-2.239 5-5v-342.11-74.344c0-11.028-8.972-20-20-20zm-64.476-22.51c0-10.575 8.604-19.178 19.178-19.178h3.108c10.575 0 19.178 8.603 19.178 19.178v55.724c0 10.575-8.604 19.178-19.178 19.178h-3.108c-10.575 0-19.178-8.604-19.178-19.178zm-124 0c0-10.575 8.604-19.178 19.178-19.178h3.108c10.575 0 19.178 8.603 19.178 19.178v55.724c0 10.575-8.604 19.178-19.178 19.178h-3.108c-10.575 0-19.178-8.604-19.178-19.178zm-131.464 0c0-10.575 8.604-19.178 19.178-19.178h3.108c10.575 0 19.178 8.603 19.178 19.178v55.724c0 10.575-8.604 19.178-19.178 19.178h-3.108c-10.575 0-19.178-8.604-19.178-19.178zm-124 0c0-10.575 8.604-19.178 19.178-19.178h3.108c10.574 0 19.178 8.604 19.178 19.178v55.724c0 10.575-8.604 19.178-19.178 19.178h-3.108c-10.575 0-19.178-8.604-19.178-19.178zm-33.012 42.51c0-5.514 4.486-10 10-10h13.012v23.215c0 16.089 13.089 29.178 29.178 29.178h3.108c16.089 0 29.178-13.089 29.178-29.178v-23.215h62.536v23.215c0 16.089 13.089 29.178 29.178 29.178h3.108c16.089 0 29.178-13.089 29.178-29.178v-23.215h70v23.215c0 16.089 13.089 29.178 29.178 29.178h3.108c16.089 0 29.178-13.089 29.178-29.178v-23.215h62.536v23.215c0 16.089 13.089 29.178 29.178 29.178h3.108c16.089 0 29.178-13.089 29.178-29.178v-23.215h13.012c5.514 0 10 4.486 10 10v69.345h-70.969c-15.098-7.476-32.089-11.687-50.046-11.687-17.958 0-34.948 4.211-50.047 11.687h-315.89zm289.582 382.122v-60.861h72.212v60.861zm-82.212 0v-60.861h72.212v60.861zm-82.212 0v-60.861h72.212v60.861zm-82.212 0v-60.861h72.212v60.861zm154.424-273.444v60.861h-72.212v-60.861zm74.036 0c-11.555 17.515-18.375 38.413-18.628 60.861h-45.408v-60.861zm-17.18 171.808c1.641 1.642 4.197 1.937 6.17.714l19.186-11.895v41.955h-72.212v-60.861h60.97l-14.828 23.916c-1.223 1.974-.928 4.53.714 6.171zm117.568 3.37c27.925-1.431 53.209-13.031 72.212-31.161v58.566h-72.212zm-10 27.405h-72.212v-48.155l5.936-3.68c18.884 15.018 42.153 23.607 66.277 24.493v27.342zm-246.636-70.861h-72.212v-60.861h72.212zm10-60.861h72.212v60.861h-72.212zm-82.212 70.861h72.212v60.861h-72.212zm82.212 0h72.212v60.861h-72.212zm149.382-10h-67.17v-60.861h45.739c1.668 21.435 9.447 42.127 22.385 59.322zm-159.382-70.861h-72.212v-60.861h72.212zm256.636 151.722h72.212v60.861h-72.212zm-5.858-47.254c-24.448 0-48.162-8.71-66.772-24.527-.927-.788-2.08-1.19-3.239-1.19-.909 0-1.822.248-2.634.75l-20.049 12.43 12.583-20.296c1.118-1.803.977-4.114-.352-5.767-14.858-18.489-22.712-40.818-22.712-64.574 0-56.891 46.284-103.175 103.175-103.175s103.174 46.284 103.174 103.175-46.283 103.174-103.174 103.174zm121.016 137.448h-486.952v-332.11h299.397c-7.638 5.57-14.557 12.068-20.585 19.333h-240.866c-2.761 0-5 2.239-5 5v283.444c0 2.761 2.239 5 5 5h411.06c2.761 0 5-2.239 5-5v-145.299c15.692-19.429 25.104-44.129 25.104-70.99 0-37.555-18.392-70.889-46.635-91.488h54.477z"/><path d="m429.61 234.01h-26.307v-26.307c0-2.761-2.239-5-5-5h-39.687c-2.761 0-5 2.239-5 5v26.307h-26.306c-2.761 0-5 2.239-5 5v39.687c0 2.761 2.239 5 5 5h26.307v26.307c0 2.761 2.239 5 5 5h39.687c2.761 0 5-2.239 5-5v-26.307h26.307c2.761 0 5-2.239 5-5v-39.687c-.001-2.761-2.239-5-5.001-5zm-5 39.687h-26.307c-2.761 0-5 2.239-5 5v26.307h-29.687v-26.307c0-2.761-2.239-5-5-5h-26.306v-29.687h26.307c2.761 0 5-2.239 5-5v-26.307h29.687v26.307c0 2.761 2.239 5 5 5h26.307v29.687z"/></g></g></g></svg>