<svg id="Layer_1" enable-background="new 0 0 150 150" height="512" viewBox="0 0 150 150" width="512" xmlns="http://www.w3.org/2000/svg"><g><g><path d="m138.5539246 50.6604996h-39.2143937v-39.2144995h-48.6791038v39.2144995h-39.214469v48.6790008h39.214469v39.2145005h48.6791038v-39.2145005h39.2143937z" fill="#f05262"/></g><g><path d="m11.446 50.66h39.508v7.586h-39.508z" fill="#f58c96"/></g><g><path d="m99.34 50.66h39.508v7.586h-39.508z" fill="#f58c96"/></g><g><path d="m11.446 91.467h39.508v7.586h-39.508z" fill="#b43e4a"/></g><g><path d="m99.34 91.467h39.508v7.586h-39.508z" fill="#b43e4a"/></g><g><path d="m51.777 11.446h47.563v7.586h-47.563z" fill="#f58c96"/></g><g><path d="m51.777 130.968h47.563v7.586h-47.563z" fill="#b43e4a"/></g><g><path d="m99.3395996 139.5537109h-48.6791992c-.5522461 0-1-.4472656-1-1v-38.2138672h-38.2143555c-.5522461 0-1-.4472656-1-1v-48.6796874c0-.5527344.4477539-1 1-1h38.2143555v-38.2138672c0-.5527344.4477539-1 1-1h48.6791992c.5522461 0 1 .4472656 1 1v38.2138672h38.2143555c.5522461 0 1 .4472656 1 1v48.6796875c0 .5527344-.4477539 1-1 1h-38.2143555v38.2138672c0 .5527343-.4477539.9999999-1 .9999999zm-47.6791992-2h46.6791992v-38.2138671c0-.5527344.4477539-1 1-1h38.2143555v-46.6796875h-38.2143555c-.5522461 0-1-.4472656-1-1v-38.2138672h-46.6791992v38.2138672c0 .5527344-.4477539 1-1 1h-38.2143555v46.6796875h38.2143555c.5522461 0 1 .4472656 1 1z" fill="#231f20"/></g></g></svg>