<?xml version="1.0" encoding="UTF-8" standalone="no"?>
<!-- Created with Inkscape (http://www.inkscape.org/) -->

<svg
   version="1.1"
   id="svg5082"
   xml:space="preserve"
   width="682.66669"
   height="682.66669"
   viewBox="0 0 682.66669 682.66669"
   xmlns="http://www.w3.org/2000/svg"
   xmlns:svg="http://www.w3.org/2000/svg"><defs
     id="defs5086"><clipPath
       clipPathUnits="userSpaceOnUse"
       id="clipPath5096"><path
         d="M 0,512 H 512 V 0 H 0 Z"
         id="path5094" /></clipPath></defs><g
     id="g5088"
     transform="matrix(1.3333333,0,0,-1.3333333,0,682.66667)"><g
       id="g5090"><g
         id="g5092"
         clip-path="url(#clipPath5096)"><g
           id="g5098"
           transform="translate(35.7949,216.2295)"><path
             d="m 0,0 c -14.202,0 -25.795,-10.748 -25.795,-23.849 v -134.554 c 0,-13.102 11.593,-23.821 25.795,-23.821 h 27.581 c 14.201,0 25.794,10.719 25.794,23.821 v 15.795 102.993 15.766 C 53.375,-10.748 41.782,0 27.581,0 Z"
             style="fill:#a0e5a5;fill-opacity:1;fill-rule:evenodd;stroke:none"
             id="path5100" /></g><g
           id="g5102"
           transform="translate(301.3394,202.1924)"><path
             d="m 0,0 h -158.766 c -2.267,0 -4.535,-0.113 -6.774,-0.341 -19.106,-1.843 -35.858,-11.399 -46.629,-25.237 v -102.993 l 78.149,-35.05 c 18.539,-6.806 46.006,-7.174 111.882,-7.515 53.177,-0.056 60.121,-0.056 70.213,-0.056 24.632,0 34.298,2.296 45.892,13.753 l 97.396,89.977 c 6.179,5.7 9.298,13.243 9.298,20.786 0,7.543 -3.119,15.086 -9.298,20.814 -9.807,9.075 -24.576,10.946 -36.453,5.672 -3.118,-1.39 -6.037,-3.289 -8.617,-5.672 L 78.064,-88.871 c -5.64,-5.218 -17.206,-6.692 -29.876,-6.664 -31.266,0.085 -81.58,0.17 -112.845,0.226 -13.351,0 -24.264,10.067 -24.264,22.403 0,12.335 10.913,22.43 24.264,22.43 H 0 c 15.052,0 27.325,11.343 27.325,25.238 0,4.282 -1.162,8.337 -3.231,11.882 C 19.474,-5.416 10.403,0 0,0"
             style="fill:#ffdcd5;fill-opacity:1;fill-rule:evenodd;stroke:none"
             id="path5104" /></g><g
           id="g5106"
           transform="translate(211.6528,360.6807)"><path
             d="m 0,0 c -11.565,-21.552 -26.56,-40.183 -45.013,-51.185 -7.37,-4.423 -9.355,-4.423 -16.753,0 -4.677,2.779 -9.127,6.069 -13.351,9.784 -6.803,-18.631 -10.516,-38.765 -10.516,-59.749 0,-20.219 3.458,-39.616 9.779,-57.679 2.24,0.227 4.507,0.341 6.775,0.341 H 89.687 c 10.402,0 19.473,-5.416 24.093,-13.357 2.07,-3.545 3.232,-7.599 3.232,-11.882 0,-13.894 -12.274,-25.237 -27.325,-25.237 H 25.029 c -13.35,0 -24.264,-10.096 -24.264,-22.431 0,-12.335 10.914,-22.402 24.264,-22.402 31.266,-0.057 81.58,-0.141 112.846,-0.226 12.67,-0.029 24.235,1.446 29.876,6.664 l 68.228,63.008 c 2.58,2.383 5.5,4.283 8.618,5.672 11.622,23.338 18.17,49.682 18.17,77.529 0,96.244 -77.98,174.283 -174.186,174.283 -25.313,0 -49.35,-5.416 -71.063,-15.114 C 16.271,38.878 10.176,18.971 0,0"
             style="fill:#ffcd69;fill-opacity:1;fill-rule:evenodd;stroke:none"
             id="path5108" /></g><g
           id="g5110"
           transform="translate(300.2339,365.1328)"><path
             d="M 0,0 -0.085,-34.397"
             style="fill:none;stroke:#000000;stroke-width:20.176;stroke-linecap:round;stroke-linejoin:round;stroke-miterlimit:10;stroke-dasharray:none;stroke-opacity:1"
             id="path5112" /></g><g
           id="g5114"
           transform="translate(325.4331,188.8359)"><path
             d="m 0,0 c 16.781,2.836 29.678,17.524 29.678,35.106 0,19.567 -16.015,35.588 -35.29,35.588 h -38.919 c -19.559,0 -35.574,16.023 -35.574,35.618 0,19.566 16.015,35.587 35.574,35.587 h 74.209"
             style="fill:none;stroke:#000000;stroke-width:20.176;stroke-linecap:round;stroke-linejoin:round;stroke-miterlimit:10;stroke-dasharray:none;stroke-opacity:1"
             id="path5116" /></g><g
           id="g5118"
           transform="translate(89.1699,73.6211)"><path
             d="m 0,0 78.15,-35.05 c 18.538,-6.805 46.005,-7.174 111.881,-7.514 53.177,-0.057 60.122,-0.057 70.213,-0.057 24.632,0 34.298,2.297 45.892,13.753 32.456,30.002 64.912,59.975 97.397,89.977 12.387,11.428 12.387,30.172 0,41.6 -12.387,11.457 -32.683,11.457 -45.071,0 L 290.234,39.7 c -5.641,-5.218 -17.206,-6.692 -29.877,-6.664 -31.265,0.085 -81.579,0.17 -112.845,0.227 -13.35,0 -24.264,10.066 -24.264,22.402 0,12.335 10.914,22.431 24.264,22.431 h 64.657 c 15.052,0 27.326,11.342 27.326,25.237 0,13.867 -12.274,25.238 -27.326,25.238 H 53.404 C 31.521,128.571 12.047,118.447 0,102.993"
             style="fill:none;stroke:#000000;stroke-width:20.176;stroke-linecap:round;stroke-linejoin:round;stroke-miterlimit:10;stroke-dasharray:none;stroke-opacity:1"
             id="path5120" /></g><g
           id="g5122"
           transform="translate(89.1699,57.8262)"><path
             d="m 0,0 v 134.555 c 0,13.1 -11.593,23.848 -25.794,23.848 h -27.581 c -14.202,0 -25.795,-10.748 -25.795,-23.848 V 0 c 0,-13.102 11.593,-23.82 25.795,-23.82 h 27.581 C -11.593,-23.82 0,-13.102 0,0 Z"
             style="fill:none;stroke:#000000;stroke-width:20.176;stroke-linecap:round;stroke-linejoin:round;stroke-miterlimit:10;stroke-dasharray:none;stroke-opacity:1"
             id="path5124" /></g><g
           id="g5126"
           transform="translate(409.7056,395.1064)"><path
             d="M 0,0 0.028,-0.028"
             style="fill:none;stroke:#000000;stroke-width:20.176;stroke-linecap:round;stroke-linejoin:round;stroke-miterlimit:10;stroke-dasharray:none;stroke-opacity:1"
             id="path5128" /></g><g
           id="g5130"
           transform="translate(158.2773,481)"><path
             d="m 0,0 -65.422,-35.305 c -8.533,-4.593 -10.857,-5.728 -10.942,-16.021 -0.198,-23.225 6.576,-47.839 19.077,-71.149 9.269,-17.269 20.579,-32.781 33.93,-44.463 4.564,-3.971 9.354,-7.487 14.372,-10.493 7.908,-4.736 10.034,-4.736 17.971,0 19.785,11.826 35.857,31.788 48.273,54.956 10.913,20.332 17.489,41.685 18.822,62.245 0.198,2.977 0.283,5.955 0.254,8.904 -0.085,10.293 -2.38,11.428 -10.913,16.021 z"
             style="fill:#a0e5a5;fill-opacity:1;fill-rule:evenodd;stroke:none"
             id="path5132" /></g><g
           id="g5134"
           transform="translate(149.292,303.5693)"><path
             d="m 0,0 c -19.786,11.825 -35.886,31.816 -48.302,54.956 -12.5,23.31 -19.275,47.924 -19.076,71.148 0.085,10.293 2.409,11.428 10.941,16.022 L 8.985,177.431 74.408,142.126 C 82.94,137.532 85.236,136.397 85.321,126.104 85.548,102.88 78.745,78.266 66.244,54.956 53.829,31.816 37.756,11.825 17.971,0 10.034,-4.736 7.908,-4.736 0,0 Z"
             style="fill:none;stroke:#000000;stroke-width:20.176;stroke-linecap:round;stroke-linejoin:round;stroke-miterlimit:10;stroke-dasharray:none;stroke-opacity:1"
             id="path5136" /></g><g
           id="g5138"
           transform="translate(135.7993,201.8516)"><path
             d="m 0,0 c -6.321,18.063 -9.779,37.46 -9.779,57.679 0,19.113 3.061,37.488 8.758,54.673 m 305.938,48.405 C 326.12,131.89 338.62,96.245 338.62,57.679 338.62,29.832 332.072,3.488 320.45,-19.85 M 98.587,219.06 c 20.296,8.308 42.547,12.902 65.848,12.902 25.142,0 49.066,-5.331 70.666,-14.944"
             style="fill:none;stroke:#000000;stroke-width:20.176;stroke-linecap:round;stroke-linejoin:round;stroke-miterlimit:10;stroke-dasharray:none;stroke-opacity:1"
             id="path5140" /></g><g
           id="g5142"
           transform="translate(136.6777,392.9229)"><path
             d="M 0,0 17.178,-16.079 52.78,20.445"
             style="fill:none;stroke:#000000;stroke-width:20.176;stroke-linecap:round;stroke-linejoin:round;stroke-miterlimit:10;stroke-dasharray:none;stroke-opacity:1"
             id="path5144" /></g></g></g></g></svg>
