<svg clip-rule="evenodd" fill-rule="evenodd" height="512" image-rendering="optimizeQuality" shape-rendering="geometricPrecision" text-rendering="geometricPrecision" viewBox="0 0 4335 4335" width="512" xmlns="http://www.w3.org/2000/svg"><g id="Layer_x0020_1"><path d="m933 2207c-58 0-107-48-107-107v-122h-195c-183 0-333 149-333 333v1256c0 77-118 77-118 0v-1256c0-249 202-452 451-452h195c0-76-21-185 66-221 40-16 86-7 116 23l182 182c42 42 42 109 0 151l-182 182c-20 20-47 31-75 31zm2646 2128h-2823c-33 0-59-27-59-60v-864c0-509 414-924 923-924h142v-75c-229-138-383-390-383-677v-376c-136-296-159-520-68-663 54-87 136-122 195-137-89-677 1532-823 1428 37 250 209 60 678 22 763v376c0 287-154 539-384 677v75h143c509 0 923 415 923 924v864c0 33-26 60-59 60zm-1421-1267c186 5 275-118 296-285v-313c-179 70-394 70-573 0 0 124-6 248 6 371 31 134 132 223 271 227zm-1343 1148h561v-506c0-77 118-77 118 0v506h1347v-506c0-77 118-77 118 0v506h561v-805c0-444-361-805-805-805h-143c0 148 4 145-8 259-19 187-224 327-405 322-203-5-397-160-397-404v-177h-142c-444 0-805 361-805 805zm1029-1894 6 3c441 238 988-81 988-590 0-123 8-331-6-446-10-88-23-149-76-220-37-50-70-78-106-183-270 35-395 37-661 25-81-3-166-18-244-39l-38-11c-42 92-65 122-122 208-37 61-71 140-88 280v386c0 253 141 473 347 587zm-424-1177c50-150 160-244 191-376 9-36 51-57 86-38 0 0 141 70 488 70 216 0 304-20 505-39 74-8 48 98 150 222 30 37 56 72 76 127 39-162 48-356-79-439-19-13-29-37-25-60 129-747-1337-561-1179-21 11 37-17 75-56 76-4 0-111 4-167 93-37 60-60 174 10 385zm497 233h-180c-76 0-76-119 0-119h180c77 0 77 119 0 119zm681 0h-180c-77 0-77-119 0-119h180c76 0 76 119 0 119zm-771 249c-76 0-59-100-59-149 0-77 118-77 118 0 0 49 18 149-59 149zm681 0c-77 0-60-100-60-149 0-77 119-77 119 0 0 49 17 149-59 149zm-295 140c-50 0-150 17-150-60 0-76 100-59 150-59 76 0 76 119 0 119zm-46 415c-115 0-281-112-196-181 69-56 88 63 196 63 45 0 86-20 114-54 48-60 140 15 92 74-51 62-125 98-206 98zm-36 1778c-33 0-59-27-59-59v-154l-94 181c-21 42-83 42-105 0l-93-181v154c0 76-119 76-119 0v-397c0-61 84-81 112-28l153 296 152-296c28-53 112-33 112 28v397c0 32-26 59-59 59zm483 0h-246c-32 0-59-27-59-59v-397c0-33 27-60 59-60h246c77 0 77 119 0 119h-186v80h186c77 0 77 118 0 118h-186v80h186c77 0 77 119 0 119zm1482-333c-33 0-59-27-59-60v-1256c0-184-150-333-333-333h-195c0 75 21 185-66 221-40 16-86 7-116-23l-182-182c-41-41-41-110 0-151l182-182c65-66 182-17 182 76v122h195c249 0 451 203 451 452v1256c0 33-26 60-59 60zm-706-1862-153 153 153 154zm-2445 0v307l153-154z" fill="#333"/><path d="m1697 731s141 70 488 70c216 0 304-20 505-39 74-8 48 98 150 222 30 37 56 72 76 127 39-162 48-356-79-439-19-13-29-37-25-60 129-747-1337-561-1179-21 11 37-17 75-56 76-4 0-111 4-167 93-37 60-60 174 10 385 50-150 160-244 191-376 9-36 51-57 86-38z" fill="#c06000"/><path d="m1989 911c-81-3-166-18-244-39l-38-11c-42 92-65 122-122 208-37 61-71 140-88 280v386c0 253 141 473 347 587l6 3c441 238 988-81 988-590 0-123 8-331-6-446-10-88-23-149-76-220-37-50-70-78-106-183-270 35-395 37-661 25zm-72 348c77 0 77 119 0 119h-180c-76 0-76-119 0-119zm501 119c-77 0-77-119 0-119h180c76 0 76 119 0 119zm-650 100c0-77 118-77 118 0 0 49 18 149-59 149-76 0-59-100-59-149zm740 149c-77 0-60-100-60-149 0-77 119-77 119 0 0 49 17 149-59 149zm-445 80c0-76 100-59 150-59 76 0 76 119 0 119-50 0-150 17-150-60zm-92 294c69-56 88 63 196 63 45 0 86-20 114-54 48-60 140 15 92 74-51 62-125 98-206 98-115 0-281-112-196-181z" fill="#ff9e5c"/><path d="m2454 2470c-179 70-394 70-573 0 0 124-6 248 6 371 31 134 132 223 271 227 186 5 275-118 296-285z" fill="#ff9e5c"/><path d="m2572 2606c0 148 4 145-8 259-19 187-224 327-405 322-203-5-397-160-397-404v-177h-142c-444 0-805 361-805 805v805h561v-506c0-77 118-77 118 0v506h1347v-506c0-77 118-77 118 0v506h561v-805c0-444-361-805-805-805zm-204 838h246c77 0 77 119 0 119h-186v80h186c77 0 77 118 0 118h-186v80h186c77 0 77 119 0 119h-246c-32 0-59-27-59-59v-397c0-33 27-60 59-60zm-178 60v397c0 32-26 59-59 59s-59-27-59-59v-154l-94 181c-21 42-83 42-105 0l-93-181v154c0 76-119 76-119 0v-397c0-61 84-81 112-28l153 296 152-296c28-53 112-33 112 28z" fill="#ffa721"/><g fill="#ff3131"><path d="m3237 1918 153 154v-307z"/><path d="m1098 1918-153-153v307z"/></g></g></svg>