<svg id="No" enable-background="new 0 0 64 64" viewBox="0 0 64 64" xmlns="http://www.w3.org/2000/svg"><g><circle cx="32" cy="32" fill="#f7524b" r="31.111"/><path d="m39.82524 31.99977 7.1072-7.10709c1.08756-1.08756 1.08756-2.85098 0-3.93854l-3.88721-3.88709c-1.08779-1.08767-2.85086-1.08767-3.93866 0l-7.10697 7.10709-7.1072-7.10709c-1.08756-1.08767-2.85109-1.08767-3.93865 0l-3.88698 3.88709c-1.08756 1.08756-1.08756 2.85098 0 3.93854l7.1072 7.10709-7.1072 7.10709c-1.08756 1.08768-1.08756 2.85098 0 3.93866l3.88698 3.88697c1.08756 1.08768 2.8511 1.08768 3.93865 0l7.1072-7.10709 7.10697 7.10709c1.08779 1.08768 2.85086 1.08768 3.93866 0l3.88721-3.88697c1.08756-1.08768 1.08756-2.85098 0-3.93866z" fill="#f0f0fc"/><path d="m53.99269 53.99132c-10.3683 10.36843-26.19254 11.88517-38.16836 4.59566 23.64299-3.12388 41.08986-21.07037 29.20363-54.85301 3.25994 1.51687 6.29341 3.59957 8.96473 6.27089 12.15682 12.13417 12.15682 31.85229 0 43.98646z" opacity=".1"/><g fill="#101016"><path d="m31.99957 63.99957c-17.64473 0-31.99957-14.35571-31.99957-31.99957 0-17.64473 14.35484-31.99957 31.99957-31.99957s32.00043 14.35484 32.00043 31.99957c0 17.64386-14.35571 31.99957-32.00043 31.99957zm0-62.22138c-16.66471 0-30.22182 13.55711-30.22182 30.22181s13.55711 30.22181 30.22181 30.22181c16.66557 0 30.22268-13.55711 30.22268-30.22181s-13.5571-30.22181-30.22267-30.22181z"/><path d="m22.9233 48.63693c-.98176 0-1.90449-.38194-2.59805-1.07637l-3.8871-3.8871c-.69357-.6927-1.07637-1.6163-1.07637-2.59719s.38281-1.90449 1.07637-2.59719l6.47907-6.47908-6.47908-6.47908c-1.43227-1.43227-1.43227-3.76297 0-5.19524l3.8871-3.8871c1.38713-1.38887 3.80811-1.38713 5.19524 0l6.47908 6.47821 6.47821-6.47821c1.43401-1.43054 3.7621-1.43401 5.19611 0l3.8871 3.8871c1.43054 1.43227 1.43054 3.76297 0 5.19524l-6.47907 6.47908 6.47908 6.47908c.69444.6927 1.07637 1.61629 1.07637 2.59719 0 .98089-.38194 1.90449-1.07637 2.59719l-3.8871 3.8871c-1.43401 1.43574-3.7621 1.43227-5.19611 0l-6.47821-6.47908-6.47908 6.47908c-.6927.69444-1.61543 1.07637-2.59632 1.07637-.00087 0-.00087 0-.00087 0zm0-31.49697c-.50694 0-.98263.19704-1.34113.55555l-3.8871 3.8871c-.73957.73957-.73957 1.94181 0 2.68139l7.10754 7.10754c.34722.34722.34722.90971 0 1.25693l-7.10754 7.10754c-.3585.35763-.55555.83332-.55555 1.34026s.19705.98262.55555 1.34026l3.8871 3.8871c.717.71874 1.96525.71874 2.68052 0l7.10841-7.10754c.16667-.16666.39236-.26041.62846-.26041.23611 0 .4618.09375.62846.26041l7.10667 7.10754c.74305.74131 1.94442.73957 2.68225 0l3.8871-3.8871c.35764-.35764.55555-.83332.55555-1.34026s-.19791-.98263-.55555-1.34026l-7.10754-7.10754c-.34722-.34722-.34722-.90971 0-1.25693l7.10754-7.10754c.73784-.73957.73784-1.94181 0-2.68139l-3.8871-3.8871c-.73957-.73784-1.94268-.73697-2.68225 0l-7.10667 7.10667c-.34722.34722-.90971.34722-1.25693 0l-7.10754-7.10667c-.35762-.35851-.83418-.55555-1.34025-.55555z"/></g></g></svg>