<svg id="Layer_1" enable-background="new 0 0 512 512" height="512" viewBox="0 0 512 512" width="512" xmlns="http://www.w3.org/2000/svg"><g clip-rule="evenodd" fill-rule="evenodd"><g><g><path d="m160.791 404.917v-19.177c0-1.077.567-2 1.527-2.486.961-.487 2.04-.398 2.908.239l57.712 42.341c.714.523 1.108 1.273 1.137 2.158.028.885-.318 1.658-.997 2.226l-57.712 48.302c-.849.711-1.964.857-2.968.388s-1.607-1.417-1.607-2.525v-17.758c-90.74 0-120.501-66.71-94.139-114.151 14.584 56.786 62.2 60.443 94.139 60.443z" fill="#b9ea6a"/><path d="m218.639 422.679-49.426 41.367v-14.531c-76.169 0-111.816-44.331-109.495-87.761-11.641 44.838 20.935 96.871 101.073 96.871v17.758c0 1.108.604 2.056 1.607 2.525 1.004.469 2.118.323 2.968-.388l57.712-48.302c.679-.568 1.025-1.341.997-2.226s-.423-1.634-1.137-2.158z" fill="#a1e42c"/></g><g><path d="m347.701 142.055v19.532c0 1.004-.529 1.864-1.424 2.318-.896.453-1.902.371-2.711-.223l-58.16-42.669c-.666-.488-1.034-1.187-1.06-2.012s.296-1.546.929-2.076l58.161-48.678c.792-.663 1.831-.799 2.767-.361.936.437 1.499 1.321 1.499 2.354v18.145c90.677 0 120.418 66.664 94.073 114.073-14.574-56.748-62.157-60.403-94.074-60.403z" fill="#fc5692"/><path d="m339.907 132.747v18.825l-51.172-37.543-3.461 2.897c-.633.53-.956 1.251-.93 2.076.027.825.395 1.524 1.06 2.012l58.16 42.67c.81.594 1.816.676 2.711.223.896-.454 1.424-1.314 1.424-2.318v-19.533c28.538 0 69.601 2.922 88.393 44.106-19.413-48.806-64.152-53.415-96.185-53.415z" fill="#fb3580"/></g><g><path d="m47.596 262.614h171.35c7.89 0 14.325-6.435 14.325-14.325v-76.515c0-22.254-19.822-34.891-42.373-40.485-37.866-9.393-76.255-10.027-115.254 0-22.498 5.785-42.373 18.219-42.373 40.485v76.515c0 7.89 6.436 14.325 14.325 14.325z" fill="#80b4fb"/><path d="m203.744 262.614h15.202c7.89 0 14.325-6.435 14.325-14.325v-76.515c0-22.254-19.822-34.891-42.373-40.485-21.734-5.391-43.639-7.896-65.733-7.156 16.951.565 33.792 3.004 50.532 7.156 22.551 5.594 42.373 18.231 42.373 40.485v76.515c-.001 7.89-6.436 14.325-14.326 14.325z" fill="#61a2f9"/><path d="m133.271 8c24.853 0 45.001 14.164 45.001 46.828s-20.147 59.144-45.001 59.144c-24.853 0-45-26.48-45-59.144s20.147-46.828 45-46.828z" fill="#ffece3"/><path d="m133.271 8c24.853 0 45.001 14.164 45.001 46.828s-20.147 59.144-45.001 59.144c-2.254 0-4.469-.221-6.634-.641 21.707-4.216 38.366-28.802 38.366-58.503s-16.659-44.105-38.366-46.474c2.165-.236 4.38-.354 6.634-.354z" fill="#ffddce"/></g><g><path d="m293.054 504h171.35c7.89 0 14.325-6.435 14.325-14.325v-76.515c0-22.254-19.822-34.891-42.373-40.485-37.866-9.393-76.255-10.027-115.254 0-22.498 5.785-42.373 18.219-42.373 40.485v76.515c0 7.89 6.435 14.325 14.325 14.325z" fill="#80b4fb"/><path d="m449.202 504h15.202c7.89 0 14.325-6.435 14.325-14.325v-76.515c0-22.254-19.822-34.891-42.373-40.485-21.733-5.391-43.639-7.896-65.733-7.156 16.951.565 33.792 3.004 50.531 7.156 22.551 5.594 42.373 18.231 42.373 40.485v76.515c-.001 7.89-6.436 14.325-14.325 14.325z" fill="#61a2f9"/><path d="m378.728 249.386c24.853 0 45.001 14.164 45.001 46.828s-20.147 59.144-45.001 59.144c-24.853 0-45-26.48-45-59.144s20.148-46.828 45-46.828z" fill="#ffece3"/><path d="m378.728 249.386c24.853 0 45.001 14.164 45.001 46.828s-20.147 59.144-45.001 59.144c-2.254 0-4.469-.221-6.634-.641 21.707-4.216 38.366-28.802 38.366-58.503s-16.659-44.105-38.366-46.474c2.166-.236 4.38-.354 6.634-.354z" fill="#ffddce"/></g></g><path d="m225.287 248.286c0 3.491-2.878 6.327-6.322 6.327h-23.117v-61.959c0-4.416-3.585-7.997-8.02-7.997s-8.02 3.581-8.02 7.997v61.959h-93.082v-61.959c0-4.416-3.586-7.997-8.02-7.997-4.435 0-8.02 3.581-8.02 7.997v61.959h-23.07c-3.491 0-6.369-2.836-6.369-6.327v-76.513c0-19.329 19.814-28.472 36.374-32.737 18.117-4.657 36.563-6.987 55.151-6.987s37.365 2.336 56.189 7.006c13.587 3.359 36.327 12.082 36.327 32.718v76.513zm-129.031-193.457c0-33.784 23.212-38.828 37.035-38.828 13.776 0 36.987 5.043 36.987 38.828 0 28.203-16.607 51.141-36.987 51.141-20.429 0-37.035-22.938-37.035-51.141zm96.573 68.695c-13.163-3.269-26.325-5.458-39.441-6.586 19.249-10.054 32.883-34.1 32.883-62.11 0-33.822-20.334-54.83-52.981-54.83-32.694 0-53.028 21.008-53.028 54.83 0 27.948 13.54 51.952 32.741 62.044-13.21 1.109-26.372 3.326-39.346 6.671-31.232 8.02-48.404 25.15-48.404 48.23v76.513c0 12.313 10.049 22.325 22.362 22.325h171.35c12.313 0 22.315-10.011 22.315-22.325v-76.513c0-23.022-17.691-40.61-48.451-48.249zm277.877 366.153c0 3.487-2.831 6.322-6.322 6.322h-23.117v-61.954c0-4.421-3.538-8.001-7.973-8.001s-8.02 3.581-8.02 8.001v61.954h-93.129v-61.954c0-4.421-3.538-8.001-7.973-8.001s-8.02 3.581-8.02 8.001v61.954h-23.117c-3.491 0-6.322-2.835-6.322-6.322v-76.518c0-19.329 19.768-28.472 36.374-32.737 18.116-4.656 36.563-6.987 55.151-6.987s37.365 2.335 56.189 7.006c13.54 3.364 36.28 12.087 36.28 32.718v76.518zm-128.984-193.462c0-33.784 23.164-38.828 36.988-38.828 13.823 0 37.035 5.043 37.035 38.828 0 28.198-16.607 51.146-37.035 51.146-20.381-.001-36.988-22.948-36.988-51.146zm96.573 68.695c-13.21-3.27-26.372-5.458-39.488-6.586 19.296-10.054 32.93-34.1 32.93-62.11 0-33.817-20.334-54.825-53.028-54.825s-52.981 21.008-52.981 54.825c0 27.943 13.54 51.947 32.742 62.044-13.21 1.109-26.372 3.326-39.346 6.671-31.232 8.02-48.405 25.15-48.405 48.23v76.518c0 12.309 10.002 22.325 22.315 22.325h171.35c12.313 0 22.362-10.016 22.362-22.325v-76.518c.001-23.027-17.691-40.611-48.451-48.249zm-270.565 98.017v-6.35c0-4.421-3.585-8.001-8.02-8.001-39.912 0-71.144-14.253-85.769-39.101-7.785-13.191-10.238-28.349-7.36-42.988 8.209 16.168 20.523 28.028 36.846 35.388 18.588 8.412 38.875 9.544 56.283 9.544 4.435 0 8.02-3.581 8.02-8.001v-8.634l43.404 31.831zm61.096-43.177-64.351-47.206c-2.453-1.783-5.661-2.047-8.351-.684-2.689 1.359-4.387 4.118-4.387 7.133v16.314c-34.251-1.038-66.143-9.808-77.419-53.698-.849-3.175-3.491-5.529-6.747-5.949-3.255-.415-6.416 1.189-8.02 4.052-13.729 24.759-13.54 53.877.566 77.876 16.56 28.094 49.678 44.918 91.62 46.805v15.663c0 3.109 1.793 5.93 4.576 7.246 1.132.505 2.265.75 3.397.75 1.84 0 3.68-.632 5.142-1.863l64.351-53.854c1.887-1.58 2.925-3.934 2.878-6.392-.095-2.456-1.274-4.74-3.255-6.193zm111.858-335.808v6.355c0 4.421 3.586 7.997 8.02 7.997 39.913 0 71.145 14.252 85.77 39.101 7.784 13.191 10.238 28.354 7.36 42.989-8.209-16.163-20.569-28.028-36.846-35.383-18.588-8.412-38.875-9.549-56.283-9.549-4.435 0-8.02 3.586-8.02 8.001v8.634l-43.404-31.831zm-61.095 43.177 64.351 47.211c2.453 1.783 5.661 2.047 8.35.684s4.388-4.123 4.388-7.138v-16.309c34.251 1.033 66.143 9.808 77.419 53.698.849 3.17 3.491 5.525 6.746 5.945.33.042.66.066.991.066 2.925 0 5.614-1.552 7.03-4.114 13.729-24.764 13.54-53.877-.566-77.881-16.559-28.095-49.678-44.918-91.619-46.805v-15.659c0-3.109-1.793-5.935-4.624-7.246-2.783-1.316-6.133-.887-8.492 1.109l-64.351 53.858c-1.887 1.576-2.925 3.93-2.878 6.388.094 2.457 1.274 4.74 3.255 6.193z"/></g></svg>