<?xml version="1.0" encoding="UTF-8" standalone="no"?>
<!-- Created with Inkscape (http://www.inkscape.org/) -->

<svg
   version="1.1"
   id="svg6684"
   xml:space="preserve"
   width="682.66669"
   height="682.66669"
   viewBox="0 0 682.66669 682.66669"
   xmlns="http://www.w3.org/2000/svg"
   xmlns:svg="http://www.w3.org/2000/svg"><defs
     id="defs6688"><clipPath
       clipPathUnits="userSpaceOnUse"
       id="clipPath6698"><path
         d="M 0,512 H 512 V 0 H 0 Z"
         id="path6696" /></clipPath></defs><g
     id="g6690"
     transform="matrix(1.3333333,0,0,-1.3333333,0,682.66667)"><g
       id="g6692"><g
         id="g6694"
         clip-path="url(#clipPath6698)"><g
           id="g6700"
           transform="translate(43.998,23.9941)"><path
             d="m 0,0 v 404.454 c 0,9.109 7.385,16.493 16.494,16.493 h 333.467 c 9.109,0 16.494,-7.384 16.494,-16.493 L 366.455,0 c 0,-9.109 -7.385,-16.494 -16.494,-16.494 H 16.494 C 7.385,-16.494 0,-9.109 0,0"
             style="fill:#0e80ac;fill-opacity:1;fill-rule:nonzero;stroke:none"
             id="path6702" /></g><g
           id="g6704"
           transform="translate(393.959,444.9414)"><path
             d="m 0,0 h -19.184 v -420.947 c 0,-9.11 -7.384,-16.494 -16.494,-16.494 H 0 c 9.109,0 16.494,7.384 16.494,16.494 V -16.493 C 16.494,-7.384 9.109,0 0,0"
             style="fill:#057195;fill-opacity:1;fill-rule:nonzero;stroke:none"
             id="path6706" /></g><g
           id="g6708"
           transform="translate(79.7036,444.9414)"><path
             d="m 0,0 v -386.128 c 0,-6.009 4.871,-10.879 10.88,-10.879 h 273.285 c 6.008,0 10.879,4.87 10.879,10.879 l 0,386.128 z"
             style="fill:#f7f0f0;fill-opacity:1;fill-rule:nonzero;stroke:none"
             id="path6710" /></g><g
           id="g6712"
           transform="translate(259.8984,480.8457)"><path
             d="m 0,0 v 0 c 0,13.064 -10.591,23.654 -23.654,23.654 h -18.037 c -13.064,0 -23.654,-10.59 -23.654,-23.654 0,-6.627 -5.373,-12 -12,-12 h -14.433 c -13.202,0 -23.904,-10.702 -23.904,-23.904 v -12.558 c 0,-6.267 5.08,-11.346 11.346,-11.346 H 38.99 c 6.267,0 11.347,5.079 11.347,11.346 v 12.558 C 50.337,-22.702 39.635,-12 26.433,-12 H 12 C 5.372,-12 0,-6.627 0,0"
             style="fill:#fd7e42;fill-opacity:1;fill-rule:nonzero;stroke:none"
             id="path6714" /></g><g
           id="g6716"
           transform="translate(286.3311,468.8457)"><path
             d="m 0,0 h -14.433 c -6.628,0 -12,5.373 -12,12 0,13.063 -10.59,23.654 -23.654,23.654 H -62.294 V -0.499 c 0,-6.627 5.373,-12 12,-12 h 14.433 c 13.202,0 23.904,-10.702 23.904,-23.904 v -11.406 h 24.515 c 6.266,0 11.346,5.081 11.346,11.347 v 12.558 C 23.904,-10.702 13.202,0 0,0"
             style="fill:#fa6931;fill-opacity:1;fill-rule:nonzero;stroke:none"
             id="path6718" /></g><g
           id="g6720"
           transform="translate(127.2759,345.4316)"><path
             d="m 0,0 16.441,-14.614 c 2.826,-2.512 7.209,-1.996 9.375,1.101 l 24.596,35.178"
             style="fill:none;stroke:#000000;stroke-width:15;stroke-linecap:round;stroke-linejoin:round;stroke-miterlimit:10;stroke-dasharray:none;stroke-opacity:1"
             id="path6722" /></g><g
           id="g6724"
           transform="translate(127.2759,235.8721)"><path
             d="m 0,0 16.441,-14.615 c 2.826,-2.511 7.209,-1.996 9.375,1.101 l 24.596,35.179"
             style="fill:none;stroke:#000000;stroke-width:15;stroke-linecap:round;stroke-linejoin:round;stroke-miterlimit:10;stroke-dasharray:none;stroke-opacity:1"
             id="path6726" /></g><g
           id="g6728"
           transform="translate(127.2759,127.7832)"><path
             d="m 0,0 16.441,-14.614 c 2.826,-2.512 7.209,-1.996 9.375,1.101 l 24.596,35.178"
             style="fill:none;stroke:#000000;stroke-width:15;stroke-linecap:round;stroke-linejoin:round;stroke-miterlimit:10;stroke-dasharray:none;stroke-opacity:1"
             id="path6730" /></g><g
           id="g6732"
           transform="translate(221.1846,363.1562)"><path
             d="M 0,0 H 105.991"
             style="fill:none;stroke:#000000;stroke-width:15;stroke-linecap:round;stroke-linejoin:round;stroke-miterlimit:10;stroke-dasharray:none;stroke-opacity:1"
             id="path6734" /></g><g
           id="g6736"
           transform="translate(221.1846,329.8252)"><path
             d="M 0,0 H 105.991"
             style="fill:none;stroke:#000000;stroke-width:15;stroke-linecap:round;stroke-linejoin:round;stroke-miterlimit:10;stroke-dasharray:none;stroke-opacity:1"
             id="path6738" /></g><g
           id="g6740"
           transform="translate(221.1846,256)"><path
             d="M 0,0 H 105.991"
             style="fill:none;stroke:#000000;stroke-width:15;stroke-linecap:round;stroke-linejoin:round;stroke-miterlimit:10;stroke-dasharray:none;stroke-opacity:1"
             id="path6742" /></g><g
           id="g6744"
           transform="translate(221.1846,222.6689)"><path
             d="M 0,0 H 52.995"
             style="fill:none;stroke:#000000;stroke-width:15;stroke-linecap:round;stroke-linejoin:round;stroke-miterlimit:10;stroke-dasharray:none;stroke-opacity:1"
             id="path6746" /></g><g
           id="g6748"
           transform="translate(410.4531,367.5)"><path
             d="m 0,0 v 60.947 c 0,9.11 -7.385,16.494 -16.494,16.494 h -83.724"
             style="fill:none;stroke:#000000;stroke-width:15;stroke-linecap:round;stroke-linejoin:round;stroke-miterlimit:10;stroke-dasharray:none;stroke-opacity:1"
             id="path6750" /></g><g
           id="g6752"
           transform="translate(144.2163,444.9414)"><path
             d="m 0,0 h -83.725 c -9.108,0 -16.493,-7.385 -16.493,-16.494 v -404.453 c 0,-9.11 7.385,-16.494 16.493,-16.494 h 333.468 c 9.109,0 16.494,7.384 16.494,16.494 v 191.089"
             style="fill:none;stroke:#000000;stroke-width:15;stroke-linecap:round;stroke-linejoin:round;stroke-miterlimit:10;stroke-dasharray:none;stroke-opacity:1"
             id="path6754" /></g><g
           id="g6756"
           transform="translate(259.8984,480.8457)"><path
             d="m 0,0 v 0 c 0,13.064 -10.591,23.654 -23.654,23.654 h -18.037 c -13.064,0 -23.654,-10.59 -23.654,-23.654 0,-6.627 -5.373,-12 -12,-12 h -14.433 c -13.202,0 -23.904,-10.702 -23.904,-23.904 v -12.558 c 0,-6.267 5.08,-11.346 11.346,-11.346 H 38.99 c 6.267,0 11.347,5.079 11.347,11.346 v 12.558 C 50.337,-22.702 39.635,-12 26.433,-12 H 12 C 5.372,-12 0,-6.627 0,0 Z"
             style="fill:none;stroke:#000000;stroke-width:15;stroke-linecap:round;stroke-linejoin:round;stroke-miterlimit:10;stroke-dasharray:none;stroke-opacity:1"
             id="path6758" /></g><g
           id="g6760"
           transform="translate(79.7036,444.9414)"><path
             d="m 0,0 v -386.128 c 0,-6.009 4.871,-10.879 10.88,-10.879 h 124.206"
             style="fill:none;stroke:#000000;stroke-width:15;stroke-linecap:round;stroke-linejoin:round;stroke-miterlimit:10;stroke-dasharray:none;stroke-opacity:1"
             id="path6762" /></g><g
           id="g6764"
           transform="translate(374.748,322.8437)"><path
             d="M 0,0 V 122.098"
             style="fill:none;stroke:#000000;stroke-width:15;stroke-linecap:round;stroke-linejoin:round;stroke-miterlimit:10;stroke-dasharray:none;stroke-opacity:1"
             id="path6766" /></g><g
           id="g6768"
           transform="translate(265.3369,48.1592)"><path
             d="M 0,0 -31.135,-0.225 H 98.531 c 6.009,0 10.88,4.871 10.88,10.879 v 111.812"
             style="fill:none;stroke:#000000;stroke-width:15;stroke-linecap:round;stroke-linejoin:round;stroke-miterlimit:10;stroke-dasharray:none;stroke-opacity:1"
             id="path6770" /></g><g
           id="g6772"
           transform="translate(438.6016,296.4502)"><path
             d="m 0,0 -29.124,23.343 -10.032,-5.424 -170.156,-212.302 -27.048,-54.314 c -2.198,-4.413 -1.021,-9.76 2.825,-12.843 3.846,-3.082 9.321,-3.066 13.149,0.039 l 47.121,38.227 170.156,212.301 z"
             style="fill:#fa6931;fill-opacity:1;fill-rule:nonzero;stroke:none"
             id="path6774" /></g><g
           id="g6776"
           transform="translate(229.5239,102.3594)"><path
             d="m 0,0 -27.199,-54.616 c -2.209,-4.437 -1.026,-9.814 2.841,-12.913 3.868,-3.1 9.373,-3.083 13.222,0.039 l 47.383,38.438 z"
             style="fill:#557981;fill-opacity:1;fill-rule:nonzero;stroke:none"
             id="path6778" /></g><g
           id="g6780"
           transform="translate(459.3486,352.1758)"><path
             d="m 0,0 v 0 c -9.954,7.979 -24.491,6.377 -32.47,-3.578 l -27.433,-34.229 36.047,-28.891 27.434,34.229 C 11.556,-22.515 9.954,-7.978 0,0"
             style="fill:#ffc3ab;fill-opacity:1;fill-rule:nonzero;stroke:none"
             id="path6782" /></g><g
           id="g6784"
           transform="translate(399.4453,314.3691)"><path
             d="m 0,0 -170.156,-212.302 -27.048,-54.314 c -2.197,-4.413 -1.021,-9.76 2.825,-12.843 3.846,-3.082 9.321,-3.066 13.149,0.039 l 47.122,38.227 170.155,212.301"
             style="fill:none;stroke:#000000;stroke-width:15;stroke-linecap:round;stroke-linejoin:round;stroke-miterlimit:10;stroke-dasharray:none;stroke-opacity:1"
             id="path6786" /></g><g
           id="g6788"
           transform="translate(265.7705,73.3076)"><path
             d="M 0,0 -36.247,29.052"
             style="fill:none;stroke:#000000;stroke-width:15;stroke-linecap:round;stroke-linejoin:round;stroke-miterlimit:10;stroke-dasharray:none;stroke-opacity:1"
             id="path6790" /></g><g
           id="g6792"
           transform="translate(459.3486,352.1758)"><path
             d="m 0,0 v 0 c -9.954,7.979 -24.491,6.377 -32.47,-3.578 l -27.433,-34.229 36.047,-28.891 27.434,34.229 C 11.556,-22.515 9.954,-7.978 0,0 Z"
             style="fill:none;stroke:#000000;stroke-width:15;stroke-linecap:round;stroke-linejoin:round;stroke-miterlimit:10;stroke-dasharray:none;stroke-opacity:1"
             id="path6794" /></g></g></g></g></svg>
