<svg id="Icons" height="512" viewBox="0 0 60 60" width="512" xmlns="http://www.w3.org/2000/svg"><path d="m36.46 46.41c3.76.9 7.54 3.52 7.54 9.59v1a2.006 2.006 0 0 1 -2 2h-24a2.006 2.006 0 0 1 -2-2v-1c0-6.07 3.78-8.69 7.54-9.59z" fill="#d5dee2"/><path d="m33 59-1-5-2-1-2 1-1 5z" fill="#c44949"/><path d="m5.27 27.38a7.951 7.951 0 0 1 -3.9-1.87 1.579 1.579 0 0 1 .12-2.16c1.07-.95 2.51-3.2 2.51-8.35v-4a10 10 0 0 1 20 0v4c0 4.08.9 6.34 1.82 7.58l-1.82 5.42z" fill="#493732"/><path d="m38.12 25.51h.01a14.619 14.619 0 0 1 3.87-.51h6c4.43 0 11 2 11 10v2a2.006 2.006 0 0 1 -2 2h-19.27z" fill="#27a2dc"/><path d="m55 14v-4a9 9 0 0 0 -9-9h-2a9 9 0 0 0 -9 9v4z" fill="#242c4c"/><path d="m48 23.54v1.46c0 4-6 4-6 0v-1.46z" fill="#fcab8b"/><path d="m21.12 26.65a12.7 12.7 0 0 0 -4.12-.65h-6c-4.43 0-10 2-10 10v1a2.006 2.006 0 0 0 2 2h19.27z" fill="#dd5252"/><path d="m36.46 46.41-2.55 5.09a.914.914 0 0 1 -1.36.32l-2.55-1.82-2.55 1.82a.914.914 0 0 1 -1.36-.32l-2.55-5.09a14.873 14.873 0 0 1 3.46-.41h6a14.873 14.873 0 0 1 3.46.41z" fill="#e8edef"/><path d="m40 35v-4a9 9 0 0 0 -9-9h-2a9 9 0 0 0 -9 9v4z" fill="#242c4c"/><path d="m33 44.54v1.46l-3 4-3-4v-1.46z" fill="#fcab8b"/><path d="m27.45 51.82.55 2.18h4l.55-2.18-2.55-1.82z" fill="#dd5252"/><path d="m22 37s0 8 8 8 8-8 8-8a2 2 0 0 0 0-4 2.871 2.871 0 0 0 -2.7-2.863 8.1 8.1 0 0 1 -5.3-2.137 8.093 8.093 0 0 1 -5.294 2.137 2.871 2.871 0 0 0 -2.706 2.863 2 2 0 0 0 0 4z" fill="#ffba9c"/><path d="m37 16s0 8 8 8 8-8 8-8a2 2 0 0 0 0-4 2.871 2.871 0 0 0 -2.7-2.863 8.1 8.1 0 0 1 -5.3-2.137 8.1 8.1 0 0 1 -5.3 2.137 2.871 2.871 0 0 0 -2.7 2.863 2 2 0 0 0 0 4z" fill="#ffba9c"/><path d="m17 23v3c0 4-6 4-6 0v-3z" fill="#895342"/><path d="m24 15a2.006 2.006 0 0 1 -2 2s-3 8-8 8-8-8-8-8a2.006 2.006 0 0 1 -2-2 2.015 2.015 0 0 1 2-2 2.871 2.871 0 0 1 2.71-2.86c1.455-.1 5.234-.132 8.164-1.509a2.4 2.4 0 0 1 2.457.208c1.169.861 2.669 2.321 2.669 4.161a2.006 2.006 0 0 1 2 2z" fill="#9e604a"/></svg>