<svg enable-background="new 0 0 256 256" height="512" viewBox="0 0 256 256" width="512" xmlns="http://www.w3.org/2000/svg"><g id="Icons"><g><g><path d="m247.121 79.995h-238.242v-38.022c0-5.523 4.477-10 10-10h218.241c5.523 0 10 4.477 10 10v38.022z" fill="#fc5d3d"/><path d="m59.61 31.97v14.47c0 9.12-7.42 16.54-16.54 16.54s-16.54-7.42-16.54-16.54v-14.47z" fill="#b25035"/><path d="m116.23 31.97v14.47c0 9.12-7.42 16.54-16.54 16.54s-16.54-7.42-16.54-16.54v-14.47z" fill="#b25035"/><path d="m172.85 31.97v14.47c0 9.12-7.42 16.54-16.54 16.54s-16.54-7.42-16.54-16.54v-14.47z" fill="#b25035"/><path d="m229.47 31.97v14.47c0 9.12-7.42 16.54-16.54 16.54s-16.54-7.42-16.54-16.54v-14.47z" fill="#b25035"/><g fill="#efefef"><path d="m43.069 55.984c-5.27 0-9.543-4.272-9.543-9.543v-30.169c0-5.27 4.272-9.543 9.543-9.543 5.27 0 9.543 4.272 9.543 9.543v30.169c0 5.27-4.273 9.543-9.543 9.543z"/><path d="m99.69 55.984c-5.27 0-9.543-4.272-9.543-9.543v-30.169c0-5.27 4.272-9.543 9.543-9.543 5.27 0 9.543 4.272 9.543 9.543v30.169c-.001 5.27-4.273 9.543-9.543 9.543z"/><path d="m156.31 55.984c-5.27 0-9.543-4.272-9.543-9.543v-30.169c0-5.27 4.272-9.543 9.543-9.543 5.27 0 9.543 4.272 9.543 9.543v30.169c0 5.27-4.272 9.543-9.543 9.543z"/><path d="m212.931 55.984c-5.27 0-9.543-4.272-9.543-9.543v-30.169c0-5.27 4.272-9.543 9.543-9.543 5.27 0 9.543 4.272 9.543 9.543v30.169c0 5.27-4.272 9.543-9.543 9.543z"/><path d="m237.121 249.271h-218.242c-5.523 0-10-4.477-10-10v-159.276h238.241v159.276c.001 5.523-4.477 10-9.999 10z"/></g><path d="m237.12 72.495h-205.241c-1.381 0-2.5-1.119-2.5-2.5s1.119-2.5 2.5-2.5h205.241c1.381 0 2.5 1.119 2.5 2.5s-1.119 2.5-2.5 2.5zm-215.241 0h-3c-1.381 0-2.5-1.119-2.5-2.5s1.119-2.5 2.5-2.5h3c1.381 0 2.5 1.119 2.5 2.5s-1.119 2.5-2.5 2.5z" fill="#ffcbc3"/><circle cx="187.12" cy="80" r="2.5"/><path d="m35.26 10.24c-1.25-.53-2.76.09-3.28 1.329-.532 1.25.021 2.707 1.32 3.28 1.222.513 2.727-.012 3.28-1.33.551-1.291-.074-2.749-1.32-3.279z"/><path d="m249.62 239.271c0-22.636 0-176.256 0-197.301 0-6.893-5.607-12.5-12.5-12.5h-12.146v-13.199c0-6.64-5.402-12.042-12.042-12.042-6.641 0-12.043 5.402-12.043 12.042v13.199h-32.535v-13.199c0-6.64-5.402-12.042-12.043-12.042s-12.043 5.402-12.043 12.042v13.199h-32.535v-13.199c0-6.64-5.402-12.042-12.043-12.042s-12.044 5.403-12.044 12.042v13.199h-32.535v-13.199c0-.013-.004-.024-.004-.037-.019-6.623-5.41-12.005-12.038-12.005h-.05c-.47 0-.95.03-1.41.09-1.369.16-2.35 1.41-2.189 2.78.163 1.269 1.277 2.328 2.79 2.181.28-.03.57-.051.859-.051 3.87.011 7.03 3.17 7.04 7.04 0 .007.002.013.002.019v30.153c0 3.883-3.159 7.042-7.043 7.042-3.875 0-7.027-3.146-7.041-7.018 0-.009.003-.017.003-.026v-24c0-1.38-1.131-2.5-2.5-2.5-1.381 0-2.5 1.12-2.5 2.5v7.03h-12.15c-6.893 0-12.5 5.607-12.5 12.5v197.301c0 6.893 5.607 12.5 12.5 12.5h218.24c6.893.001 12.5-5.607 12.5-12.499zm-36.688-230.042c3.883 0 7.042 3.159 7.042 7.042v30.17c0 3.883-3.159 7.042-7.042 7.042-3.884 0-7.043-3.159-7.043-7.042 0-13.66 0-21.248 0-30.17 0-3.882 3.159-7.042 7.043-7.042zm-56.621 0c3.884 0 7.043 3.159 7.043 7.042v30.17c0 3.883-3.159 7.042-7.043 7.042s-7.043-3.159-7.043-7.042c0-13.646 0-21.273 0-30.17 0-3.882 3.159-7.042 7.043-7.042zm-56.622 0c3.884 0 7.043 3.159 7.043 7.042v30.17c0 3.883-3.159 7.042-7.043 7.042s-7.043-3.159-7.043-7.042c0-13.671 0-21.247 0-30.17 0-3.882 3.16-7.042 7.043-7.042zm-88.309 230.042v-156.771h165.74c1.38 0 2.5-1.12 2.5-2.5s-1.12-2.5-2.5-2.5h-165.74v-35.53c0-4.136 3.364-7.5 7.5-7.5h12.15v11.933c0 .013-.004.026-.004.039 0 6.64 5.402 12.042 12.042 12.042 6.641 0 12.043-5.402 12.043-12.042v-11.972h32.535v11.972c0 6.64 5.402 12.042 12.043 12.042s12.043-5.402 12.043-12.042v-11.972h32.535v11.972c0 6.64 5.402 12.042 12.043 12.042s12.043-5.402 12.043-12.042v-11.972h32.535v11.972c0 6.64 5.402 12.042 12.043 12.042 6.64 0 12.042-5.402 12.042-12.042v-11.972h12.146c4.136 0 7.5 3.364 7.5 7.5v35.53h-47.5c-1.38 0-2.5 1.12-2.5 2.5s1.12 2.5 2.5 2.5h47.5v156.771c0 4.136-3.364 7.5-7.5 7.5h-218.239c-4.136 0-7.5-3.365-7.5-7.5z"/></g><circle cx="128" cy="164.633" fill="#f0c020" r="59.706"/><path d="m107.499 194.819-19.371-19.37c-6.644-6.646-6.643-17.398 0-24.043 6.644-6.638 17.393-6.645 24.041-.001l7.351 7.351 24.31-24.311c6.644-6.638 17.393-6.645 24.041-.001 6.63 6.63 6.63 17.415.002 24.044l-36.331 36.331c-6.648 6.644-17.395 6.646-24.043 0z" fill="#e8a61e"/><path d="m112.448 189.87-19.37-19.37c-3.905-3.905-3.905-10.237 0-14.143 3.906-3.904 10.236-3.904 14.143 0l12.299 12.299 29.26-29.26c3.906-3.904 10.236-3.904 14.143 0 3.905 3.905 3.905 10.237 0 14.143l-36.331 36.331c-3.909 3.905-10.237 3.904-14.144 0z" fill="#13bf6d"/><path d="m128 102.427c-34.301 0-62.206 27.905-62.206 62.206s27.905 62.207 62.206 62.207 62.206-27.906 62.206-62.207-27.905-62.206-62.206-62.206zm0 119.413c-31.544 0-57.206-25.663-57.206-57.207s25.662-57.206 57.206-57.206 57.206 25.662 57.206 57.206-25.662 57.207-57.206 57.207z"/><path d="m164.689 137.627c-4.875-4.871-12.805-4.87-17.678.001l-27.491 27.492-10.531-10.532c-4.875-4.871-12.805-4.87-17.678.001-4.884 4.882-4.886 12.793 0 17.678l19.37 19.37c2.437 2.437 5.638 3.655 8.839 3.655 3.182 0 6.363-1.207 8.794-3.615.015-.014.032-.024.046-.038l14.41-14.41c1.002-1.02.947-2.593 0-3.54-.95-.939-2.59-.939-3.54 0l-14.41 14.41c-.006.006-.01.014-.016.02-2.925 2.904-7.67 2.897-10.587-.018l-19.37-19.37c-2.93-2.932-2.931-7.676 0-10.606 2.924-2.924 7.684-2.923 10.607-.001l12.299 12.299c.977.977 2.559.977 3.535 0l29.26-29.259c2.924-2.924 7.684-2.923 10.607-.001 2.919 2.921 2.937 7.649.016 10.59-.006.006-.015.01-.021.017l-7.77 7.78c-.993.971-.982 2.568 0 3.53 1.001 1.001 2.583.945 3.53 0l7.779-7.771c.012-.012.02-.027.032-.039 4.84-4.876 4.831-12.779-.032-17.643z"/><path d="m146.31 166.62c-.979.959-.996 2.554 0 3.529.989 1.01 2.585.967 3.53 0 .983-.983.963-2.567 0-3.529-.941-.94-2.59-.95-3.53 0z"/></g></g></svg>