<?xml version="1.0" encoding="UTF-8" standalone="no"?>
<!-- Created with Inkscape (http://www.inkscape.org/) -->

<svg
   version="1.1"
   id="svg3309"
   width="682.66669"
   height="682.66669"
   viewBox="0 0 682.66669 682.66669"
   xmlns="http://www.w3.org/2000/svg"
   xmlns:svg="http://www.w3.org/2000/svg">
  <defs
     id="defs3313">
    <clipPath
       clipPathUnits="userSpaceOnUse"
       id="clipPath3323">
      <path
         d="M 0,512 H 512 V 0 H 0 Z"
         id="path3321" />
    </clipPath>
  </defs>
  <g
     id="g3315"
     transform="matrix(1.3333333,0,0,-1.3333333,0,682.66667)">
    <g
       id="g3317">
      <g
         id="g3319"
         clip-path="url(#clipPath3323)">
        <g
           id="g3325"
           transform="translate(209.9756,451.6865)">
          <path
             d="m 0,0 -195.276,-338.229 c -20.455,-35.429 5.113,-79.716 46.024,-79.716 h 390.553 c 40.91,0 66.479,44.287 46.024,79.716 L 92.049,0 C 71.593,35.43 20.456,35.43 0,0"
             style="fill:#da4a54;fill-opacity:1;fill-rule:nonzero;stroke:none"
             id="path3327" />
        </g>
        <g
           id="g3329"
           transform="translate(209.9756,451.6865)">
          <path
             d="m 0,0 -195.276,-338.229 c -20.455,-35.429 5.113,-79.716 46.024,-79.716 h 390.553 c 40.91,0 66.479,44.287 46.024,79.716 L 92.049,0 C 71.593,35.43 20.456,35.43 0,0 Z"
             style="fill:none;stroke:#000000;stroke-width:15;stroke-linecap:round;stroke-linejoin:round;stroke-miterlimit:10;stroke-dasharray:none;stroke-opacity:1"
             id="path3331" />
        </g>
        <g
           id="g3333"
           transform="translate(60.7236,73.7412)">
          <path
             d="m 0,0 c -6.603,0 -9.966,4.118 -11.383,6.572 -1.417,2.455 -3.302,7.427 0,13.145 l 195.276,338.228 c 3.301,5.719 8.549,6.573 11.383,6.573 2.834,0 8.082,-0.854 11.384,-6.573 L 401.936,19.717 c 3.302,-5.718 1.417,-10.69 0,-13.145 C 400.519,4.118 397.156,0 390.553,0 Z"
             style="fill:#f6e266;fill-opacity:1;fill-rule:nonzero;stroke:none"
             id="path3335" />
        </g>
        <g
           id="g3337"
           transform="translate(77.7598,142.6787)">
          <path
             d="m 0,0 166.86,289.01 c 3.3,5.72 8.55,6.57 11.38,6.57 2.83,0 8.08,-0.85 11.38,-6.57 L 384.9,-49.22 c 3.3,-5.72 1.42,-10.69 0,-13.15 -1.42,-2.45 -4.78,-6.57 -11.38,-6.57 H -17.04 c -6.6,0 -9.96,4.12 -11.38,6.57 -1.42,2.46 -3.3,7.43 0,13.15 L -15,-25.98"
             style="fill:none;stroke:#000000;stroke-width:15;stroke-linecap:round;stroke-linejoin:round;stroke-miterlimit:10;stroke-dasharray:none;stroke-opacity:1"
             id="path3339" />
        </g>
        <g
           id="g3341"
           transform="translate(256,186.9458)">
          <path
             d="m 0,0 v 0 c -13.958,0 -25.273,11.315 -25.273,25.273 v 115.724 c 0,13.958 11.315,25.274 25.273,25.274 13.958,0 25.273,-11.316 25.273,-25.274 V 25.273 C 25.273,11.315 13.958,0 0,0"
             style="fill:#544f57;fill-opacity:1;fill-rule:nonzero;stroke:none"
             id="path3343" />
        </g>
        <g
           id="g3345"
           transform="translate(281.2729,134.5146)">
          <path
             d="m 0,0 c 0,13.958 -11.315,25.273 -25.273,25.273 -13.958,0 -25.273,-11.315 -25.273,-25.273 0,-13.958 11.315,-25.273 25.273,-25.273 C -11.315,-25.273 0,-13.958 0,0"
             style="fill:#544f57;fill-opacity:1;fill-rule:nonzero;stroke:none"
             id="path3347" />
        </g>
        <g
           id="g3349"
           transform="translate(281.27,285.3789)">
          <path
             d="m 0,0 v -73.16 c 0,-13.96 -11.31,-25.27 -25.27,-25.27 -13.96,0 -25.27,11.31 -25.27,25.27 V 42.56 c 0,13.96 11.31,25.28 25.27,25.28 6.98,0 13.3,-2.83 17.87,-7.41 C -2.83,55.86 0,49.54 0,42.56 V 30"
             style="fill:none;stroke:#000000;stroke-width:15;stroke-linecap:round;stroke-linejoin:round;stroke-miterlimit:10;stroke-dasharray:none;stroke-opacity:1"
             id="path3351" />
        </g>
        <g
           id="g3353"
           transform="translate(281.2729,134.5146)">
          <path
             d="m 0,0 c 0,13.958 -11.315,25.273 -25.273,25.273 -13.958,0 -25.273,-11.315 -25.273,-25.273 0,-13.958 11.315,-25.273 25.273,-25.273 C -11.315,-25.273 0,-13.958 0,0 Z"
             style="fill:none;stroke:#000000;stroke-width:15;stroke-linecap:round;stroke-linejoin:round;stroke-miterlimit:10;stroke-dasharray:none;stroke-opacity:1"
             id="path3355" />
        </g>
      </g>
    </g>
  </g>
</svg>
