<?xml version="1.0" encoding="UTF-8" standalone="no"?>
<!-- Created with Inkscape (http://www.inkscape.org/) -->

<svg
   version="1.1"
   id="svg852"
   xml:space="preserve"
   width="682.66669"
   height="682.66669"
   viewBox="0 0 682.66669 682.66669"
   xmlns="http://www.w3.org/2000/svg"
   xmlns:svg="http://www.w3.org/2000/svg"><defs
     id="defs856"><clipPath
       clipPathUnits="userSpaceOnUse"
       id="clipPath870"><path
         d="M 0,512 H 512 V 0 H 0 Z"
         id="path868" /></clipPath></defs><g
     id="g858"
     transform="matrix(1.3333333,0,0,-1.3333333,0,682.66667)"><g
       id="g860"
       transform="translate(153.1543,145.2822)"><path
         d="M 0,0 V -120.298 H -145.652 V 0 l 51.86,21.587 h 41.932 z"
         style="fill:#fea713;fill-opacity:1;fill-rule:nonzero;stroke:none"
         id="path862" /></g><g
       id="g864"><g
         id="g866"
         clip-path="url(#clipPath870)"><g
           id="g872"
           transform="translate(104.8584,191.7993)"><path
             d="M 0,0 H -49.063 C -63.659,0 -75.492,11.833 -75.492,26.43 V 72.941 H 26.43 V 26.43 C 26.43,11.833 14.597,0 0,0"
             style="fill:#ffdfcf;fill-opacity:1;fill-rule:nonzero;stroke:none"
             id="path874" /></g><g
           id="g876"
           transform="translate(131.2842,264.7402)"><path
             d="m 0,0 v -46.51 c 0,-14.6 -11.829,-26.43 -26.43,-26.43 h -14.359 c 14.6,0 26.43,11.83 26.43,26.43 l 0,46.51 z"
             style="fill:#ffcebf;fill-opacity:1;fill-rule:nonzero;stroke:none"
             id="path878" /></g><g
           id="g880"
           transform="translate(141.4404,264.7402)"><path
             d="m 0,0 h -122.227 c -3.163,0 -5.728,2.565 -5.728,5.729 v 15.485 c 0,3.164 2.565,5.729 5.728,5.729 L 0,26.943 c 3.164,0 5.729,-2.565 5.729,-5.729 V 5.729 C 5.729,2.565 3.164,0 0,0"
             style="fill:#fea713;fill-opacity:1;fill-rule:nonzero;stroke:none"
             id="path882" /></g><g
           id="g884"
           transform="translate(147.165,285.9502)"><path
             d="m 0,0 v -15.48 c 0,-3.16 -2.561,-5.73 -5.721,-5.73 H -20.16 c 3.17,0 5.729,2.57 5.729,5.73 V 0 c 0,3.17 -2.559,5.73 -5.729,5.73 H -5.721 C -2.561,5.73 0,3.17 0,0"
             style="fill:#fd9a01;fill-opacity:1;fill-rule:nonzero;stroke:none"
             id="path886" /></g><g
           id="g888"
           transform="translate(136.9707,291.6831)"><path
             d="m 0,0 h -113.287 c 0,24.267 19.672,43.939 43.938,43.939 h 25.411 C -19.672,43.939 0,24.267 0,0"
             style="fill:#ffd15c;fill-opacity:1;fill-rule:nonzero;stroke:none"
             id="path890" /></g><g
           id="g892"
           transform="translate(136.9746,291.6802)"><path
             d="m 0,0 h -12.65 c 0,24.27 -19.67,43.94 -43.94,43.94 h 12.65 C -19.68,43.94 0,24.27 0,0"
             style="fill:#ffc344;fill-opacity:1;fill-rule:nonzero;stroke:none"
             id="path894" /></g><g
           id="g896"
           transform="translate(87.9688,348.1938)"><path
             d="m 0,0 h -15.283 c -2.765,0 -5.006,-2.241 -5.006,-5.006 V -56.511 H 5.006 V -5.006 C 5.006,-2.241 2.765,0 0,0"
             style="fill:#fea713;fill-opacity:1;fill-rule:nonzero;stroke:none"
             id="path898" /></g><g
           id="g900"
           transform="translate(92.9746,343.1899)"><path
             d="M 0,0 V -51.51 H -12.65 V 0 c 0,2.76 -2.24,5 -5,5 H -5.01 C -2.24,5 0,2.76 0,0"
             style="fill:#fd9a01;fill-opacity:1;fill-rule:nonzero;stroke:none"
             id="path902" /></g><path
           d="M 101.29,191.799 H 59.364 v -24.925 h 41.926 z"
           style="fill:#ffdfcf;fill-opacity:1;fill-rule:nonzero;stroke:none"
           id="path904" /><path
           d="M 101.295,166.87 H 86.364 v 24.93 h 14.931 z"
           style="fill:#ffcebf;fill-opacity:1;fill-rule:nonzero;stroke:none"
           id="path906" /><g
           id="g908"
           transform="translate(59.3643,166.8711)"><path
             d="M 0,0 20.963,-41.696 41.926,0 Z"
             style="fill:#0593fc;fill-opacity:1;fill-rule:nonzero;stroke:none"
             id="path910" /></g><g
           id="g912"
           transform="translate(101.2949,166.8701)"><path
             d="m 0,0 -20.971,-41.7 -7.46,14.84 13.5,26.86 z"
             style="fill:#0181fa;fill-opacity:1;fill-rule:nonzero;stroke:none"
             id="path914" /></g><path
           d="M 153.154,62.711 H 7.5 v 33.216 h 145.654 z"
           style="fill:#eaf6ff;fill-opacity:1;fill-rule:nonzero;stroke:none"
           id="path916" /><g
           id="g918"
           transform="translate(153.1504,145.2803)"><path
             d="M 0,0 V -82.57 L 0.004,-120.296 -57.58,-120.3 -24.851,10.35 Z"
             style="fill:#fd9a01;fill-opacity:1;fill-rule:nonzero;stroke:none"
             id="path920" /></g><g
           id="g922"
           transform="translate(153.1504,95.9302)"><path
             d="M 0,0 V -33.22 H -48.131 L -39.811,0 Z"
             style="fill:#c8effe;fill-opacity:1;fill-rule:nonzero;stroke:none"
             id="path924" /></g><g
           id="g926"
           transform="translate(504.5,145.2822)"><path
             d="M 0,0 V -120.298 H -145.653 V 0 l 51.861,21.587 h 41.931 z"
             style="fill:#fea713;fill-opacity:1;fill-rule:nonzero;stroke:none"
             id="path928" /></g><g
           id="g930"
           transform="translate(504.5,145.2803)"><path
             d="M 0,0 V -120.3 H -14.93 V 6.22 Z"
             style="fill:#fd9a01;fill-opacity:1;fill-rule:nonzero;stroke:none"
             id="path932" /></g><g
           id="g934"
           transform="translate(456.2041,191.7993)"><path
             d="M 0,0 H -49.063 C -63.659,0 -75.492,11.833 -75.492,26.43 V 72.941 H 26.43 V 26.43 C 26.43,11.833 14.597,0 0,0"
             style="fill:#ffdfcf;fill-opacity:1;fill-rule:nonzero;stroke:none"
             id="path936" /></g><g
           id="g938"
           transform="translate(482.6299,264.7402)"><path
             d="m 0,0 v -46.51 c 0,-14.6 -11.83,-26.43 -26.43,-26.43 h -14.36 c 14.6,0 26.43,11.83 26.43,26.43 V 0 Z"
             style="fill:#ffcebf;fill-opacity:1;fill-rule:nonzero;stroke:none"
             id="path940" /></g><g
           id="g942"
           transform="translate(492.7861,264.7402)"><path
             d="m 0,0 h -122.227 c -3.164,0 -5.728,2.565 -5.728,5.729 v 15.485 c 0,3.164 2.564,5.729 5.728,5.729 L 0,26.943 c 3.163,0 5.729,-2.565 5.729,-5.729 V 5.729 C 5.729,2.565 3.163,0 0,0"
             style="fill:#fea713;fill-opacity:1;fill-rule:nonzero;stroke:none"
             id="path944" /></g><g
           id="g946"
           transform="translate(498.5098,285.9502)"><path
             d="m 0,0 v -15.48 c 0,-3.16 -2.56,-5.73 -5.72,-5.73 h -14.44 c 3.17,0 5.73,2.57 5.73,5.73 V 0 c 0,3.17 -2.56,5.73 -5.73,5.73 H -5.72 C -2.56,5.73 0,3.17 0,0"
             style="fill:#fd9a01;fill-opacity:1;fill-rule:nonzero;stroke:none"
             id="path948" /></g><g
           id="g950"
           transform="translate(488.3164,291.6831)"><path
             d="m 0,0 h -113.287 c 0,24.267 19.672,43.939 43.938,43.939 h 25.411 C -19.672,43.939 0,24.267 0,0"
             style="fill:#ffd15c;fill-opacity:1;fill-rule:nonzero;stroke:none"
             id="path952" /></g><g
           id="g954"
           transform="translate(488.3203,291.6802)"><path
             d="m 0,0 h -12.65 c 0,24.27 -19.67,43.94 -43.94,43.94 h 12.65 C -19.68,43.94 0,24.27 0,0"
             style="fill:#ffc344;fill-opacity:1;fill-rule:nonzero;stroke:none"
             id="path956" /></g><g
           id="g958"
           transform="translate(439.3145,348.1938)"><path
             d="m 0,0 h -15.283 c -2.765,0 -5.006,-2.241 -5.006,-5.006 V -56.511 H 5.006 V -5.006 C 5.006,-2.241 2.765,0 0,0"
             style="fill:#fea713;fill-opacity:1;fill-rule:nonzero;stroke:none"
             id="path960" /></g><g
           id="g962"
           transform="translate(444.3203,343.1899)"><path
             d="M 0,0 V -51.51 H -12.65 V 0 c 0,2.76 -2.241,5 -5,5 H -5.01 C -2.24,5 0,2.76 0,0"
             style="fill:#fd9a01;fill-opacity:1;fill-rule:nonzero;stroke:none"
             id="path964" /></g><path
           d="M 452.636,191.799 H 410.71 v -24.925 h 41.926 z"
           style="fill:#ffdfcf;fill-opacity:1;fill-rule:nonzero;stroke:none"
           id="path966" /><path
           d="M 452.641,166.87 H 437.71 v 24.93 h 14.931 z"
           style="fill:#ffcebf;fill-opacity:1;fill-rule:nonzero;stroke:none"
           id="path968" /><g
           id="g970"
           transform="translate(410.71,166.8711)"><path
             d="M 0,0 20.963,-41.696 41.926,0 Z"
             style="fill:#0593fc;fill-opacity:1;fill-rule:nonzero;stroke:none"
             id="path972" /></g><g
           id="g974"
           transform="translate(452.6406,166.8701)"><path
             d="m 0,0 -20.971,-41.7 -7.46,14.84 13.5,26.86 z"
             style="fill:#0181fa;fill-opacity:1;fill-rule:nonzero;stroke:none"
             id="path976" /></g><path
           d="M 504.5,62.711 H 358.846 V 95.927 H 504.5 Z"
           style="fill:#eaf6ff;fill-opacity:1;fill-rule:nonzero;stroke:none"
           id="path978" /><path
           d="M 504.5,62.71 H 489.57 V 95.93 H 504.5 Z"
           style="fill:#c8effe;fill-opacity:1;fill-rule:nonzero;stroke:none"
           id="path980" /><g
           id="g982"
           transform="translate(327.9707,312.5615)"><path
             d="M 0,0 C 17.052,0 30.875,13.823 30.875,30.875 30.875,47.927 17.052,61.75 0,61.75 L -5.937,30.875 Z"
             style="fill:#ffcebf;fill-opacity:1;fill-rule:nonzero;stroke:none"
             id="path984" /></g><g
           id="g986"
           transform="translate(184.0293,312.5615)"><path
             d="M 0,0 C -17.052,0 -30.875,13.823 -30.875,30.875 -30.875,47.927 -17.052,61.75 0,61.75 L 5.39,30.875 Z"
             style="fill:#ffdfcf;fill-opacity:1;fill-rule:nonzero;stroke:none"
             id="path988" /></g><g
           id="g990"
           transform="translate(189.4199,343.4399)"><path
             d="m 0,0 -5.39,-30.88 c -5.63,0 -10.9,1.51 -15.44,4.13 v 53.49 c 4.54,2.63 9.81,4.13 15.44,4.13 z"
             style="fill:#ffcebf;fill-opacity:1;fill-rule:nonzero;stroke:none"
             id="path992" /></g><g
           id="g994"
           transform="translate(290.6445,260.5723)"><path
             d="m 0,0 h -69.289 c -20.614,0 -37.326,16.711 -37.326,37.326 v 76.413 H 37.326 V 37.326 C 37.326,16.711 20.614,0 0,0"
             style="fill:#ffdfcf;fill-opacity:1;fill-rule:nonzero;stroke:none"
             id="path996" /></g><g
           id="g998"
           transform="translate(327.9697,374.3101)"><path
             d="m 0,0 v -76.41 c 0,-20.62 -16.71,-37.33 -37.329,-37.33 H -55.35 c 20.621,0 37.33,16.71 37.33,37.33 l 0,76.41 z"
             style="fill:#ffcebf;fill-opacity:1;fill-rule:nonzero;stroke:none"
             id="path1000" /></g><g
           id="g1002"
           transform="translate(342.3076,374.3115)"><path
             d="m 0,0 h -172.615 c -4.469,0 -8.091,3.622 -8.091,8.09 v 16.717 c 0,4.468 3.622,8.09 8.091,8.09 H 0 c 4.469,0 8.091,-3.622 8.091,-8.09 V 8.09 C 8.091,3.622 4.469,0 0,0"
             style="fill:#fea713;fill-opacity:1;fill-rule:nonzero;stroke:none"
             id="path1004" /></g><g
           id="g1006"
           transform="translate(350.4004,399.1201)"><path
             d="m 0,0 v -16.72 c 0,-4.47 -3.62,-8.09 -8.09,-8.09 h -16.761 c 4.47,0 8.091,3.62 8.091,8.09 V 0 c 0,4.47 -3.621,8.09 -8.091,8.09 H -8.09 C -3.62,8.09 0,4.47 0,0"
             style="fill:#fd9a01;fill-opacity:1;fill-rule:nonzero;stroke:none"
             id="path1008" /></g><g
           id="g1010"
           transform="translate(335.9961,407.209)"><path
             d="m 0,0 h -159.992 c 0,34.271 27.782,62.054 62.054,62.054 h 35.884 C -27.782,62.054 0,34.271 0,0"
             style="fill:#ffd15c;fill-opacity:1;fill-rule:nonzero;stroke:none"
             id="path1012" /></g><g
           id="g1014"
           transform="translate(336,407.21)"><path
             d="m 0,0 h -16.87 c 0,34.27 -27.78,62.05 -62.05,62.05 h 16.859 C -27.79,62.05 0,34.27 0,0"
             style="fill:#ffc344;fill-opacity:1;fill-rule:nonzero;stroke:none"
             id="path1016" /></g><g
           id="g1018"
           transform="translate(266.792,487.0171)"><path
             d="m 0,0 h -21.584 c -3.904,0 -7.069,-3.165 -7.069,-7.07 V -79.808 H 7.069 V -7.07 C 7.069,-3.165 3.904,0 0,0"
             style="fill:#fea713;fill-opacity:1;fill-rule:nonzero;stroke:none"
             id="path1020" /></g><g
           id="g1022"
           transform="translate(273.8604,479.9502)"><path
             d="M 0,0 V -72.74 H -16.78 V 0 c 0,3.9 -3.17,7.07 -7.071,7.07 H -7.07 C -3.16,7.07 0,3.9 0,0"
             style="fill:#fd9a01;fill-opacity:1;fill-rule:nonzero;stroke:none"
             id="path1024" /></g><path
           d="m 285.605,260.572 h -59.211 v -35.201 h 59.211 z"
           style="fill:#ffdfcf;fill-opacity:1;fill-rule:nonzero;stroke:none"
           id="path1026" /><path
           d="m 285.609,225.37 h -18.31 v 35.2 h 18.31 z"
           style="fill:#ffcebf;fill-opacity:1;fill-rule:nonzero;stroke:none"
           id="path1028" /><g
           id="g1030"
           transform="translate(401.4131,24.9844)"><path
             d="m 0,0 h -290.826 l 37.592,150.031 c 1.51,6.061 4.385,11.608 8.306,16.275 4.134,4.947 9.449,8.906 15.569,11.453 l 54.34,22.625 h 59.211 l 54.341,-22.625 c 6.119,-2.547 11.435,-6.506 15.569,-11.453 3.92,-4.667 6.795,-10.214 8.306,-16.275 z"
             style="fill:#0593fc;fill-opacity:1;fill-rule:nonzero;stroke:none"
             id="path1032" /></g><g
           id="g1034"
           transform="translate(401.4102,24.98)"><path
             d="m 0,0 h -18.301 l -37.59,150.04 c -1.509,6.06 -4.389,11.6 -8.309,16.27 -4.13,4.95 -9.45,8.91 -15.56,11.45 l -54.35,22.63 h 18.309 l 54.341,-22.63 c 6.12,-2.54 11.43,-6.5 15.56,-11.45 3.929,-4.67 6.8,-10.21 8.31,-16.27 z"
             style="fill:#0181fa;fill-opacity:1;fill-rule:nonzero;stroke:none"
             id="path1036" /></g><g
           id="g1038"
           transform="translate(355.5098,191.29)"><path
             d="m 0,0 c -11.229,-12.89 -17.46,-29.43 -17.46,-46.63 v -119.68 h -164.1 v 119.68 c 0,17.2 -6.23,33.74 -17.46,46.63 4.13,4.95 9.44,8.91 15.56,11.45 l 54.34,22.63 29.61,-45.16 29.61,45.16 54.34,-22.63 C -9.439,8.91 -4.13,4.95 0,0"
             style="fill:#fea713;fill-opacity:1;fill-rule:nonzero;stroke:none"
             id="path1040" /></g><g
           id="g1042"
           transform="translate(355.5098,191.29)"><path
             d="m 0,0 c -11.229,-12.89 -17.46,-29.43 -17.46,-46.63 v -119.68 h -18.31 v 119.68 c 0,17.2 6.23,33.74 17.46,46.63 -4.129,4.95 -9.44,8.91 -15.559,11.45 l -39.961,16.64 3.93,5.99 54.34,-22.63 C -9.439,8.91 -4.13,4.95 0,0"
             style="fill:#fd9a01;fill-opacity:1;fill-rule:nonzero;stroke:none"
             id="path1044" /></g><path
           d="M 338.047,78.265 H 173.953 v 46.91 h 164.094 z"
           style="fill:#eaf6ff;fill-opacity:1;fill-rule:nonzero;stroke:none"
           id="path1046" /><path
           d="m 338.05,78.27 h -18.31 v 46.9 h 18.31 z"
           style="fill:#c8effe;fill-opacity:1;fill-rule:nonzero;stroke:none"
           id="path1048" /><g
           id="g1050"
           transform="translate(370.0967,149.9648)"><path
             d="M 0,0 40.611,16.905 H 82.542 L 134.403,-4.683 V -124.981"
             style="fill:none;stroke:#000000;stroke-width:15;stroke-linecap:round;stroke-linejoin:round;stroke-miterlimit:10;stroke-dasharray:none;stroke-opacity:1"
             id="path1052" /></g><g
           id="g1054"
           transform="translate(456.2041,191.7993)"><path
             d="M 0,0 H -49.063 C -63.659,0 -75.492,11.833 -75.492,26.43 V 72.941 H 26.43 V 26.43 C 26.43,11.833 14.597,0 0,0 Z"
             style="fill:none;stroke:#000000;stroke-width:15;stroke-linecap:round;stroke-linejoin:round;stroke-miterlimit:10;stroke-dasharray:none;stroke-opacity:1"
             id="path1056" /></g><g
           id="g1058"
           transform="translate(492.7861,264.7402)"><path
             d="m 0,0 h -122.227 c -3.164,0 -5.728,2.565 -5.728,5.729 v 15.485 c 0,3.164 2.564,5.729 5.728,5.729 L 0,26.943 c 3.163,0 5.729,-2.565 5.729,-5.729 V 5.729 C 5.729,2.565 3.163,0 0,0 Z"
             style="fill:none;stroke:#000000;stroke-width:15;stroke-linecap:round;stroke-linejoin:round;stroke-miterlimit:10;stroke-dasharray:none;stroke-opacity:1"
             id="path1060" /></g><g
           id="g1062"
           transform="translate(444.3203,335.6221)"><path
             d="M 0,0 H 0.058 C 24.324,0 43.996,-19.672 43.996,-43.939 H -69.291 C -69.291,-19.672 -49.619,0 -25.353,0 h 0.058"
             style="fill:none;stroke:#000000;stroke-width:15;stroke-linecap:round;stroke-linejoin:round;stroke-miterlimit:10;stroke-dasharray:none;stroke-opacity:1"
             id="path1064" /></g><g
           id="g1066"
           transform="translate(439.3145,348.1938)"><path
             d="m 0,0 h -15.283 c -2.765,0 -5.006,-2.241 -5.006,-5.006 V -56.511 H 5.006 V -5.006 C 5.006,-2.241 2.765,0 0,0 Z"
             style="fill:none;stroke:#000000;stroke-width:15;stroke-linecap:round;stroke-linejoin:round;stroke-miterlimit:10;stroke-dasharray:none;stroke-opacity:1"
             id="path1068" /></g><g
           id="g1070"
           transform="translate(431.6729,264.7402)"><path
             d="M 0,0 V -17.769"
             style="fill:none;stroke:#000000;stroke-width:15;stroke-linecap:round;stroke-linejoin:round;stroke-miterlimit:10;stroke-dasharray:none;stroke-opacity:1"
             id="path1072" /></g><g
           id="g1074"
           transform="translate(419.8066,225.1631)"><path
             d="m 0,0 c 2.084,-4.462 6.615,-7.554 11.866,-7.554 5.251,0 9.782,3.092 11.866,7.554"
             style="fill:none;stroke:#000000;stroke-width:15;stroke-linecap:round;stroke-linejoin:round;stroke-miterlimit:10;stroke-dasharray:none;stroke-opacity:1"
             id="path1076" /></g><path
           d="M 452.636,191.799 H 410.71 v -24.925 h 41.926 z"
           style="fill:none;stroke:#000000;stroke-width:15;stroke-linecap:round;stroke-linejoin:round;stroke-miterlimit:10;stroke-dasharray:none;stroke-opacity:1"
           id="path1078" /><g
           id="g1080"
           transform="translate(410.71,166.8711)"><path
             d="M 0,0 20.963,-41.696 41.926,0 Z"
             style="fill:none;stroke:#000000;stroke-width:15;stroke-linecap:round;stroke-linejoin:round;stroke-miterlimit:10;stroke-dasharray:none;stroke-opacity:1"
             id="path1082" /></g><g
           id="g1084"
           transform="translate(431.6729,125.1748)"><path
             d="M 0,0 V -100.192"
             style="fill:none;stroke:#000000;stroke-width:15;stroke-linecap:round;stroke-linejoin:round;stroke-miterlimit:10;stroke-dasharray:none;stroke-opacity:1"
             id="path1086" /></g><g
           id="g1088"
           transform="translate(485.7891,95.9268)"><path
             d="M 0,0 H 18.711 V -33.216 H -93.828"
             style="fill:none;stroke:#000000;stroke-width:15;stroke-linecap:round;stroke-linejoin:round;stroke-miterlimit:10;stroke-dasharray:none;stroke-opacity:1"
             id="path1090" /></g><g
           id="g1092"
           transform="translate(383.6357,95.9268)"><path
             d="M 0,0 H 67.196"
             style="fill:none;stroke:#000000;stroke-width:15;stroke-linecap:round;stroke-linejoin:round;stroke-miterlimit:10;stroke-dasharray:none;stroke-opacity:1"
             id="path1094" /></g><g
           id="g1096"
           transform="translate(290.6445,260.5723)"><path
             d="m 0,0 h -69.289 c -20.614,0 -37.326,16.711 -37.326,37.326 v 76.413 H 37.326 V 37.326 C 37.326,16.711 20.614,0 0,0 Z"
             style="fill:none;stroke:#000000;stroke-width:15;stroke-linecap:round;stroke-linejoin:round;stroke-miterlimit:10;stroke-dasharray:none;stroke-opacity:1"
             id="path1098" /></g><g
           id="g1100"
           transform="translate(342.3076,374.3115)"><path
             d="m 0,0 h -172.615 c -4.469,0 -8.091,3.622 -8.091,8.09 v 16.717 c 0,4.468 3.622,8.09 8.091,8.09 H 0 c 4.469,0 8.091,-3.622 8.091,-8.09 V 8.09 C 8.091,3.622 4.469,0 0,0 Z"
             style="fill:none;stroke:#000000;stroke-width:15;stroke-linecap:round;stroke-linejoin:round;stroke-miterlimit:10;stroke-dasharray:none;stroke-opacity:1"
             id="path1102" /></g><g
           id="g1104"
           transform="translate(273.8613,469.2603)"><path
             d="m 0,0 0.081,0.002 c 34.272,0 62.054,-27.782 62.054,-62.053 H -97.857 c 0,34.271 27.782,62.053 62.053,62.053 h 0.081"
             style="fill:none;stroke:#000000;stroke-width:15;stroke-linecap:round;stroke-linejoin:round;stroke-miterlimit:10;stroke-dasharray:none;stroke-opacity:1"
             id="path1106" /></g><g
           id="g1108"
           transform="translate(266.792,487.0171)"><path
             d="m 0,0 h -21.584 c -3.904,0 -7.069,-3.165 -7.069,-7.07 V -79.808 H 7.069 V -7.07 C 7.069,-3.165 3.904,0 0,0 Z"
             style="fill:none;stroke:#000000;stroke-width:15;stroke-linecap:round;stroke-linejoin:round;stroke-miterlimit:10;stroke-dasharray:none;stroke-opacity:1"
             id="path1110" /></g><g
           id="g1112"
           transform="translate(192.8711,449.7344)"><path
             d="M 0,0 15.249,-10.272"
             style="fill:none;stroke:#000000;stroke-width:15;stroke-linecap:round;stroke-linejoin:round;stroke-miterlimit:10;stroke-dasharray:none;stroke-opacity:1"
             id="path1114" /></g><g
           id="g1116"
           transform="translate(319.1289,449.7344)"><path
             d="M 0,0 -15.249,-10.272"
             style="fill:none;stroke:#000000;stroke-width:15;stroke-linecap:round;stroke-linejoin:round;stroke-miterlimit:10;stroke-dasharray:none;stroke-opacity:1"
             id="path1118" /></g><g
           id="g1120"
           transform="translate(256,350.9492)"><path
             d="M 0,0 V -24.133"
             style="fill:none;stroke:#000000;stroke-width:15;stroke-linecap:round;stroke-linejoin:round;stroke-miterlimit:10;stroke-dasharray:none;stroke-opacity:1"
             id="path1122" /></g><g
           id="g1124"
           transform="translate(239.2412,303.4536)"><path
             d="m 0,0 c 2.943,-6.302 9.343,-10.669 16.759,-10.669 7.416,0 13.815,4.367 16.759,10.669"
             style="fill:none;stroke:#000000;stroke-width:15;stroke-linecap:round;stroke-linejoin:round;stroke-miterlimit:10;stroke-dasharray:none;stroke-opacity:1"
             id="path1126" /></g><path
           d="m 285.605,260.572 h -59.211 v -35.201 h 59.211 z"
           style="fill:none;stroke:#000000;stroke-width:15;stroke-linecap:round;stroke-linejoin:round;stroke-miterlimit:10;stroke-dasharray:none;stroke-opacity:1"
           id="path1128" /><g
           id="g1130"
           transform="translate(184.0293,312.5615)"><path
             d="M 0,0 C -17.052,0 -30.875,13.823 -30.875,30.875 -30.875,47.927 -17.052,61.75 0,61.75 Z"
             style="fill:none;stroke:#000000;stroke-width:15;stroke-linecap:round;stroke-linejoin:round;stroke-miterlimit:10;stroke-dasharray:none;stroke-opacity:1"
             id="path1132" /></g><g
           id="g1134"
           transform="translate(327.9707,312.5615)"><path
             d="M 0,0 C 17.052,0 30.875,13.823 30.875,30.875 30.875,47.927 17.052,61.75 0,61.75 Z"
             style="fill:none;stroke:#000000;stroke-width:15;stroke-linecap:round;stroke-linejoin:round;stroke-miterlimit:10;stroke-dasharray:none;stroke-opacity:1"
             id="path1136" /></g><g
           id="g1138"
           transform="translate(110.5869,24.9844)"><path
             d="m 0,0 37.592,150.031 c 1.511,6.061 4.386,11.608 8.306,16.275"
             style="fill:none;stroke:#000000;stroke-width:15;stroke-linecap:round;stroke-linejoin:round;stroke-miterlimit:10;stroke-dasharray:none;stroke-opacity:1"
             id="path1140" /></g><g
           id="g1142"
           transform="translate(355.5146,191.29)"><path
             d="M 0,0 C 3.921,-4.667 6.796,-10.214 8.307,-16.274 L 45.898,-166.306"
             style="fill:none;stroke:#000000;stroke-width:15;stroke-linecap:round;stroke-linejoin:round;stroke-miterlimit:10;stroke-dasharray:none;stroke-opacity:1"
             id="path1144" /></g><g
           id="g1146"
           transform="translate(173.9512,24.9844)"><path
             d="m 0,0 v 119.68 c 0,17.195 -6.235,33.74 -17.466,46.626 4.134,4.947 9.449,8.906 15.569,11.453 l 54.34,22.625 h 59.211 l 18.859,-7.852"
             style="fill:none;stroke:#000000;stroke-width:15;stroke-linecap:round;stroke-linejoin:round;stroke-miterlimit:10;stroke-dasharray:none;stroke-opacity:1"
             id="path1148" /></g><g
           id="g1150"
           transform="translate(334.3555,205.0708)"><path
             d="M 0,0 5.591,-2.328 C 11.71,-4.874 17.025,-8.833 21.159,-13.781 9.929,-26.667 3.693,-43.212 3.693,-60.406 v -119.68"
             style="fill:none;stroke:#000000;stroke-width:15;stroke-linecap:round;stroke-linejoin:round;stroke-miterlimit:10;stroke-dasharray:none;stroke-opacity:1"
             id="path1152" /></g><g
           id="g1154"
           transform="translate(226.3945,225.3667)"><path
             d="M 0,0 29.605,-45.154 59.211,0 Z"
             style="fill:none;stroke:#000000;stroke-width:15;stroke-linecap:round;stroke-linejoin:round;stroke-miterlimit:10;stroke-dasharray:none;stroke-opacity:1"
             id="path1156" /></g><g
           id="g1158"
           transform="translate(256,180.2124)"><path
             d="M 0,0 V -155.229"
             style="fill:none;stroke:#000000;stroke-width:15;stroke-linecap:round;stroke-linejoin:round;stroke-miterlimit:10;stroke-dasharray:none;stroke-opacity:1"
             id="path1160" /></g><path
           d="M 338.047,78.265 H 173.953 v 46.91 h 164.094 z"
           style="fill:none;stroke:#000000;stroke-width:15;stroke-linecap:round;stroke-linejoin:round;stroke-miterlimit:10;stroke-dasharray:none;stroke-opacity:1"
           id="path1162" /><g
           id="g1164"
           transform="translate(141.9033,149.9648)"><path
             d="M 0,0 -40.611,16.905 H -82.542 L -134.403,-4.683 V -124.981"
             style="fill:none;stroke:#000000;stroke-width:15;stroke-linecap:round;stroke-linejoin:round;stroke-miterlimit:10;stroke-dasharray:none;stroke-opacity:1"
             id="path1166" /></g><g
           id="g1168"
           transform="translate(55.7959,191.7993)"><path
             d="M 0,0 H 49.063 C 63.659,0 75.492,11.833 75.492,26.43 V 72.941 H -26.43 V 26.43 C -26.43,11.833 -14.597,0 0,0 Z"
             style="fill:none;stroke:#000000;stroke-width:15;stroke-linecap:round;stroke-linejoin:round;stroke-miterlimit:10;stroke-dasharray:none;stroke-opacity:1"
             id="path1170" /></g><g
           id="g1172"
           transform="translate(19.2139,264.7402)"><path
             d="m 0,0 h 122.227 c 3.164,0 5.728,2.565 5.728,5.729 v 15.485 c 0,3.164 -2.564,5.729 -5.728,5.729 L 0,26.943 c -3.163,0 -5.729,-2.565 -5.729,-5.729 V 5.729 C -5.729,2.565 -3.163,0 0,0 Z"
             style="fill:none;stroke:#000000;stroke-width:15;stroke-linecap:round;stroke-linejoin:round;stroke-miterlimit:10;stroke-dasharray:none;stroke-opacity:1"
             id="path1174" /></g><g
           id="g1176"
           transform="translate(25.1699,303.0566)"><path
             d="m 0,0 c -0.97,-3.628 -1.486,-7.44 -1.486,-11.374 h 113.287 c 0,24.268 -19.672,43.939 -43.939,43.939 h -0.057"
             style="fill:none;stroke:#000000;stroke-width:15;stroke-linecap:round;stroke-linejoin:round;stroke-miterlimit:10;stroke-dasharray:none;stroke-opacity:1"
             id="path1178" /></g><g
           id="g1180"
           transform="translate(67.6797,335.6221)"><path
             d="M 0,0 H -0.058 C -7.81,0 -15.094,-2.008 -21.417,-5.532"
             style="fill:none;stroke:#000000;stroke-width:15;stroke-linecap:round;stroke-linejoin:round;stroke-miterlimit:10;stroke-dasharray:none;stroke-opacity:1"
             id="path1182" /></g><g
           id="g1184"
           transform="translate(72.6855,348.1938)"><path
             d="m 0,0 h 15.283 c 2.765,0 5.006,-2.241 5.006,-5.006 V -56.511 H -5.006 V -5.006 C -5.006,-2.241 -2.765,0 0,0 Z"
             style="fill:none;stroke:#000000;stroke-width:15;stroke-linecap:round;stroke-linejoin:round;stroke-miterlimit:10;stroke-dasharray:none;stroke-opacity:1"
             id="path1186" /></g><g
           id="g1188"
           transform="translate(80.3271,264.7402)"><path
             d="M 0,0 V -17.769"
             style="fill:none;stroke:#000000;stroke-width:15;stroke-linecap:round;stroke-linejoin:round;stroke-miterlimit:10;stroke-dasharray:none;stroke-opacity:1"
             id="path1190" /></g><g
           id="g1192"
           transform="translate(68.4609,225.1631)"><path
             d="m 0,0 c 2.084,-4.462 6.615,-7.554 11.866,-7.554 5.251,0 9.782,3.092 11.866,7.554"
             style="fill:none;stroke:#000000;stroke-width:15;stroke-linecap:round;stroke-linejoin:round;stroke-miterlimit:10;stroke-dasharray:none;stroke-opacity:1"
             id="path1194" /></g><path
           d="M 59.364,191.799 H 101.29 V 166.874 H 59.364 Z"
           style="fill:none;stroke:#000000;stroke-width:15;stroke-linecap:round;stroke-linejoin:round;stroke-miterlimit:10;stroke-dasharray:none;stroke-opacity:1"
           id="path1196" /><g
           id="g1198"
           transform="translate(101.29,166.8711)"><path
             d="M 0,0 -20.963,-41.696 -41.926,0 Z"
             style="fill:none;stroke:#000000;stroke-width:15;stroke-linecap:round;stroke-linejoin:round;stroke-miterlimit:10;stroke-dasharray:none;stroke-opacity:1"
             id="path1200" /></g><g
           id="g1202"
           transform="translate(80.3271,125.1748)"><path
             d="M 0,0 V -100.192"
             style="fill:none;stroke:#000000;stroke-width:15;stroke-linecap:round;stroke-linejoin:round;stroke-miterlimit:10;stroke-dasharray:none;stroke-opacity:1"
             id="path1204" /></g><g
           id="g1206"
           transform="translate(128.3643,95.9268)"><path
             d="M 0,0 H -120.864 V -33.216 H -8.325"
             style="fill:none;stroke:#000000;stroke-width:15;stroke-linecap:round;stroke-linejoin:round;stroke-miterlimit:10;stroke-dasharray:none;stroke-opacity:1"
             id="path1208" /></g></g></g></g></svg>
