<svg id="Layer_1" viewBox="0 0 512 512" xmlns="http://www.w3.org/2000/svg" data-name="Layer 1"><path d="m110.002 429.423h291.996v-360.056h-145.133-146.863z" fill="#d5e3f2" fill-rule="evenodd"/><path d="m85.51 51.792h340.951v33.052h-340.951z" fill="#ff3d50"/><g fill-rule="evenodd"><path d="m255.986 129.631a61.313 61.313 0 1 0 -61.313-61.313 61.431 61.431 0 0 0 61.313 61.313z" fill="#69a7ff"/><path d="m241.501 31.978h28.97v21.855h21.855v28.97h-21.855v21.855h-28.97v-21.855h-21.827v-28.97h21.827z" fill="#d5e3f2"/><path d="m41.828 319.978h105.053v-37.871a17.8 17.8 0 0 0 -12.671-16.98c-6.152-1.842.311-11.423 2.409-15.959 1.871-4.081-94.791-11.452-94.791 32.939z" fill="#4d6c8f"/><path d="m172.76 482.6c-3.032-91.644-24.207-71.688-67.152-101.792h-22.535a159.074 159.074 0 0 1 -23.9 13.692c-27.015 12.954-40.819 15.449-43.229 88.1z" fill="#69a7ff"/><path d="m76.581 358.642h35.6v32.858a17.868 17.868 0 0 1 -17.8 17.8 17.868 17.868 0 0 1 -17.8-17.8z" fill="#f5ad65"/><path d="m134.777 451.76a11.126 11.126 0 1 0 -11.141-11.14 11.16 11.16 0 0 0 11.141 11.14z" fill="#4d6c8f"/><path d="m366.14 386.365c31.748 15.9 71.263 15.9 102.983 0a19.537 19.537 0 0 0 10.545-22.565c-6.747-26.107-9.383-45.609-6.322-67.662 3.941-28.432-25.256-57.119-55.7-57.119s-59.641 28.687-55.7 57.119c3.062 22.053.425 41.555-6.321 67.662a19.551 19.551 0 0 0 10.516 22.564z" fill="#4d6c8f"/><path d="m496.052 475.6c-3.033-91.644-24.208-71.688-67.153-101.792h-22.535a159.059 159.059 0 0 1 -23.9 13.691c-27.014 12.954-40.819 15.449-43.228 88.1z" fill="#5ccec4"/><path d="m399.872 351.641h35.6v32.853a17.869 17.869 0 0 1 -17.8 17.8 17.869 17.869 0 0 1 -17.8-17.8z" fill="#f5ad65"/><path d="m380.143 296.252a15.449 15.449 0 1 1 -21.033 5.811 15.434 15.434 0 0 1 21.033-5.811zm90.312 0a15.449 15.449 0 1 1 -21.061 5.811 15.449 15.449 0 0 1 21.061-5.811z" fill="#f5ad65"/><path d="m435.476 375a36.166 36.166 0 0 1 -17.774 5.273h-.113a36.19 36.19 0 0 1 -17.717-5.216v-23.416h35.6z" fill="#e6a059"/><path d="m379.406 284.4c-6.151 28.261-4.592 39.2-2.1 50.258 4.081 17.944 22 39.26 40.337 39.43 18.34-.17 36.226-21.486 40.308-39.43 2.523-11.055 4.082-22-2.069-50.258-19.9 3.09-38.069.482-50.8-13.975-8.248 10.006-14.825 11.934-25.682 13.975z" fill="#faba7b"/><path d="m458.068 444.759a11.126 11.126 0 1 0 -11.141-11.14 11.16 11.16 0 0 0 11.141 11.14z" fill="#4d6c8f"/><path d="m350.748 505c-3.656-110.75-29.254-86.627-81.128-123.023h-27.24a193.427 193.427 0 0 1 -28.886 16.554c-32.654 15.614-49.351 18.647-52.242 106.469z" fill="#b7cfe8"/><path d="m234.528 355.184h43.029v39.716a21.57 21.57 0 0 1 -21.514 21.486 21.552 21.552 0 0 1 -21.515-21.486z" fill="#f5ad65"/><path d="m193.425 307.619h125.15v-42.747c0-23.5-19.077-42.038-41.953-36.652-6.916 1.645-13.663-1.5-18.624-4-33.165-16.668-64.573 9.864-64.573 40.648z" fill="#4d6c8f"/><path d="m213.58 289.279a17.486 17.486 0 1 1 -23.811 6.576 17.5 17.5 0 0 1 23.811-6.576zm102.16 0a17.486 17.486 0 1 1 -23.811 6.576 17.5 17.5 0 0 1 23.811-6.576z" fill="#f5ad65"/><path d="m277.557 383.587a43.768 43.768 0 0 1 -21.486 6.35h-.142a43.991 43.991 0 0 1 -21.4-6.293v-28.46h43.029z" fill="#e6a059"/><path d="m209.781 273.943c-7.427 34.129-5.556 47.367-2.522 60.718 4.932 21.685 26.588 47.452 48.727 47.679 22.167-.227 43.823-25.994 48.728-47.679 3.032-13.351 4.932-26.589-2.5-60.718-24.066 3.714-46.006.539-61.4-16.923-9.978 12.133-17.915 14.457-31.04 16.923z" fill="#faba7b"/><path d="m304.855 467.72a13.451 13.451 0 1 0 -13.465-13.465 13.47 13.47 0 0 0 13.465 13.465z" fill="#4d6c8f"/><path d="m142.855 155.342h29.963v29.958h-29.963zm196.328 0h29.933v29.958h-29.933zm-65.452 0h29.962v29.958h-29.962zm-65.424 0h29.934v29.958h-29.934z" fill="#69a7ff"/><path d="m56.823 303.253a15.449 15.449 0 1 1 -21.061 5.811 15.436 15.436 0 0 1 21.061-5.811zm90.284 0a15.449 15.449 0 1 1 -21.033 5.811 15.435 15.435 0 0 1 21.033-5.811z" fill="#f5ad65"/><path d="m112.184 381.631a36.245 36.245 0 0 1 -17.773 5.33h-.111a36.175 36.175 0 0 1 -17.717-5.273v-23.046h35.6z" fill="#e6a059"/><path d="m56.115 291.4c-6.151 28.261-4.592 39.2-2.1 50.258 4.082 17.943 22 39.26 40.337 39.458 18.312-.2 36.227-21.515 40.309-39.458 2.523-11.055 4.082-22-2.069-50.258-19.9 3.089-38.069.482-50.8-13.975-8.249 10.006-14.825 11.962-25.682 13.975z" fill="#faba7b"/><path d="m110.002 84.844h16.469v-15.477-17.575h-40.961v33.052z" fill="#e82e41"/><path d="m126.471 84.844h-16.471v161.178a163.555 163.555 0 0 1 16.469.623z" fill="#b7cfe8"/><path d="m126.471 359.833a58 58 0 0 1 -14.287 14.853v10.46c5.1 3.175 9.865 5.7 14.287 7.881z" fill="#b7cfe8"/><path d="m208.165 68.318a61.309 61.309 0 0 1 54.6-60.945 59.573 59.573 0 0 0 -6.774-.368 61.371 61.371 0 0 0 -59.074 44.787 62.331 62.331 0 0 0 -2.239 16.526v1.049a61.219 61.219 0 0 0 61.313 60.264 59.573 59.573 0 0 0 6.774-.368 61.316 61.316 0 0 1 -52.327-44.419 60.566 60.566 0 0 1 -2.239-15.477c-.029-.34-.029-.709-.029-1.049z" fill="#5f96e6"/><path d="m24.424 482.6c1.871-48.245 9.07-64.289 22.223-73.842v-8.221c-18.822 9.753-28.715 21.663-30.699 82.063z" fill="#5f96e6"/><path d="m60.622 400.964c2.211-1.049 4.507-2.1 6.917-3.26 2.891-1.389 5.924-2.892 9.127-4.621a14.658 14.658 0 0 1 -.085-1.587v-6.378a172.044 172.044 0 0 1 -15.959 8.7z" fill="#5f96e6"/><path d="m184.751 429.423a46.022 46.022 0 0 1 15.052-15.76v-8.589c-11.225 5.641-19.927 11.65-26.22 24.349a71.68 71.68 0 0 0 -4.564 11.793c-3.061 10.2-5.244 23.527-6.605 41.385q-.765 10.162-1.162 22.394h9.525c.311-8.192.765-15.619 1.332-22.394.141-1.729.283-3.4.453-5.045 2.3-23.471 6.322-38.126 12.189-48.133z" fill="#a7bed6"/><path d="m213.806 398.384v7.71c2.863-1.389 5.925-2.806 9.1-4.308 3.685-1.758 7.568-3.685 11.65-5.9-.028-.341-.028-.681-.028-.992v-7.739a213.463 213.463 0 0 1 -20.722 11.225z" fill="#a7bed6"/><path d="m352.534 429.423c3.883-14.541 9.638-22 17.405-27.41v-8.476c-12.5 6.463-21.062 13.89-25.994 35.886-.623 2.863-1.219 5.953-1.729 9.355a143.588 143.588 0 0 1 5.414 25.058c.992-14.683 2.608-25.8 4.9-34.413z" fill="#52bfb6"/><path d="m383.913 386.819v7.568c.426-.2.879-.425 1.305-.623 1.587-.737 3.2-1.5 4.875-2.3 3.118-1.5 6.406-3.119 9.893-5.018a15.1 15.1 0 0 1 -.114-1.956v-6.378a168.31 168.31 0 0 1 -15.959 8.7z" fill="#52bfb6"/></g><path d="m142.86 192.323h29.961a7 7 0 0 0 7-7v-29.963a7 7 0 0 0 -7-7h-29.961a7 7 0 0 0 -7 7v29.961a7 7 0 0 0 7 7.002zm7-29.961h15.957v15.957h-15.955zm84.64-72.536v14.853a7 7 0 0 0 7 7h28.97a7 7 0 0 0 7-7v-14.853h14.853a7 7 0 0 0 7-7v-28.97a7 7 0 0 0 -7-7h-14.851v-14.856a7 7 0 0 0 -7-7h-28.972a7 7 0 0 0 -7 7v14.854h-14.824a7 7 0 0 0 -7 7v28.97a7 7 0 0 0 7 7zm-7.823-28.968h14.823a7 7 0 0 0 7-7v-14.858h14.966v14.856a7 7 0 0 0 7 7h14.853v14.967h-14.849a7 7 0 0 0 -7 7v14.854h-14.97v-14.853a7 7 0 0 0 -7-7h-14.823zm-18.367 131.465h29.932a7 7 0 0 0 7-7v-29.963a7 7 0 0 0 -7-7h-29.932a7 7 0 0 0 -7 7v29.961a7 7 0 0 0 7 7.002zm7-29.961h15.93v15.957h-15.929zm58.419 29.961h29.961a7 7 0 0 0 7-7v-29.963a7 7 0 0 0 -7-7h-29.96a7 7 0 0 0 -7 7v29.961a7 7 0 0 0 7 7.002zm7-29.961h15.961v15.957h-15.959zm58.448 29.961h29.933a7 7 0 0 0 7-7v-29.963a7 7 0 0 0 -7-7h-29.931a7 7 0 0 0 -7 7v29.961a7 7 0 0 0 7 7.002zm7-29.961h15.93v15.957h-15.93zm144.68 245.231a45.282 45.282 0 0 0 -15.838-16.571 26.473 26.473 0 0 0 11.419-28.961c-3.9-15.118-6.078-26.817-6.934-37.369a22.452 22.452 0 0 0 .91-28.9c1.486-13.822-3.606-28.554-14.127-40.634-12.613-14.481-30.8-23.127-48.648-23.127a57.285 57.285 0 0 0 -8.645.687v-140.851h17.461a7 7 0 0 0 7-7v-33.052a7 7 0 0 0 -7-7h-106.3a68.326 68.326 0 0 0 -128.3 0h-106.337a7 7 0 0 0 -7 7v33.05a7 7 0 0 0 7 7h17.489v147.4c-11.118.565-26.876 2.382-40.311 7.767-23.027 9.229-27.86 24.176-27.86 35.088v17.385a22.409 22.409 0 0 0 11.464 39.447c.277 1.449.58 2.865.9 4.274 2.866 12.6 11.363 26.105 22.388 34.972v2.961c-5.176 3.019-9.806 5.312-13.423 7.035-1.415.677-2.793 1.324-4.135 1.955-12.532 5.893-23.356 10.982-30.9 24.44-7.391 13.194-11.03 33.467-12.169 67.784a7 7 0 0 0 7 7.234h138.98c-.278 4.785-.5 9.829-.681 15.161a7 7 0 0 0 7 7.232h189.484a7 7 0 0 0 7-7.234c-.267-8.007-.647-15.369-1.148-22.16h139.446a7 7 0 0 0 7-7.234c-1.142-34.314-4.789-54.585-12.185-67.779zm-446.011-83.668a8.406 8.406 0 0 1 1.043-14.962 115 115 0 0 0 -1.043 14.962zm421.113 56.2c-1.958.988-4.073 1.953-6.3 2.885-5.185-2.438-10.945-5.166-17.185-8.813v-3.057c10.982-8.868 19.442-22.342 22.3-34.91.321-1.4.626-2.814.906-4.259.16-.02.319-.048.479-.072a257.929 257.929 0 0 0 6.725 33.67 12.555 12.555 0 0 1 -6.925 14.554zm-3.762 53.5a4.138 4.138 0 1 1 -4.137-4.11 4.141 4.141 0 0 1 4.14 4.11zm-44.558-66.525c-14.329-.189-30.037-18.722-33.506-33.968-2.22-9.84-3.539-19.381 1.173-42.766 7.4-1.641 13.567-3.954 20.013-9.953 11.337 9.5 26.424 13.448 45.007 11.744 4.294 22.122 2.974 31.4.793 40.963-3.471 15.257-19.167 33.79-33.48 33.98zm10.827 12.039v5.361a10.8 10.8 0 1 1 -21.6 0v-5.341a33.544 33.544 0 0 0 10.7 1.939h.131a33.538 33.538 0 0 0 10.769-1.96zm-59.346-47.268c.152.023.3.054.457.074.277 1.451.581 2.868.9 4.279 2.866 12.6 11.362 26.106 22.388 34.973v2.945c-5.159 3.025-9.8 5.323-13.426 7.051-1.311.626-2.585 1.227-3.831 1.814-2.17-.905-4.294-1.871-6.333-2.891a12.56 12.56 0 0 1 -6.876-14.555 257.278 257.278 0 0 0 6.721-33.69zm-3.925-26.34a8.419 8.419 0 0 1 3.97-3.559 114.823 114.823 0 0 0 -1.042 14.932c-.234-.144-.458-.3-.673-.459-.106-.088-.213-.175-.324-.257a8.465 8.465 0 0 1 -1.926-10.657zm104.942 8.343a8.4 8.4 0 0 1 -2.985 3.049 114.759 114.759 0 0 0 -1.048-15 8.612 8.612 0 0 1 .87.424 8.47 8.47 0 0 1 3.163 11.527zm-14.409-49.516c6.191 7.108 9.92 15.258 10.768 23.211a22.621 22.621 0 0 0 -2.867-.29c-.285-1.411-.585-2.853-.911-4.352a7 7 0 0 0 -7.918-5.427c-20.221 3.14-34.763-.692-44.466-11.711a7 7 0 0 0 -5.254-2.375h-.12a7.005 7.005 0 0 0 -5.29 2.555c-6.674 8.121-11.215 9.621-21.565 11.568a7 7 0 0 0 -5.547 5.391c-.328 1.5-.628 2.946-.914 4.359a22.541 22.541 0 0 0 -2.868.316c.84-7.968 4.57-16.135 10.77-23.254 9.838-11.3 24.433-18.311 38.091-18.311s28.248 7.019 38.091 18.32zm-132.079-205.541h95.8v19.047h-95.8a67.176 67.176 0 0 0 0-19.047zm-67.663-44.817a54.324 54.324 0 1 1 -54.309 54.338 54.4 54.4 0 0 1 54.309-54.338zm-64.136 77.867a68.335 68.335 0 0 0 128.3 0h74.842v144.71a68.847 68.847 0 0 0 -26 18.575c-10.543 12.105-15.634 26.877-14.116 40.729a22.213 22.213 0 0 0 -1.853 2.733 22.487 22.487 0 0 0 2.754 26.009c-.856 10.6-3.031 22.317-6.931 37.43a26.487 26.487 0 0 0 11.37 28.952c-8.672 5.507-15.61 12.924-20.4 27.171-8.639-12-20.181-17.431-33.3-23.6-6.585-3.1-13.944-6.56-21.961-11.3v-5.214c13.269-10.479 23.538-26.71 26.981-41.843.593-2.614 1.146-5.243 1.6-8.02a24.614 24.614 0 0 0 15.26-11.617 24.441 24.441 0 0 0 -2.828-28.138v-23.558c0-14.289-6.265-27.779-16.758-36.089a39.006 39.006 0 0 0 -33.81-7.372c-4.331 1.031-9.236-1.142-13.859-3.441-16.491-8.288-34.5-7.773-49.4 1.417a53.755 53.755 0 0 0 -25.318 45.485v23.646a24.4 24.4 0 0 0 -5.065 22.455 24.523 24.523 0 0 0 17.468 17.2c.456 2.783 1.009 5.416 1.6 8.032 3.451 15.176 13.769 31.455 27.093 41.931v5.071c-6.227 3.685-12.057 6.6-17.05 8.992q-2.564 1.226-4.994 2.361c-14.008 6.585-26.224 12.328-35.022 26.117-7.587-18.205-19.522-23.831-33.785-30.543-5.259-2.475-11.123-5.24-17.484-8.956v-3.052c10.983-8.867 19.443-22.341 22.3-34.909.321-1.4.626-2.816.907-4.261a22.453 22.453 0 0 0 11.486-39.483v-17.367a24.909 24.909 0 0 0 -14.608-22.546c.65-1.538 1.628-3.4 2.206-4.5.55-1.046 1.069-2.034 1.511-2.991a7.325 7.325 0 0 0 -1.414-8.127c-1.78-1.864-4.426-3.129-12.683-4.075-3.534-.406-7.614-.67-11.889-.785v-147.229zm119.438 362.393a6.449 6.449 0 1 1 -6.434-6.433 6.456 6.456 0 0 1 6.434 6.433zm-55.3-78.942c-5.677-.067-11.452-2.306-16.846-5.939a7.047 7.047 0 0 0 -1.278-.9c-11.377-8.217-20.851-22.506-23.774-35.36-2.761-12.155-4.393-23.938 1.59-53.2 9.45-2.024 17.175-4.824 25.359-12.769 13.824 12.232 32.147 17.029 55.649 14.579 5.536 27.891 3.91 39.457 1.2 51.387-2.934 12.9-12.461 27.238-23.888 35.442a6.881 6.881 0 0 0 -.959.678c-5.457 3.718-11.305 6.015-17.055 6.082zm14.569 11.007v8.552a14.513 14.513 0 0 1 -29.025 0v-8.5a40.063 40.063 0 0 0 14.394 2.949h.125a40.1 40.1 0 0 0 14.504-3.001zm-62.067-119.249a7 7 0 0 0 -5.548 5.392c-.6 2.737-1.127 5.334-1.61 7.83-.3.045-.6.092-.9.148v-15.56a39.661 39.661 0 0 1 18.664-33.567c10.831-6.678 23.533-6.97 35.788-.811 4.8 2.387 13.732 6.825 23.344 4.543a25.245 25.245 0 0 1 21.9 4.724c7.169 5.676 11.448 15.063 11.448 25.111v15.535c-.3-.056-.605-.094-.907-.139-.482-2.491-1.011-5.083-1.606-7.814a7.006 7.006 0 0 0 -7.909-5.431c-24.979 3.855-43-.932-55.076-14.632a7 7 0 0 0 -10.654.177c-8.376 10.154-14.338 12.127-26.934 14.494zm104.719 28.9c.258.184.508.378.746.583l.067.061a10.5 10.5 0 0 1 2.215 13.033 10.575 10.575 0 0 1 -1.87 2.374 138.863 138.863 0 0 0 -1.158-16.052zm-114.431.068a139.275 139.275 0 0 0 -1.158 15.911 10.479 10.479 0 0 1 1.158-15.911zm-59.858 144.582a4.138 4.138 0 1 1 -4.139-4.109 4.143 4.143 0 0 1 4.139 4.109zm3.911-131.681a8.117 8.117 0 0 1 .82.407 8.431 8.431 0 0 1 .224 14.556 114.554 114.554 0 0 0 -1.044-14.963zm-50.311-231.081v-19.047h95.832a67.225 67.225 0 0 0 0 19.047zm-43.238 212.064c-.153.706-.3 1.394-.443 2.081v-9.889c0-7.056 3.252-12.723 9.941-17.325 12.627-8.688 33.816-11.483 50.474-11.8a7.219 7.219 0 0 0 .754.042 7.144 7.144 0 0 0 .907-.065 140.442 140.442 0 0 1 15.674.652c-1.731 3.983-2.822 8.3-1.122 12.341a10.317 10.317 0 0 0 6.746 5.883 10.794 10.794 0 0 1 7.671 10.27v9.889c-.145-.687-.29-1.375-.444-2.081a7 7 0 0 0 -7.914-5.43c-20.239 3.139-34.784-.683-44.467-11.682a7 7 0 0 0 -5.255-2.375h-.113a7 7 0 0 0 -5.291 2.551c-6.678 8.1-11.22 9.6-21.572 11.546a7 7 0 0 0 -5.546 5.392zm11.574 50.2c-2.221-9.841-3.539-19.383 1.173-42.767 7.386-1.639 13.549-3.944 19.988-9.915 11.365 9.632 26.211 13.493 45.033 11.715 4.292 22.113 2.972 31.4.791 40.955-3.471 15.258-19.168 33.79-33.48 33.979-14.328-.184-30.036-18.716-33.505-33.962zm44.333 46.006v5.366a10.8 10.8 0 1 1 -21.6 0v-5.341a33.572 33.572 0 0 0 10.711 1.941h.13a33.538 33.538 0 0 0 10.759-1.961zm50.79 89.465h-132.738c2.154-46.533 9.313-58.708 23.387-67.031v15.952a17.866 17.866 0 0 0 -11.093 13.98l-2.235 15.161a11.243 11.243 0 0 0 4.076 10.391l2.608 2.182a7 7 0 1 0 8.983-10.734l-1.591-1.33 2.009-13.605a3.994 3.994 0 0 1 4.245-3.392 3.957 3.957 0 0 1 4.241 3.375l2.013 13.629-1.592 1.347a7 7 0 1 0 9.042 10.691l2.519-2.131a11.168 11.168 0 0 0 4.11-10.415l-2.235-15.139a17.755 17.755 0 0 0 -11.1-14.015v-22.945c.525-.248 1.032-.485 1.564-.739 2.3-1.1 5-2.411 7.978-3.983a24.8 24.8 0 0 0 48.427.026c3.226 1.7 6.286 3.189 9.18 4.563v22.483a18.142 18.142 0 1 0 14 0v-15.555c10.187 5.83 16.192 12.954 20.036 32.506-2.633 9.329-4.541 20.692-5.834 34.729zm12.55 22.401c.225-5.166.5-9.982.827-14.5a6.947 6.947 0 0 0 .062-.871c1.236-16.628 3.181-28.963 5.921-38.375a6.95 6.95 0 0 0 .607-1.99c5.162-16.262 12.945-23.314 23.859-29.275v22.8a20.089 20.089 0 0 0 -13.447 16.091l-2.684 18.292a12.083 12.083 0 0 0 4.408 11.278l3.146 2.635a7 7 0 0 0 8.992-10.734l-2.548-2.134 2.54-17.3a6.735 6.735 0 0 1 13.16 0l2.542 17.3-2.548 2.134a7 7 0 1 0 8.992 10.734l3.142-2.632a12.07 12.07 0 0 0 4.42-11.235l-2.694-18.344a20.084 20.084 0 0 0 -13.418-16.074v-29.66q1.339-.632 2.719-1.29c3.432-1.647 7.245-3.533 11.317-5.725a28.517 28.517 0 0 0 56.391.047c4.839 2.6 9.374 4.8 13.617 6.8v29.11a20.442 20.442 0 1 0 14 0v-22.276c10.612 5.744 18.292 12.435 23.5 27.413a6.963 6.963 0 0 0 .549 1.639c2.7 8.349 4.694 19.158 6.057 33.552 0 .065-.01.129-.01.194a7.025 7.025 0 0 0 .168 1.511c.561 6.27 1.008 13.2 1.345 20.882zm186.762-29.4c-1.4-12.133-3.332-22.073-5.9-30.333 3.674-22.634 9.859-30.534 20.514-36.731v15.98a17.868 17.868 0 0 0 -11.093 13.984l-2.239 15.164c-.006.041-.012.082-.017.123a11.236 11.236 0 0 0 4.093 10.241l2.579 2.182a7 7 0 1 0 9.046-10.689l-1.619-1.369 2.007-13.591a4.352 4.352 0 0 1 8.488 0l2.034 13.6-1.616 1.367a7 7 0 0 0 9.046 10.689l2.516-2.129a11.277 11.277 0 0 0 4.156-10.294l-.018-.137-2.263-15.123a17.752 17.752 0 0 0 -11.1-14.016v-22.94c.524-.249 1.031-.485 1.562-.74 2.306-1.1 5-2.414 7.979-3.986a24.8 24.8 0 0 0 48.427.029c3.226 1.7 6.286 3.188 9.181 4.562v22.484a18.14 18.14 0 1 0 14 0v-15.527c14.273 8.332 21.52 20.354 23.695 67.2z"/></svg>